<svg xmlns="http://www.w3.org/2000/svg" xmlns:xlink="http://www.w3.org/1999/xlink" contentStyleType="text/css" data-diagram-type="DESCRIPTION" height="621px" preserveAspectRatio="none" style="width:1441px;height:621px;background:#DDDDDD;" version="1.1" viewBox="0 0 1441 621" width="1441px" zoomAndPan="magnify"><?plantuml 1.2026.3beta5?><defs/><g><rect fill="#DDDDDD" height="621" style="stroke:none;stroke-width:1;" width="1441" x="0" y="0"/><g class="title" data-source-line="4"><text fill="#000000" font-family="sans-serif" font-size="14" font-weight="700" lengthAdjust="spacing" textLength="407.8662" x="513.0669" y="22.9951">Diagrama de Componentes - Plataforma Adaptativa</text></g><!--cluster Frontend (React SPA)--><g class="cluster" data-qualified-name="Frontend .React SPA." data-source-line="6" id="ent0002"><path d="M1243.5,43.2969 L1413.166,43.2969 A5.25,5.25 0 0 1 1416.666,46.7969 L1423.666,65.5938 L1422.5,65.5938 A3.5,3.5 0 0 1 1426,69.0938 L1426,305.8269 A3.5,3.5 0 0 1 1422.5,309.3269 L1243.5,309.3269 A3.5,3.5 0 0 1 1240,305.8269 L1240,46.7969 A3.5,3.5 0 0 1 1243.5,43.2969" fill="none" style="stroke:#454645;stroke-width:1;"/><line style="stroke:#454645;stroke-width:1;" x1="1240" x2="1423.666" y1="65.5938" y2="65.5938"/><text fill="#000000" font-family="sans-serif" font-size="14" font-weight="700" lengthAdjust="spacing" textLength="170.666" x="1244" y="58.292">Frontend (React SPA)</text></g><!--cluster API Gateway Layer--><g class="cluster" data-qualified-name="API Gateway Layer" data-source-line="12" id="ent0006"><path d="M1045.5,43.2969 L1193.0791,43.2969 A5.25,5.25 0 0 1 1196.5791,46.7969 L1203.5791,65.5938 L1212.5,65.5938 A3.5,3.5 0 0 1 1216,69.0938 L1216,291.6869 A3.5,3.5 0 0 1 1212.5,295.1869 L1045.5,295.1869 A3.5,3.5 0 0 1 1042,291.6869 L1042,46.7969 A3.5,3.5 0 0 1 1045.5,43.2969" fill="none" style="stroke:#454645;stroke-width:1;"/><line style="stroke:#454645;stroke-width:1;" x1="1042" x2="1203.5791" y1="65.5938" y2="65.5938"/><text fill="#000000" font-family="sans-serif" font-size="14" font-weight="700" lengthAdjust="spacing" textLength="148.5791" x="1046" y="58.292">API Gateway Layer</text></g><!--cluster Servicios--><g class="cluster" data-qualified-name="Servicios" data-source-line="18" id="ent0010"><path d="M9.5,203.8869 L79.9561,203.8869 A5.25,5.25 0 0 1 83.4561,207.3869 L90.4561,226.1838 L1014.5,226.1838 A3.5,3.5 0 0 1 1018,229.6838 L1018,448.9769 A3.5,3.5 0 0 1 1014.5,452.4769 L9.5,452.4769 A3.5,3.5 0 0 1 6,448.9769 L6,207.3869 A3.5,3.5 0 0 1 9.5,203.8869" fill="none" style="stroke:#454645;stroke-width:1;"/><line style="stroke:#454645;stroke-width:1;" x1="6" x2="90.4561" y1="226.1838" y2="226.1838"/><text fill="#000000" font-family="sans-serif" font-size="14" font-weight="700" lengthAdjust="spacing" textLength="71.4561" x="10" y="218.882">Servicios</text></g><!--cluster Persistence Layer--><g class="cluster" data-qualified-name="Persistence Layer" data-source-line="33" id="ent0020"><path d="M322,495.4769 C322,485.4769 663,485.4769 663,485.4769 C663,485.4769 1004,485.4769 1004,495.4769 L1004,586.7769 C1004,596.7769 663,596.7769 663,596.7769 C663,596.7769 322,596.7769 322,586.7769 L322,495.4769" fill="#98DDDE" style="stroke:#454645;stroke-width:1;"/><path d="M322,495.4769 C322,505.4769 663,505.4769 663,505.4769 C663,505.4769 1004,505.4769 1004,495.4769" fill="none" style="stroke:#454645;stroke-width:1;"/><text fill="#454645" font-family="sans-serif" font-size="14" font-weight="700" lengthAdjust="spacing" textLength="140.8408" x="592.5796" y="520.472">Persistence Layer</text></g><!--entity WC--><g class="entity" data-qualified-name="Frontend .React SPA..WC" data-source-line="7" id="ent0003"><rect fill="#F1F1F1" height="62.5938" rx="3.5" ry="3.5" style="stroke:#181818;stroke-width:0.5;" width="138.332" x="1255.83" y="78.2969"/><rect fill="#F1F1F1" height="10" style="stroke:#181818;stroke-width:0.5;" width="15" x="1374.162" y="83.2969"/><rect fill="#F1F1F1" height="2" style="stroke:#181818;stroke-width:0.5;" width="4" x="1372.162" y="85.2969"/><rect fill="#F1F1F1" height="2" style="stroke:#181818;stroke-width:0.5;" width="4" x="1372.162" y="89.2969"/><text fill="#000000" font-family="sans-serif" font-size="14" font-style="italic" lengthAdjust="spacing" textLength="96.332" x="1271.83" y="111.292">«component»</text><text fill="#000000" font-family="sans-serif" font-size="14" lengthAdjust="spacing" textLength="76.3232" x="1281.8344" y="127.5889">Web Client</text></g><!--entity Store--><g class="entity" data-qualified-name="Frontend .React SPA..Store" data-source-line="8" id="ent0004"><rect fill="#F1F1F1" height="46.2969" rx="3.5" ry="3.5" style="stroke:#181818;stroke-width:0.5;" width="118.8184" x="1265.59" y="247.0369"/><rect fill="#F1F1F1" height="10" style="stroke:#181818;stroke-width:0.5;" width="15" x="1364.4084" y="252.0369"/><rect fill="#F1F1F1" height="2" style="stroke:#181818;stroke-width:0.5;" width="4" x="1362.4084" y="254.0369"/><rect fill="#F1F1F1" height="2" style="stroke:#181818;stroke-width:0.5;" width="4" x="1362.4084" y="258.0369"/><text fill="#000000" font-family="sans-serif" font-size="14" lengthAdjust="spacing" textLength="78.8184" x="1280.59" y="280.032">State Store</text></g><!--entity GW--><g class="entity" data-qualified-name="API Gateway Layer.GW" data-source-line="13" id="ent0007"><rect fill="#F1F1F1" height="62.5938" rx="3.5" ry="3.5" style="stroke:#181818;stroke-width:0.5;" width="141.8008" x="1058.1" y="78.2969"/><rect fill="#F1F1F1" height="10" style="stroke:#181818;stroke-width:0.5;" width="15" x="1179.9008" y="83.2969"/><rect fill="#F1F1F1" height="2" style="stroke:#181818;stroke-width:0.5;" width="4" x="1177.9008" y="85.2969"/><rect fill="#F1F1F1" height="2" style="stroke:#181818;stroke-width:0.5;" width="4" x="1177.9008" y="89.2969"/><text fill="#000000" font-family="sans-serif" font-size="14" font-style="italic" lengthAdjust="spacing" textLength="96.332" x="1075.8344" y="111.292">«component»</text><text fill="#000000" font-family="sans-serif" font-size="14" lengthAdjust="spacing" textLength="101.8008" x="1073.1" y="127.5889">Kong Gateway</text></g><!--entity I_REST--><g class="entity" data-qualified-name="API Gateway Layer.I_REST" data-source-line="14" id="ent0008"><ellipse cx="1129" cy="270.1869" fill="#F1F1F1" rx="8" ry="8" style="stroke:#181818;stroke-width:0.5;"/><text fill="#000000" font-family="sans-serif" font-size="14" lengthAdjust="spacing" textLength="62.6104" x="1097.6948" y="300.182">REST API</text></g><!--entity US--><g class="entity" data-qualified-name="Servicios.US" data-source-line="19" id="ent0011"><rect fill="#F1F1F1" height="62.5938" rx="3.5" ry="3.5" style="stroke:#181818;stroke-width:0.5;" width="138.332" x="682.83" y="238.8869"/><rect fill="#F1F1F1" height="10" style="stroke:#181818;stroke-width:0.5;" width="15" x="801.162" y="243.8869"/><rect fill="#F1F1F1" height="2" style="stroke:#181818;stroke-width:0.5;" width="4" x="799.162" y="245.8869"/><rect fill="#F1F1F1" height="2" style="stroke:#181818;stroke-width:0.5;" width="4" x="799.162" y="249.8869"/><text fill="#000000" font-family="sans-serif" font-size="14" font-style="italic" lengthAdjust="spacing" textLength="96.332" x="698.83" y="271.882">«component»</text><text fill="#000000" font-family="sans-serif" font-size="14" lengthAdjust="spacing" textLength="88.1016" x="702.9452" y="288.1789">User Service</text></g><!--entity CS--><g class="entity" data-qualified-name="Servicios.CS" data-source-line="20" id="ent0012"><rect fill="#F1F1F1" height="62.5938" rx="3.5" ry="3.5" style="stroke:#181818;stroke-width:0.5;" width="145.0684" x="856.47" y="238.8869"/><rect fill="#F1F1F1" height="10" style="stroke:#181818;stroke-width:0.5;" width="15" x="981.5384" y="243.8869"/><rect fill="#F1F1F1" height="2" style="stroke:#181818;stroke-width:0.5;" width="4" x="979.5384" y="245.8869"/><rect fill="#F1F1F1" height="2" style="stroke:#181818;stroke-width:0.5;" width="4" x="979.5384" y="249.8869"/><text fill="#000000" font-family="sans-serif" font-size="14" font-style="italic" lengthAdjust="spacing" textLength="96.332" x="875.8382" y="271.882">«component»</text><text fill="#000000" font-family="sans-serif" font-size="14" lengthAdjust="spacing" textLength="105.0684" x="871.47" y="288.1789">Course Service</text></g><!--entity AS--><g class="entity" data-qualified-name="Servicios.AS" data-source-line="21" id="ent0013"><rect fill="#F1F1F1" height="62.5938" rx="3.5" ry="3.5" style="stroke:#181818;stroke-width:0.5;" width="206.0039" x="247" y="238.8869"/><rect fill="#F1F1F1" height="10" style="stroke:#181818;stroke-width:0.5;" width="15" x="433.0039" y="243.8869"/><rect fill="#F1F1F1" height="2" style="stroke:#181818;stroke-width:0.5;" width="4" x="431.0039" y="245.8869"/><rect fill="#F1F1F1" height="2" style="stroke:#181818;stroke-width:0.5;" width="4" x="431.0039" y="249.8869"/><text fill="#000000" font-family="sans-serif" font-size="14" font-style="italic" lengthAdjust="spacing" textLength="96.332" x="296.8359" y="271.882">«component»</text><text fill="#000000" font-family="sans-serif" font-size="14" lengthAdjust="spacing" textLength="166.0039" x="262" y="288.1789">Assessment &amp; Adaptive</text></g><!--entity COLLAB--><g class="entity" data-qualified-name="Servicios.COLLAB" data-source-line="22" id="ent0014"><rect fill="#F1F1F1" height="62.5938" rx="3.5" ry="3.5" style="stroke:#181818;stroke-width:0.5;" width="189.4951" x="22.25" y="238.8869"/><rect fill="#F1F1F1" height="10" style="stroke:#181818;stroke-width:0.5;" width="15" x="191.7451" y="243.8869"/><rect fill="#F1F1F1" height="2" style="stroke:#181818;stroke-width:0.5;" width="4" x="189.7451" y="245.8869"/><rect fill="#F1F1F1" height="2" style="stroke:#181818;stroke-width:0.5;" width="4" x="189.7451" y="249.8869"/><text fill="#000000" font-family="sans-serif" font-size="14" font-style="italic" lengthAdjust="spacing" textLength="96.332" x="63.8315" y="271.882">«component»</text><text fill="#000000" font-family="sans-serif" font-size="14" lengthAdjust="spacing" textLength="149.4951" x="37.25" y="288.1789">Collaboration Service</text></g><!--entity ANS--><g class="entity" data-qualified-name="Servicios.ANS" data-source-line="23" id="ent0015"><rect fill="#F1F1F1" height="62.5938" rx="3.5" ry="3.5" style="stroke:#181818;stroke-width:0.5;" width="159.7656" x="488.12" y="238.8869"/><rect fill="#F1F1F1" height="10" style="stroke:#181818;stroke-width:0.5;" width="15" x="627.8856" y="243.8869"/><rect fill="#F1F1F1" height="2" style="stroke:#181818;stroke-width:0.5;" width="4" x="625.8856" y="245.8869"/><rect fill="#F1F1F1" height="2" style="stroke:#181818;stroke-width:0.5;" width="4" x="625.8856" y="249.8869"/><text fill="#000000" font-family="sans-serif" font-size="14" font-style="italic" lengthAdjust="spacing" textLength="96.332" x="514.8368" y="271.882">«component»</text><text fill="#000000" font-family="sans-serif" font-size="14" lengthAdjust="spacing" textLength="119.7656" x="503.12" y="288.1789">Analytics Service</text></g><!--entity I_EV--><g class="entity" data-qualified-name="Servicios.I_EV" data-source-line="25" id="ent0016"><ellipse cx="305" cy="407.4769" fill="#F1F1F1" rx="8" ry="8" style="stroke:#181818;stroke-width:0.5;"/><text fill="#000000" font-family="sans-serif" font-size="14" lengthAdjust="spacing" textLength="114.1328" x="247.9336" y="437.472">Interfaz Eventos</text></g><!--entity PG--><g class="entity" data-qualified-name="Persistence Layer.PG" data-source-line="34" id="ent0021"><path d="M777.62,545.4769 C777.62,535.4769 827.9965,535.4769 827.9965,535.4769 C827.9965,535.4769 878.3729,535.4769 878.3729,545.4769 L878.3729,570.7738 C878.3729,580.7738 827.9965,580.7738 827.9965,580.7738 C827.9965,580.7738 777.62,580.7738 777.62,570.7738 L777.62,545.4769" fill="#98DDDE" style="stroke:#454645;stroke-width:0.5;"/><path d="M777.62,545.4769 C777.62,555.4769 827.9965,555.4769 827.9965,555.4769 C827.9965,555.4769 878.3729,555.4769 878.3729,545.4769" fill="none" style="stroke:#454645;stroke-width:0.5;"/><text fill="#454645" font-family="sans-serif" font-size="14" lengthAdjust="spacing" textLength="80.7529" x="787.62" y="572.472">PostgreSQL</text></g><!--entity RD--><g class="entity" data-qualified-name="Persistence Layer.RD" data-source-line="35" id="ent0022"><path d="M523.34,545.4769 C523.34,535.4769 582.0016,535.4769 582.0016,535.4769 C582.0016,535.4769 640.6632,535.4769 640.6632,545.4769 L640.6632,570.7738 C640.6632,580.7738 582.0016,580.7738 582.0016,580.7738 C582.0016,580.7738 523.34,580.7738 523.34,570.7738 L523.34,545.4769" fill="#98DDDE" style="stroke:#454645;stroke-width:0.5;"/><path d="M523.34,545.4769 C523.34,555.4769 582.0016,555.4769 582.0016,555.4769 C582.0016,555.4769 640.6632,555.4769 640.6632,545.4769" fill="none" style="stroke:#454645;stroke-width:0.5;"/><text fill="#454645" font-family="sans-serif" font-size="14" lengthAdjust="spacing" textLength="97.3232" x="533.34" y="572.472">Redis (Cache)</text></g><!--entity MQ--><g class="entity" data-qualified-name="Persistence Layer.MQ" data-source-line="36" id="ent0023"><path d="M342.83,544.9769 L483.164,544.9769 C488.164,544.9769 488.164,558.1253 488.164,558.1253 C488.164,558.1253 488.164,571.2738 483.164,571.2738 L342.83,571.2738 C337.83,571.2738 337.83,558.1253 337.83,558.1253 C337.83,558.1253 337.83,544.9769 342.83,544.9769" fill="#FF6F61" style="stroke:#454645;stroke-width:1.5;"/><path d="M483.164,544.9769 C478.164,544.9769 478.164,558.1253 478.164,558.1253 C478.164,571.2738 483.164,571.2738 483.164,571.2738" fill="none" style="stroke:#454645;stroke-width:1.5;"/><text fill="#FFFFFF" font-family="sans-serif" font-size="14" lengthAdjust="spacing" textLength="130.334" x="342.83" y="562.972">RabbitMQ (Broker)</text></g><!--entity S3--><g class="entity" data-qualified-name="Persistence Layer.S3" data-source-line="37" id="ent0024"><rect fill="#F1F1F1" height="36.2969" rx="35" ry="35" style="stroke:#181818;stroke-width:0.5;" width="74.5508" x="913.72" y="539.9769"/><text fill="#000000" font-family="sans-serif" font-size="14" lengthAdjust="spacing" textLength="54.5508" x="923.72" y="562.972">AWS S3</text></g><!--link WC to Store--><g class="link" data-entity-1="ent0003" data-entity-2="ent0004" data-link-type="dependency" data-source-line="9" id="lnk5"><path d="M1325,141.1669 C1325,172.1269 1325,213.2769 1325,240.8769" fill="none" id="WC-to-Store" style="stroke:#454645;stroke-width:1;stroke-dasharray:7,7;"/><polygon fill="#454645" points="1325,246.8769,1329,237.8769,1325,241.8769,1321,237.8769,1325,246.8769" style="stroke:#454645;stroke-width:1;"/><text fill="#000000" font-family="sans-serif" font-size="13" lengthAdjust="spacing" textLength="22.9785" x="1326" y="183.9538">usa</text></g><!--link GW to I_REST--><g class="link" data-entity-1="ent0007" data-entity-2="ent0008" data-link-type="association" data-source-line="15" id="lnk9"><path d="M1118.69,141.1669 C1114.39,178.2569 1115.77,238.5469 1122.85,260.6869" fill="none" id="GW-I_REST" style="stroke:#454645;stroke-width:1;"/></g><!--link I_REST to GW--><g class="link" data-entity-1="ent0008" data-entity-2="ent0007" data-link-type="association" data-source-line="42" id="lnk26"><path d="M1135.52,260.6869 C1143,238.5469 1144.47,178.2569 1139.92,141.1669" fill="none" id="I_REST-GW" style="stroke:#454645;stroke-width:1;"/></g><!--link AS to I_EV--><g class="link" data-entity-1="ent0013" data-entity-2="ent0016" data-link-type="dependency" data-source-line="28" id="lnk17"><path d="M307.38,301.9169 C298.71,310.4269 290.78,320.4069 286,331.4769 C275.88,354.9069 288.0915,379.7755 296.6915,393.6655" fill="none" id="AS-to-I_EV" style="stroke:#454645;stroke-width:1;stroke-dasharray:7,7;"/><polygon fill="#454645" points="299.85,398.7669,298.5131,389.0092,297.2179,394.5157,291.7113,393.2205,299.85,398.7669" style="stroke:#454645;stroke-width:1;"/><text fill="#000000" font-family="sans-serif" font-size="13" lengthAdjust="spacing" textLength="47.0806" x="287" y="344.5438">publica</text></g><!--link COLLAB to I_EV--><g class="link" data-entity-1="ent0014" data-entity-2="ent0016" data-link-type="dependency" data-source-line="29" id="lnk18"><path d="M156.34,301.7969 C175.13,316.2069 198.04,333.4869 219,348.4769 C246.83,368.3869 275.6924,387.4223 291.3224,397.6023" fill="none" id="COLLAB-to-I_EV" style="stroke:#454645;stroke-width:1;stroke-dasharray:7,7;"/><polygon fill="#454645" points="296.35,400.8769,290.9916,392.6133,292.1603,398.1481,286.6255,399.3168,296.35,400.8769" style="stroke:#454645;stroke-width:1;"/><text fill="#000000" font-family="sans-serif" font-size="13" lengthAdjust="spacing" textLength="54.1392" x="220" y="344.5438">suscribe</text></g><!--link ANS to I_EV--><g class="link" data-entity-1="ent0015" data-entity-2="ent0016" data-link-type="dependency" data-source-line="30" id="lnk19"><path d="M508.32,301.8869 C443.15,335.4069 349.3757,383.6527 319.2957,399.1227" fill="none" id="ANS-to-I_EV" style="stroke:#454645;stroke-width:1;stroke-dasharray:7,7;"/><polygon fill="#454645" points="313.96,401.8669,323.793,401.3078,318.4064,399.5801,320.1341,394.1935,313.96,401.8669" style="stroke:#454645;stroke-width:1;"/><text fill="#000000" font-family="sans-serif" font-size="13" lengthAdjust="spacing" textLength="54.1392" x="445" y="344.5438">suscribe</text></g><!--link WC to I_REST--><g class="link" data-entity-1="ent0003" data-entity-2="ent0008" data-source-line="41" id="lnk25"><path d="M1277.56,141.3369 C1264.17,150.4869 1249.78,160.7669 1237,170.8869 C1197.84,201.8869 1162.0992,236.3541 1144.4292,253.8341" fill="none" id="WC-to-I_REST" style="stroke:#454645;stroke-width:1;"/><path d="M1145.4561,264.7145 A9,9 0 0 0 1133.5606 252.6897" fill="none" style="stroke:#454645;stroke-width:1.5;"/><text fill="#000000" font-family="sans-serif" font-size="13" lengthAdjust="spacing" textLength="78.1714" x="1238" y="183.9538">HTTPS/JSON</text></g><!--link GW to US--><g class="link" data-entity-1="ent0007" data-entity-2="ent0011" data-link-type="dependency" data-source-line="44" id="lnk27"><path d="M1057.89,122.9369 C997.16,135.4369 908.8,158.3769 839,195.8869 C818.12,207.1069 802.0942,219.8214 786.2942,234.5114" fill="none" id="GW-to-US" style="stroke:#454645;stroke-width:1;stroke-dasharray:7,7;"/><polygon fill="#454645" points="781.9,238.5969,791.2149,235.3981,785.5618,235.1923,785.7676,229.5392,781.9,238.5969" style="stroke:#454645;stroke-width:1;"/><text fill="#000000" font-family="sans-serif" font-size="13" lengthAdjust="spacing" textLength="42.8848" x="892" y="183.9538">enruta</text></g><!--link GW to CS--><g class="link" data-entity-1="ent0007" data-entity-2="ent0012" data-link-type="dependency" data-source-line="45" id="lnk28"><path d="M1090.44,141.1669 C1055.14,169.1569 1007.8616,206.6493 972.4816,234.6993" fill="none" id="GW-to-CS" style="stroke:#454645;stroke-width:1;stroke-dasharray:7,7;"/><polygon fill="#454645" points="967.78,238.4269,977.3175,235.97,971.698,235.3206,972.3474,229.7011,967.78,238.4269" style="stroke:#454645;stroke-width:1;"/><text fill="#000000" font-family="sans-serif" font-size="13" lengthAdjust="spacing" textLength="42.8848" x="1053" y="183.9538">enruta</text></g><!--link GW to AS--><g class="link" data-entity-1="ent0007" data-entity-2="ent0013" data-link-type="dependency" data-source-line="46" id="lnk29"><path d="M1057.98,109.8369 C934.72,110.6769 674.89,122.0369 471,195.8869 C442.71,206.1369 418.7618,219.9981 396.2918,235.1781" fill="none" id="GW-to-AS" style="stroke:#454645;stroke-width:1;stroke-dasharray:7,7;"/><polygon fill="#454645" points="391.32,238.5369,401.0169,236.8132,395.4632,235.7379,396.5385,230.1842,391.32,238.5369" style="stroke:#454645;stroke-width:1;"/><text fill="#000000" font-family="sans-serif" font-size="13" lengthAdjust="spacing" textLength="42.8848" x="540" y="183.9538">enruta</text></g><!--link GW to COLLAB--><g class="link" data-entity-1="ent0007" data-entity-2="ent0014" data-link-type="dependency" data-source-line="47" id="lnk30"><path d="M1057.83,112.7769 C872.97,119.1869 381.38,141.0269 229,195.8869 C202,205.6069 179.7953,219.4273 159.0653,234.8373" fill="none" id="GW-to-COLLAB" style="stroke:#454645;stroke-width:1;stroke-dasharray:7,7;"/><polygon fill="#454645" points="154.25,238.4169,163.8593,236.2578,158.2627,235.4339,159.0866,229.8374,154.25,238.4169" style="stroke:#454645;stroke-width:1;"/><text fill="#000000" font-family="sans-serif" font-size="13" lengthAdjust="spacing" textLength="42.8848" x="318" y="183.9538">enruta</text></g><!--link GW to ANS--><g class="link" data-entity-1="ent0007" data-entity-2="ent0015" data-link-type="dependency" data-source-line="48" id="lnk31"><path d="M1057.64,113.5169 C963.89,119.6069 795.82,138.3369 665,195.8869 C641.43,206.2569 622.8611,219.5004 605.1011,234.6004" fill="none" id="GW-to-ANS" style="stroke:#454645;stroke-width:1;stroke-dasharray:7,7;"/><polygon fill="#454645" points="600.53,238.4869,609.9777,235.7046,604.3393,235.2481,604.7957,229.6097,600.53,238.4869" style="stroke:#454645;stroke-width:1;"/><text fill="#000000" font-family="sans-serif" font-size="13" lengthAdjust="spacing" textLength="42.8848" x="725" y="183.9538">enruta</text></g><!--link US to PG--><g class="link" data-entity-1="ent0011" data-entity-2="ent0021" data-link-type="dependency" data-source-line="51" id="lnk32"><path d="M761.1,301.6269 C767.43,323.0669 775.97,352.4669 783,378.4769 C798.19,434.6769 813.1203,495.4348 821.2903,529.2348" fill="none" id="US-to-PG" style="stroke:#454645;stroke-width:1;"/><polygon fill="#454645" points="822.7,535.0669,824.4735,525.379,821.5253,530.2068,816.6974,527.2586,822.7,535.0669" style="stroke:#454645;stroke-width:1;"/></g><!--link US to RD--><g class="link" data-entity-1="ent0011" data-entity-2="ent0022" data-link-type="dependency" data-source-line="52" id="lnk33"><path d="M738.27,301.9069 C720.75,340.1069 688.65,406.8269 655,460.4769 C638.13,487.3769 619.5423,511.5091 604.0323,530.6091" fill="none" id="US-to-RD" style="stroke:#454645;stroke-width:1;"/><polygon fill="#454645" points="600.25,535.2669,609.0286,530.8018,603.4019,531.3854,602.8183,525.7588,600.25,535.2669" style="stroke:#454645;stroke-width:1;"/><text fill="#000000" font-family="sans-serif" font-size="13" lengthAdjust="spacing" textLength="56.1196" x="702" y="412.0438">sesiones</text></g><!--link CS to PG--><g class="link" data-entity-1="ent0012" data-entity-2="ent0021" data-link-type="dependency" data-source-line="53" id="lnk34"><path d="M918.19,301.7869 C897.68,359.8469 855.5785,479.0495 837.7285,529.5795" fill="none" id="CS-to-PG" style="stroke:#454645;stroke-width:1;"/><polygon fill="#454645" points="835.73,535.2369,842.4993,528.0831,837.3954,530.5224,834.9562,525.4185,835.73,535.2369" style="stroke:#454645;stroke-width:1;"/><text fill="#000000" font-family="sans-serif" font-size="13" lengthAdjust="spacing" textLength="71.6968" x="892" y="412.0438">Resultados</text></g><!--link CS to S3--><g class="link" data-entity-1="ent0012" data-entity-2="ent0024" data-link-type="dependency" data-source-line="54" id="lnk35"><path d="M955,301.7269 C970.52,322.0269 988.76,350.0969 997,378.4769 C1007.16,413.4769 1005.03,424.9269 997,460.4769 C990.37,489.8469 976.8163,515.6136 965.4763,534.3536" fill="none" id="CS-to-S3" style="stroke:#454645;stroke-width:1;"/><polygon fill="#454645" points="962.37,539.4869,970.4516,533.8578,964.9586,535.2091,963.6072,529.716,962.37,539.4869" style="stroke:#454645;stroke-width:1;"/><text fill="#000000" font-family="sans-serif" font-size="13" lengthAdjust="spacing" textLength="69.0308" x="1004" y="412.0438">materiales</text></g><!--link RD to PG--><g class="link" data-entity-1="ent0022" data-entity-2="ent0021" data-link-type="dependency" data-source-line="55" id="lnk36"><path d="M640.92,558.1269 C682.57,558.1269 731.82,558.1269 771.46,558.1269" fill="none" id="RD-to-PG" style="stroke:#454645;stroke-width:1;"/><polygon fill="#454645" points="777.46,558.1269,768.46,554.1269,772.46,558.1269,768.46,562.1269,777.46,558.1269" style="stroke:#454645;stroke-width:1;"/><text fill="#000000" font-family="sans-serif" font-size="13" lengthAdjust="spacing" textLength="100.1533" x="659.14" y="551.1938">actualizaciones</text></g><!--link AS to RD--><g class="link" data-entity-1="ent0013" data-entity-2="ent0022" data-link-type="dependency" data-source-line="56" id="lnk37"><path d="M403.61,301.9069 C415.1,310.3569 426.37,320.3169 435,331.4769 C472.53,379.9869 447.47,411.2169 484,460.4769 C491.36,470.4069 496.82,469.2069 506,477.4769 C526.45,495.9069 543.9216,514.3413 558.8116,530.8513" fill="none" id="AS-to-RD" style="stroke:#454645;stroke-width:1;"/><polygon fill="#454645" points="562.83,535.3069,559.7728,525.9445,559.4813,531.5939,553.832,531.3024,562.83,535.3069" style="stroke:#454645;stroke-width:1;"/><text fill="#000000" font-family="sans-serif" font-size="13" lengthAdjust="spacing" textLength="39.9458" x="485" y="412.0438">reglas</text></g><!--link I_EV to MQ--><g class="link" data-entity-1="ent0016" data-entity-2="ent0023" data-link-type="dependency" data-source-line="57" id="lnk38"><path d="M310.81,416.4769 C328.59,440.9569 378.903,510.203 400.433,539.833" fill="none" id="I_EV-to-MQ" style="stroke:#454645;stroke-width:1;"/><polygon fill="#454645" points="403.96,544.6869,401.9055,535.0547,401.0208,540.642,395.4336,539.7573,403.96,544.6869" style="stroke:#454645;stroke-width:1;"/></g><!--link ANS to PG--><g class="link" data-entity-1="ent0015" data-entity-2="ent0021" data-link-type="dependency" data-source-line="58" id="lnk39"><path d="M557.29,301.6869 C545.01,342.7569 530.99,415.8169 568,460.4769 C593.98,491.8269 619.26,464.9669 658,477.4769 C704.37,492.4569 749.2607,514.2931 782.9907,532.2031" fill="none" id="ANS-to-PG" style="stroke:#454645;stroke-width:1;"/><polygon fill="#454645" points="788.29,535.0169,782.217,527.2633,783.8739,532.672,778.4652,534.329,788.29,535.0169" style="stroke:#454645;stroke-width:1;"/><text fill="#000000" font-family="sans-serif" font-size="13" lengthAdjust="spacing" textLength="77.6255" x="569" y="412.0438">read replica</text></g><?plantuml-src VLHDRzf04BtxLqmvjEJWL6fkLOJa64hJaeHuatAeecgm9sGLuwMxQr9IzR_thMqYK50kQ3tlxNoyUSix_o1B8MysaNlKrOejBoatovMffFBARqgXUbb-YYAlFSv3pGjGc0gXT4iJHp5DI_PyRoomfE2LPw_N74KhpXzv8TJxOWsOLK7zJ3ZtfAR9KO_-HaG_PpAdjDJ8T4Udfo_L1mDYHxCqK1Jo2IblhDo5Q7C2C4lf-7ZGVj9dgXr7_tQA9jDp6kFc4szemXknNSNlfbfiWGCrnpEGDDgrzvmZJJPIDuHSlG2U_mgV88nd6BlxsYsgnAvrhethYjqwiTG6vK2nMnL8gQcjapTeQKDBd1FdbeZI-rPdlJx4JhgaPSbpOx4BKxsL-seoISwQ_1MN6wzpzmOxkGp9znKwRu_FD5g35qPlb1hzQ9aVA9EIeKa5hy0w7Gj8efe51YhsjwhdfSuPyRQbNSpLBhTw7hQE3WuYs4815yuPIlQcOfrsi1pwszdz3i4ulx2YhYTDjzFn7ff9eHtrKyuVvAWXP4CGVjTI1vJdS-qlhgb_PisZs9PnSGs6WnTRyyqKgPC6K2UXjpqLHd-WM0LiqmXIsThpChm1W_TNKSgsq5Y6BhY8uF8uxdTUmy2zhpStK_Nncxgwx4LTD8w3RIEOCYXpgq2J9kasbBuE9GTOhUwlc9SxrFr1cCuWMBFM8MEf62YJ76x6Vj5670-2jDqf6uPzYMkkHkaMHZ0JLvUU2_CILYS8B_58hUOIRDoDhLuy-EqL_8tKKEYvwoHATcfOMPJieiOX8OZLX1bUobdX0Z-hOBV_?></g></svg>