<svg xmlns="http://www.w3.org/2000/svg" xmlns:xlink="http://www.w3.org/1999/xlink" contentStyleType="text/css" data-diagram-type="SEQUENCE" height="609px" preserveAspectRatio="none" style="width:1332px;height:609px;background:#FAFAFA;" version="1.1" viewBox="0 0 1332 609" width="1332px" zoomAndPan="magnify"><?plantuml 1.2026.3beta5?><defs/><g><rect fill="#FAFAFA" height="609" style="stroke:none;stroke-width:1;" width="1332" x="0" y="0"/><g class="title" data-source-line="1"><text fill="#000000" font-family="sans-serif" font-size="14" font-weight="700" lengthAdjust="spacing" textLength="525.957" x="399.9312" y="27.9951">SC-05: Publicacion en Foro (Publish/Subscribe para notificaciones)</text></g><g><title>Collaboration</title><rect fill="#FFFFFF" height="160.7969" style="stroke:#181818;stroke-width:1;" width="10" x="810.915" y="281.5547"/></g><g class="participant-lifeline" data-entity-uid="part1" data-qualified-name="USR" data-source-line="6" id="part1-lifeline"><g><title>Usuario</title><rect fill="#000000" fill-opacity="0.00000" height="375.7266" width="8" x="78.5527" y="134.8906"/><line style="stroke:#181818;stroke-width:0.5;stroke-dasharray:5,5;" x1="82" x2="82" y1="134.8906" y2="510.6172"/></g></g><g class="participant-lifeline" data-entity-uid="part2" data-qualified-name="WC" data-source-line="7" id="part2-lifeline"><g><title>Web Client</title><rect fill="#000000" fill-opacity="0.00000" height="375.7266" width="8" x="279.5254" y="134.8906"/><line style="stroke:#181818;stroke-width:0.5;stroke-dasharray:5,5;" x1="283.3638" x2="283.3638" y1="134.8906" y2="510.6172"/></g></g><g class="participant-lifeline" data-entity-uid="part3" data-qualified-name="GW" data-source-line="8" id="part3-lifeline"><g><title>API Gateway</title><rect fill="#000000" fill-opacity="0.00000" height="375.7266" width="8" x="508.4214" y="134.8906"/><line style="stroke:#181818;stroke-width:0.5;stroke-dasharray:5,5;" x1="512.1997" x2="512.1997" y1="134.8906" y2="510.6172"/></g></g><g class="participant-lifeline" data-entity-uid="part4" data-qualified-name="COL" data-source-line="9" id="part4-lifeline"><g><title>Collaboration</title><rect fill="#000000" fill-opacity="0.00000" height="375.7266" width="8" x="811.915" y="134.8906"/><line style="stroke:#181818;stroke-width:0.5;stroke-dasharray:5,5;" x1="815.2632" x2="815.2632" y1="134.8906" y2="510.6172"/></g></g><g class="participant-lifeline" data-entity-uid="part5" data-qualified-name="PG" data-source-line="10" id="part5-lifeline"><g><title>PostgreSQL</title><rect fill="#000000" fill-opacity="0.00000" height="375.7266" width="8" x="1263.2183" y="134.8906"/><line style="stroke:#181818;stroke-width:0.5;stroke-dasharray:5,5;" x1="1266.6172" x2="1266.6172" y1="134.8906" y2="510.6172"/></g></g><g class="participant participant-head" data-entity-uid="part1" data-qualified-name="USR" data-source-line="6" id="part1-head"><text fill="#000000" font-family="sans-serif" font-size="14" lengthAdjust="spacing" textLength="53.2041" x="52.9507" y="115.292">Usuario</text><text fill="#000000" font-family="sans-serif" font-size="14" lengthAdjust="spacing" textLength="149.1055" x="5" y="131.5889">(Estudiante/Docente)</text><ellipse cx="82.5527" cy="50.7969" fill="#E2E2F0" rx="8" ry="8" style="stroke:#181818;stroke-width:0.5;"/><path d="M82.5527,58.7969 L82.5527,85.7969 M69.5527,66.7969 L95.5527,66.7969 M82.5527,85.7969 L69.5527,100.7969 M82.5527,85.7969 L95.5527,100.7969" fill="none" style="stroke:#181818;stroke-width:0.5;"/></g><g class="participant participant-tail" data-entity-uid="part1" data-qualified-name="USR" data-source-line="6" id="part1-tail"><text fill="#000000" font-family="sans-serif" font-size="14" lengthAdjust="spacing" textLength="53.2041" x="52.9507" y="522.6123">Usuario</text><text fill="#000000" font-family="sans-serif" font-size="14" lengthAdjust="spacing" textLength="149.1055" x="5" y="538.9092">(Estudiante/Docente)</text><ellipse cx="82.5527" cy="550.7109" fill="#E2E2F0" rx="8" ry="8" style="stroke:#181818;stroke-width:0.5;"/><path d="M82.5527,558.7109 L82.5527,585.7109 M69.5527,566.7109 L95.5527,566.7109 M82.5527,585.7109 L69.5527,600.7109 M82.5527,585.7109 L95.5527,600.7109" fill="none" style="stroke:#181818;stroke-width:0.5;"/></g><g class="participant participant-head" data-entity-uid="part2" data-qualified-name="WC" data-source-line="7" id="part2-head"><rect fill="#E2E2F0" height="30.2969" rx="2.5" ry="2.5" style="stroke:#181818;stroke-width:0.5;" width="90.3232" x="238.3638" y="103.5938"/><text fill="#000000" font-family="sans-serif" font-size="14" lengthAdjust="spacing" textLength="76.3232" x="245.3638" y="123.5889">Web Client</text></g><g class="participant participant-tail" data-entity-uid="part2" data-qualified-name="WC" data-source-line="7" id="part2-tail"><rect fill="#E2E2F0" height="30.2969" rx="2.5" ry="2.5" style="stroke:#181818;stroke-width:0.5;" width="90.3232" x="238.3638" y="509.6172"/><text fill="#000000" font-family="sans-serif" font-size="14" lengthAdjust="spacing" textLength="76.3232" x="245.3638" y="529.6123">Web Client</text></g><g class="participant participant-head" data-entity-uid="part3" data-qualified-name="GW" data-source-line="8" id="part3-head"><rect fill="#E2E2F0" height="30.2969" rx="2.5" ry="2.5" style="stroke:#181818;stroke-width:0.5;" width="102.4434" x="461.1997" y="103.5938"/><text fill="#000000" font-family="sans-serif" font-size="14" lengthAdjust="spacing" textLength="88.4434" x="468.1997" y="123.5889">API Gateway</text></g><g class="participant participant-tail" data-entity-uid="part3" data-qualified-name="GW" data-source-line="8" id="part3-tail"><rect fill="#E2E2F0" height="30.2969" rx="2.5" ry="2.5" style="stroke:#181818;stroke-width:0.5;" width="102.4434" x="461.1997" y="509.6172"/><text fill="#000000" font-family="sans-serif" font-size="14" lengthAdjust="spacing" textLength="88.4434" x="468.1997" y="529.6123">API Gateway</text></g><g class="participant participant-head" data-entity-uid="part4" data-qualified-name="COL" data-source-line="9" id="part4-head"><rect fill="#E2E2F0" height="46.5938" rx="2.5" ry="2.5" style="stroke:#181818;stroke-width:0.5;" width="107.3037" x="762.2632" y="87.2969"/><text fill="#000000" font-family="sans-serif" font-size="14" lengthAdjust="spacing" textLength="93.3037" x="769.2632" y="107.292">Collaboration</text><text fill="#000000" font-family="sans-serif" font-size="14" lengthAdjust="spacing" textLength="51.7412" x="790.0444" y="123.5889">Service</text></g><g class="participant participant-tail" data-entity-uid="part4" data-qualified-name="COL" data-source-line="9" id="part4-tail"><rect fill="#E2E2F0" height="46.5938" rx="2.5" ry="2.5" style="stroke:#181818;stroke-width:0.5;" width="107.3037" x="762.2632" y="509.6172"/><text fill="#000000" font-family="sans-serif" font-size="14" lengthAdjust="spacing" textLength="93.3037" x="769.2632" y="529.6123">Collaboration</text><text fill="#000000" font-family="sans-serif" font-size="14" lengthAdjust="spacing" textLength="51.7412" x="790.0444" y="545.9092">Service</text></g><g class="participant participant-head" data-entity-uid="part5" data-qualified-name="PG" data-source-line="10" id="part5-head"><text fill="#000000" font-family="sans-serif" font-size="14" lengthAdjust="spacing" textLength="80.7529" x="1223.8418" y="115.292">PostgreSQL</text><text fill="#000000" font-family="sans-serif" font-size="14" lengthAdjust="spacing" textLength="103.2021" x="1212.6172" y="131.5889">schema_collab</text><path d="M1249.2183,66.2969 C1249.2183,56.2969 1267.2183,56.2969 1267.2183,56.2969 C1267.2183,56.2969 1285.2183,56.2969 1285.2183,66.2969 L1285.2183,92.2969 C1285.2183,102.2969 1267.2183,102.2969 1267.2183,102.2969 C1267.2183,102.2969 1249.2183,102.2969 1249.2183,92.2969 L1249.2183,66.2969" fill="#E2E2F0" style="stroke:#181818;stroke-width:0.5;"/><path d="M1249.2183,66.2969 C1249.2183,76.2969 1267.2183,76.2969 1267.2183,76.2969 C1267.2183,76.2969 1285.2183,76.2969 1285.2183,66.2969" fill="none" style="stroke:#181818;stroke-width:0.5;"/></g><g class="participant participant-tail" data-entity-uid="part5" data-qualified-name="PG" data-source-line="10" id="part5-tail"><text fill="#000000" font-family="sans-serif" font-size="14" lengthAdjust="spacing" textLength="80.7529" x="1223.8418" y="522.6123">PostgreSQL</text><text fill="#000000" font-family="sans-serif" font-size="14" lengthAdjust="spacing" textLength="103.2021" x="1212.6172" y="538.9092">schema_collab</text><path d="M1249.2183,552.2109 C1249.2183,542.2109 1267.2183,542.2109 1267.2183,542.2109 C1267.2183,542.2109 1285.2183,542.2109 1285.2183,552.2109 L1285.2183,578.2109 C1285.2183,588.2109 1267.2183,588.2109 1267.2183,588.2109 C1267.2183,588.2109 1249.2183,588.2109 1249.2183,578.2109 L1249.2183,552.2109" fill="#E2E2F0" style="stroke:#181818;stroke-width:0.5;"/><path d="M1249.2183,552.2109 C1249.2183,562.2109 1267.2183,562.2109 1267.2183,562.2109 C1267.2183,562.2109 1285.2183,562.2109 1285.2183,552.2109" fill="none" style="stroke:#181818;stroke-width:0.5;"/></g><g><title>Collaboration</title><rect fill="#FFFFFF" height="160.7969" style="stroke:#181818;stroke-width:1;" width="10" x="810.915" y="281.5547"/></g><g class="message" data-entity-1="part1" data-entity-2="part2" data-source-line="12" id="msg1"><polygon fill="#181818" points="271.5254,162.0234,281.5254,166.0234,271.5254,170.0234,275.5254,166.0234" style="stroke:#181818;stroke-width:1;"/><line style="stroke:#181818;stroke-width:2;" x1="82.5527" x2="277.5254" y1="166.0234" y2="166.0234"/><text fill="#000000" font-family="sans-serif" font-size="13" lengthAdjust="spacing" textLength="176.9727" x="89.5527" y="160.9575">Escribe y envia publicacion</text></g><g class="message" data-entity-1="part2" data-entity-2="part3" data-source-line="13" id="msg2"><polygon fill="#181818" points="500.4214,206.2891,510.4214,210.2891,500.4214,214.2891,504.4214,210.2891" style="stroke:#181818;stroke-width:1;"/><line style="stroke:#181818;stroke-width:2;" x1="283.5254" x2="506.4214" y1="210.2891" y2="210.2891"/><text fill="#000000" font-family="sans-serif" font-size="13" lengthAdjust="spacing" textLength="204.896" x="290.5254" y="190.0903">POST /api/v1/forums/{id}/posts</text><text fill="#000000" font-family="sans-serif" font-size="13" lengthAdjust="spacing" textLength="110.1001" x="290.5254" y="205.2231">{content} + JWT</text></g><g class="message" data-entity-1="part3" data-entity-2="part3" data-source-line="14" id="msg3"><line style="stroke:#181818;stroke-width:2;" x1="512.4214" x2="554.4214" y1="239.4219" y2="239.4219"/><line style="stroke:#181818;stroke-width:2;" x1="554.4214" x2="554.4214" y1="239.4219" y2="252.4219"/><line style="stroke:#181818;stroke-width:2;" x1="513.4214" x2="554.4214" y1="252.4219" y2="252.4219"/><polygon fill="#181818" points="523.4214,248.4219,513.4214,252.4219,523.4214,256.4219,519.4214,252.4219" style="stroke:#181818;stroke-width:1;"/><text fill="#000000" font-family="sans-serif" font-size="13" lengthAdjust="spacing" textLength="213.4526" x="519.4214" y="234.356">Valida JWT + inscripcion al curso</text></g><g class="message" data-entity-1="part3" data-entity-2="part4" data-source-line="15" id="msg4"><polygon fill="#181818" points="798.915,277.5547,808.915,281.5547,798.915,285.5547,802.915,281.5547" style="stroke:#181818;stroke-width:1;"/><line style="stroke:#181818;stroke-width:2;" x1="512.4214" x2="804.915" y1="281.5547" y2="281.5547"/><text fill="#000000" font-family="sans-serif" font-size="13" lengthAdjust="spacing" textLength="279.4937" x="519.4214" y="276.4888">POST /forums/{id}/posts {userId, content}</text></g><g class="message" data-entity-1="part4" data-entity-2="part5" data-source-line="18" id="msg5"><polygon fill="#181818" points="1255.2183,306.6875,1265.2183,310.6875,1255.2183,314.6875,1259.2183,310.6875" style="stroke:#181818;stroke-width:1;"/><line style="stroke:#181818;stroke-width:2;" x1="820.915" x2="1261.2183" y1="310.6875" y2="310.6875"/><text fill="#000000" font-family="sans-serif" font-size="13" lengthAdjust="spacing" textLength="422.3032" x="827.915" y="305.6216">INSERT INTO posts {threadId, authorId, content, status: ACTIVE}</text></g><g class="message" data-entity-1="part5" data-entity-2="part4" data-source-line="19" id="msg6"><polygon fill="#181818" points="831.915,335.8203,821.915,339.8203,831.915,343.8203,827.915,339.8203" style="stroke:#181818;stroke-width:1;"/><line style="stroke:#181818;stroke-width:2;stroke-dasharray:2,2;" x1="825.915" x2="1266.2183" y1="339.8203" y2="339.8203"/><text fill="#000000" font-family="sans-serif" font-size="13" lengthAdjust="spacing" textLength="56.7036" x="837.915" y="334.7544">{postId}</text></g><g class="message" data-entity-1="part4" data-entity-2="part3" data-source-line="22" id="msg7"><polygon fill="#181818" points="523.4214,364.9531,513.4214,368.9531,523.4214,372.9531,519.4214,368.9531" style="stroke:#181818;stroke-width:1;"/><line style="stroke:#181818;stroke-width:2;stroke-dasharray:2,2;" x1="517.4214" x2="809.915" y1="368.9531" y2="368.9531"/><text fill="#000000" font-family="sans-serif" font-size="13" lengthAdjust="spacing" textLength="181.3145" x="529.4214" y="363.8872">HTTP 201 {postId, content}</text></g><g class="message" data-entity-1="part3" data-entity-2="part2" data-source-line="23" id="msg8"><polygon fill="#181818" points="294.5254,394.0859,284.5254,398.0859,294.5254,402.0859,290.5254,398.0859" style="stroke:#181818;stroke-width:1;"/><line style="stroke:#181818;stroke-width:2;stroke-dasharray:2,2;" x1="288.5254" x2="511.4214" y1="398.0859" y2="398.0859"/><text fill="#000000" font-family="sans-serif" font-size="13" lengthAdjust="spacing" textLength="62.4419" x="300.5254" y="393.02">HTTP 201</text></g><g class="message" data-entity-1="part2" data-entity-2="part1" data-source-line="24" id="msg9"><polygon fill="#181818" points="93.5527,438.3516,83.5527,442.3516,93.5527,446.3516,89.5527,442.3516" style="stroke:#181818;stroke-width:1;"/><line style="stroke:#181818;stroke-width:2;stroke-dasharray:2,2;" x1="87.5527" x2="282.5254" y1="442.3516" y2="442.3516"/><text fill="#000000" font-family="sans-serif" font-size="13" lengthAdjust="spacing" textLength="119.3042" x="99.5527" y="422.1528">Publicacion visible</text><text fill="#000000" font-family="sans-serif" font-size="13" lengthAdjust="spacing" textLength="106.9326" x="99.5527" y="437.2856">en tiempo real &#9989;</text></g><path d="M23,455.3516 L23,495.3516 L341,495.3516 L341,465.3516 L331,455.3516 L23,455.3516" fill="#FEFFDD" style="stroke:#181818;stroke-width:0.5;"/><path d="M331,455.3516 L331,465.3516 L341,465.3516 L331,455.3516" fill="#FEFFDD" style="stroke:#181818;stroke-width:0.5;"/><text fill="#000000" font-family="sans-serif" font-size="13" lengthAdjust="spacing" textLength="142.7778" x="85.3232" y="472.4185">Respuesta &lt; 2s P95 &#9989;</text><text fill="#000000" font-family="sans-serif" font-size="13" lengthAdjust="spacing" textLength="185.0405" x="85.3232" y="487.5513">(notificaciones no bloquean)</text><?plantuml-src PLDDQzj04BtlhnZSIq9jb1Xog2a5epgkIsXKIualXZ9QJUB5ygww7mh1-DX_qL_NNz9POQKsHGUXdVVUpBnzyihN17awkhgPG1RAMacKocWW3RV66hZe3jqcoKFff5KbGOCMGHkldevWSfT2kAtIiR83Hpy3QKbJQyrBiL5oomW7unD8YNBxR4tGLMfgO-7TxJG-Gg3q_3buS06jCcjzCNC-L0grf-IpaSJlom6WWuTyALZBAwaQhi9WHIMajM94Lr-bv-Lfje0vUdh1rwu-NvtNUOuQIsFHyq9hdPDjbQGEcjxVYGezbkW81fbn_jbI_lrkhPtSq0v_o8xROREv43mQZ3xn1321sT6pLpQqLGZDFui50nWsNp4ikyyBIB1HINkTF1aRTYxPg-gGDDpDhVLU6jvS-mEyXw-hGZ2ffpvYhIgCfrnJElPhkXl46cImpXp1lCLRe_ywm3uuiejg27sZU1EgPSEwzKLaiqWsPut5jtosBFXLtCEHxJUMi8fy37vZJfM6u3pwu2OmJOl5u-mWM6JqDj0-AYogWpZswDVwKXGPZA-kUy39P76VtjyUrfd9Xz7xyo2togcofhNcH7j5kyO0prh3dz-_XE0K4vYMR2GEEyKbkIOGpmmVOSmN-k4cGZc9vudd7m3Asd3IKNFwAphrwoy0?></g></svg>