<svg xmlns="http://www.w3.org/2000/svg" xmlns:xlink="http://www.w3.org/1999/xlink" contentStyleType="text/css" data-diagram-type="DESCRIPTION" height="1096px" preserveAspectRatio="none" style="width:1492px;height:1096px;background:#FFFFFF;" version="1.1" viewBox="0 0 1492 1096" width="1492px" zoomAndPan="magnify"><?plantuml 1.2026.3beta5?><defs/><g><!--cluster Sistema de Aprendizaje Adaptativo--><g class="cluster" data-qualified-name="Sistema de Aprendizaje Adaptativo" data-source-line="8" id="ent0005"><rect fill="none" height="1072" rx="2.5" ry="2.5" style="stroke:#181818;stroke-width:1;" width="1326.82" x="152.08" y="7"/><text fill="#000000" font-family="sans-serif" font-size="14" font-weight="700" lengthAdjust="spacing" textLength="278.209" x="676.3855" y="21.9951">Sistema de Aprendizaje Adaptativo</text></g><!--entity UC1--><g class="entity" data-qualified-name="Sistema de Aprendizaje Adaptativo.UC1" data-source-line="10" id="ent0006"><ellipse cx="282.9267" cy="57.0036" fill="#F1F1F1" rx="59.4967" ry="14.5236" style="stroke:#181818;stroke-width:0.5;"/><text fill="#000000" font-family="sans-serif" font-size="14" lengthAdjust="spacing" textLength="79.8984" x="242.9775" y="61.6521">Registrarse</text></g><!--entity UC2--><g class="entity" data-qualified-name="Sistema de Aprendizaje Adaptativo.UC2" data-source-line="11" id="ent0007"><ellipse cx="282.9311" cy="122.0042" fill="#F1F1F1" rx="64.3711" ry="15.2742" style="stroke:#181818;stroke-width:0.5;"/><text fill="#000000" font-family="sans-serif" font-size="14" lengthAdjust="spacing" textLength="91.793" x="237.0346" y="126.6527">Iniciar sesión</text></g><!--entity UC3--><g class="entity" data-qualified-name="Sistema de Aprendizaje Adaptativo.UC3" data-source-line="12" id="ent0008"><ellipse cx="282.9343" cy="910.0049" fill="#F1F1F1" rx="70.7743" ry="16.5549" style="stroke:#181818;stroke-width:0.5;"/><text fill="#000000" font-family="sans-serif" font-size="14" lengthAdjust="spacing" textLength="108.3223" x="228.7732" y="914.6533">Gestionar perfil</text></g><!--entity UC4--><g class="entity" data-qualified-name="Sistema de Aprendizaje Adaptativo.UC4" data-source-line="14" id="ent0009"><ellipse cx="282.9282" cy="187.0036" fill="#F1F1F1" rx="55.2382" ry="14.5236" style="stroke:#181818;stroke-width:0.5;"/><text fill="#000000" font-family="sans-serif" font-size="14" lengthAdjust="spacing" textLength="73.876" x="245.9902" y="191.6521">Ver cursos</text></g><!--entity UC5--><g class="entity" data-qualified-name="Sistema de Aprendizaje Adaptativo.UC5" data-source-line="15" id="ent0010"><ellipse cx="282.9303" cy="255.0001" fill="#F1F1F1" rx="82.5503" ry="18.9101" style="stroke:#181818;stroke-width:0.5;"/><text fill="#000000" font-family="sans-serif" font-size="14" lengthAdjust="spacing" textLength="136.6504" x="214.6052" y="259.6485">Inscribirse en curso</text></g><!--entity UC6--><g class="entity" data-qualified-name="Sistema de Aprendizaje Adaptativo.UC6" data-source-line="16" id="ent0011"><ellipse cx="282.9321" cy="328.0024" fill="#F1F1F1" rx="82.5621" ry="18.9124" style="stroke:#181818;stroke-width:0.5;"/><text fill="#000000" font-family="sans-serif" font-size="14" lengthAdjust="spacing" textLength="136.6777" x="214.5932" y="332.6509">Realizar evaluación</text></g><!--entity UC7--><g class="entity" data-qualified-name="Sistema de Aprendizaje Adaptativo.UC7" data-source-line="17" id="ent0012"><ellipse cx="282.9308" cy="397.0042" fill="#F1F1F1" rx="63.9708" ry="15.1942" style="stroke:#181818;stroke-width:0.5;"/><text fill="#000000" font-family="sans-serif" font-size="14" lengthAdjust="spacing" textLength="90.7197" x="237.571" y="401.6526">Ver progreso</text></g><!--entity UC8--><g class="entity" data-qualified-name="Sistema de Aprendizaje Adaptativo.UC8" data-source-line="19" id="ent0013"><ellipse cx="282.9323" cy="546.0025" fill="#F1F1F1" rx="79.0623" ry="18.2125" style="stroke:#181818;stroke-width:0.5;"/><text fill="#000000" font-family="sans-serif" font-size="14" lengthAdjust="spacing" textLength="128.4609" x="218.7019" y="550.6509">Participar en foros</text></g><!--entity UC9--><g class="entity" data-qualified-name="Sistema de Aprendizaje Adaptativo.UC9" data-source-line="20" id="ent0014"><ellipse cx="282.9282" cy="470.0016" fill="#F1F1F1" rx="102.3082" ry="22.8616" style="stroke:#181818;stroke-width:0.5;"/><text fill="#000000" font-family="sans-serif" font-size="14" lengthAdjust="spacing" textLength="181.1318" x="192.3622" y="474.6501">Unirse a grupo de estudio</text></g><!--entity UC10--><g class="entity" data-qualified-name="Sistema de Aprendizaje Adaptativo.UC10" data-source-line="22" id="ent0015"><ellipse cx="282.9271" cy="844.0036" fill="#F1F1F1" rx="60.3571" ry="14.5236" style="stroke:#181818;stroke-width:0.5;"/><text fill="#000000" font-family="sans-serif" font-size="14" lengthAdjust="spacing" textLength="81.1152" x="242.3695" y="848.6521">Crear curso</text></g><!--entity UC11--><g class="entity" data-qualified-name="Sistema de Aprendizaje Adaptativo.UC11" data-source-line="23" id="ent0016"><ellipse cx="282.9275" cy="774.9955" fill="#F1F1F1" rx="84.7775" ry="19.3555" style="stroke:#181818;stroke-width:0.5;"/><text fill="#000000" font-family="sans-serif" font-size="14" lengthAdjust="spacing" textLength="141.8115" x="212.0217" y="779.6439">Gestionar contenido</text></g><!--entity UC12--><g class="entity" data-qualified-name="Sistema de Aprendizaje Adaptativo.UC12" data-source-line="24" id="ent0017"><ellipse cx="282.9292" cy="703.0038" fill="#F1F1F1" rx="75.0192" ry="17.4038" style="stroke:#181818;stroke-width:0.5;"/><text fill="#000000" font-family="sans-serif" font-size="14" lengthAdjust="spacing" textLength="118.7744" x="223.542" y="707.6523">Crear evaluación</text></g><!--entity UC13--><g class="entity" data-qualified-name="Sistema de Aprendizaje Adaptativo.UC13" data-source-line="25" id="ent0018"><ellipse cx="282.9335" cy="625.0007" fill="#F1F1F1" rx="114.8535" ry="25.3707" style="stroke:#181818;stroke-width:0.5;"/><text fill="#000000" font-family="sans-serif" font-size="14" lengthAdjust="spacing" textLength="208.3389" x="178.764" y="629.6491">Configurar reglas adaptativas</text></g><!--entity UC14--><g class="entity" data-qualified-name="Sistema de Aprendizaje Adaptativo.UC14" data-source-line="26" id="ent0019"><ellipse cx="282.9255" cy="977.0031" fill="#F1F1F1" rx="62.9155" ry="14.9831" style="stroke:#181818;stroke-width:0.5;"/><text fill="#000000" font-family="sans-serif" font-size="14" lengthAdjust="spacing" textLength="87.8623" x="238.9944" y="981.6515">Ver analítica</text></g><!--entity UC15--><g class="entity" data-qualified-name="Sistema de Aprendizaje Adaptativo.UC15" data-source-line="28" id="ent0020"><ellipse cx="282.9323" cy="1044.9985" fill="#F1F1F1" rx="80.3423" ry="18.4685" style="stroke:#181818;stroke-width:0.5;"/><text fill="#000000" font-family="sans-serif" font-size="14" lengthAdjust="spacing" textLength="131.4824" x="217.1911" y="1049.6469">Gestionar usuarios</text></g><!--entity UC16--><g class="entity" data-qualified-name="Sistema de Aprendizaje Adaptativo.UC16" data-source-line="30" id="ent0021"><ellipse cx="936.391" cy="326.0002" fill="#F1F1F1" rx="94.601" ry="21.3202" style="stroke:#181818;stroke-width:0.5;"/><text fill="#000000" font-family="sans-serif" font-size="14" lengthAdjust="spacing" textLength="164.083" x="854.3494" y="330.6486">Calificación automática</text></g><!--entity UC17--><g class="entity" data-qualified-name="Sistema de Aprendizaje Adaptativo.UC17" data-source-line="31" id="ent0022"><ellipse cx="936.3917" cy="624.9963" fill="#F1F1F1" rx="80.0317" ry="18.4063" style="stroke:#181818;stroke-width:0.5;"/><text fill="#000000" font-family="sans-serif" font-size="14" lengthAdjust="spacing" textLength="130.751" x="871.0162" y="629.6448">Aplicar adaptación</text></g><!--entity UC18--><g class="entity" data-qualified-name="Sistema de Aprendizaje Adaptativo.UC18" data-source-line="32" id="ent0023"><ellipse cx="1368.9371" cy="661.9974" fill="#F1F1F1" rx="72.8871" ry="16.9774" style="stroke:#181818;stroke-width:0.5;"/><text fill="#000000" font-family="sans-serif" font-size="14" lengthAdjust="spacing" textLength="113.5654" x="1312.1544" y="666.6459">Sugerir refuerzo</text></g><!--entity UC19--><g class="entity" data-qualified-name="Sistema de Aprendizaje Adaptativo.UC19" data-source-line="33" id="ent0024"><ellipse cx="1368.9356" cy="589.0011" fill="#F1F1F1" rx="93.9556" ry="21.1911" style="stroke:#181818;stroke-width:0.5;"/><text fill="#000000" font-family="sans-serif" font-size="14" lengthAdjust="spacing" textLength="162.6406" x="1287.6153" y="593.6496">Desbloquear contenido</text></g><!--entity UC20--><g class="entity" data-qualified-name="Sistema de Aprendizaje Adaptativo.UC20" data-source-line="34" id="ent0025"><ellipse cx="936.3861" cy="398.9952" fill="#F1F1F1" rx="72.7261" ry="16.9452" style="stroke:#181818;stroke-width:0.5;"/><text fill="#000000" font-family="sans-serif" font-size="14" lengthAdjust="spacing" textLength="113.1689" x="879.8016" y="403.6437">Generar reporte</text></g><!--entity E--><g class="entity" data-qualified-name="E" data-source-line="4" id="ent0002"><ellipse cx="55.5365" cy="262.35" fill="#F1F1F1" rx="8" ry="8" style="stroke:#181818;stroke-width:0.5;"/><path d="M55.5365,270.35 L55.5365,297.35 M42.5365,278.35 L68.5365,278.35 M55.5365,297.35 L42.5365,312.35 M55.5365,297.35 L68.5365,312.35" fill="none" style="stroke:#181818;stroke-width:0.5;"/><text fill="#000000" font-family="sans-serif" font-size="14" lengthAdjust="spacing" textLength="74.833" x="18.12" y="326.8451">Estudiante</text></g><!--entity D--><g class="entity" data-qualified-name="D" data-source-line="5" id="ent0003"><ellipse cx="55.5359" cy="709.35" fill="#F1F1F1" rx="8" ry="8" style="stroke:#181818;stroke-width:0.5;"/><path d="M55.5359,717.35 L55.5359,744.35 M42.5359,725.35 L68.5359,725.35 M55.5359,744.35 L42.5359,759.35 M55.5359,744.35 L68.5359,759.35" fill="none" style="stroke:#181818;stroke-width:0.5;"/><text fill="#000000" font-family="sans-serif" font-size="14" lengthAdjust="spacing" textLength="58.6318" x="26.22" y="773.8451">Docente</text></g><!--entity A--><g class="entity" data-qualified-name="A" data-source-line="6" id="ent0004"><ellipse cx="55.54" cy="1015.35" fill="#F1F1F1" rx="8" ry="8" style="stroke:#181818;stroke-width:0.5;"/><path d="M55.54,1023.35 L55.54,1050.35 M42.54,1031.35 L68.54,1031.35 M55.54,1050.35 L42.54,1065.35 M55.54,1050.35 L68.54,1065.35" fill="none" style="stroke:#181818;stroke-width:0.5;"/><text fill="#000000" font-family="sans-serif" font-size="14" lengthAdjust="spacing" textLength="99.0801" x="6" y="1079.8451">Administrador</text></g><!--link E to UC1--><g class="link" data-entity-1="ent0002" data-entity-2="ent0006" data-link-type="association" data-source-line="37" id="lnk26"><path d="M62.42,253.64 C71.57,207.51 93.71,131.07 144.08,89 C166.14,70.57 196.83,62.3 223.66,58.76" fill="none" id="E-UC1" style="stroke:#181818;stroke-width:1;"/></g><!--link E to UC2--><g class="link" data-entity-1="ent0002" data-entity-2="ent0007" data-link-type="association" data-source-line="38" id="lnk27"><path d="M71.4,253.61 C85.46,222.37 109.59,179.55 144.08,155 C166.43,139.09 195.47,130.78 221.12,126.46" fill="none" id="E-UC2" style="stroke:#181818;stroke-width:1;"/></g><!--link E to UC4--><g class="link" data-entity-1="ent0002" data-entity-2="ent0009" data-link-type="association" data-source-line="39" id="lnk28"><path d="M93.41,254.67 C108.1,241.67 125.83,228.08 144.08,219 C171.47,205.38 204.82,197.44 231.86,192.87" fill="none" id="E-UC4" style="stroke:#181818;stroke-width:1;"/></g><!--link E to UC5--><g class="link" data-entity-1="ent0002" data-entity-2="ent0010" data-link-type="association" data-source-line="40" id="lnk29"><path d="M93.26,285.97 C126.06,280.59 174.95,272.56 214.74,266.03" fill="none" id="E-UC5" style="stroke:#181818;stroke-width:1;"/></g><!--link E to UC6--><g class="link" data-entity-1="ent0002" data-entity-2="ent0011" data-link-type="association" data-source-line="41" id="lnk30"><path d="M93.26,297.86 C125.94,303.08 174.58,310.85 214.29,317.2" fill="none" id="E-UC6" style="stroke:#181818;stroke-width:1;"/></g><!--link E to UC7--><g class="link" data-entity-1="ent0002" data-entity-2="ent0012" data-link-type="association" data-source-line="42" id="lnk31"><path d="M93.1,328.37 C107.87,341.29 125.76,354.88 144.08,364 C169.64,376.71 200.34,384.68 226.27,389.59" fill="none" id="E-UC7" style="stroke:#181818;stroke-width:1;"/></g><!--link E to UC8--><g class="link" data-entity-1="ent0002" data-entity-2="ent0013" data-link-type="association" data-source-line="43" id="lnk32"><path d="M61.34,330.33 C69.53,379.24 90.83,463.09 144.08,510 C161.81,525.62 185.49,534.59 208.22,539.71" fill="none" id="E-UC8" style="stroke:#181818;stroke-width:1;"/></g><!--link E to UC9--><g class="link" data-entity-1="ent0002" data-entity-2="ent0014" data-link-type="association" data-source-line="44" id="lnk33"><path d="M71.77,330.56 C86,361.75 110.16,404.53 144.08,430 C160.22,442.12 179.95,450.57 199.38,456.47" fill="none" id="E-UC9" style="stroke:#181818;stroke-width:1;"/></g><!--link D to UC10--><g class="link" data-entity-1="ent0003" data-entity-2="ent0015" data-link-type="association" data-source-line="46" id="lnk34"><path d="M85.23,768.86 C101.23,783.88 122.29,801.16 144.08,812 C170.26,825.02 201.89,832.85 228.24,837.5" fill="none" id="D-UC10" style="stroke:#181818;stroke-width:1;"/></g><!--link D to UC11--><g class="link" data-entity-1="ent0003" data-entity-2="ent0016" data-link-type="association" data-source-line="47" id="lnk35"><path d="M85.09,743.56 C116.95,748.65 169.67,757.07 212.53,763.92" fill="none" id="D-UC11" style="stroke:#181818;stroke-width:1;"/></g><!--link D to UC12--><g class="link" data-entity-1="ent0003" data-entity-2="ent0017" data-link-type="association" data-source-line="48" id="lnk36"><path d="M85.09,734.44 C118.85,729.05 176.02,719.92 220.07,712.88" fill="none" id="D-UC12" style="stroke:#181818;stroke-width:1;"/></g><!--link D to UC13--><g class="link" data-entity-1="ent0003" data-entity-2="ent0018" data-link-type="association" data-source-line="49" id="lnk37"><path d="M85.3,710.98 C101.49,696.48 122.69,679.46 144.08,668 C162.64,658.05 183.87,650.01 204,643.68" fill="none" id="D-UC13" style="stroke:#181818;stroke-width:1;"/></g><!--link D to UC14--><g class="link" data-entity-1="ent0003" data-entity-2="ent0019" data-link-type="association" data-source-line="50" id="lnk38"><path d="M62.28,777.27 C71.31,823.73 93.36,901.19 144.08,944 C165.24,961.86 194.42,970.39 220.49,974.35" fill="none" id="D-UC14" style="stroke:#181818;stroke-width:1;"/></g><!--link D to UC8--><g class="link" data-entity-1="ent0003" data-entity-2="ent0013" data-link-type="association" data-source-line="51" id="lnk39"><path d="M68.18,700.52 C81.04,664.58 105.21,612.09 144.08,582 C162.95,567.39 187.19,558.68 210.06,553.49" fill="none" id="D-UC8" style="stroke:#181818;stroke-width:1;"/></g><!--link A to UC15--><g class="link" data-entity-1="ent0004" data-entity-2="ent0020" data-link-type="association" data-source-line="53" id="lnk40"><path d="M105.45,1045 C133.67,1045 169.86,1045 202.11,1045" fill="none" id="A-UC15" style="stroke:#181818;stroke-width:1;"/></g><!--link UC6 to UC16--><g class="link" data-entity-1="ent0011" data-entity-2="ent0021" data-link-type="dependency" data-source-line="56" id="lnk41"><path d="M365.78,327.75 C487.01,327.38 707.7,326.6983 835.51,326.3083" fill="none" id="UC6-to-UC16" style="stroke:#181818;stroke-width:1;"/><polygon fill="#181818" points="841.51,326.29,832.4978,322.3175,836.51,326.3053,832.5222,330.3174,841.51,326.29" style="stroke:#181818;stroke-width:1;"/><text fill="#000000" font-family="sans-serif" font-size="13" lengthAdjust="spacing" textLength="200.2939" x="519.79" y="323.0669">«include»  ' siempre se califica</text></g><!--link UC7 to UC20--><g class="link" data-entity-1="ent0012" data-entity-2="ent0025" data-link-type="dependency" data-source-line="57" id="lnk42"><path d="M347.29,397.19 C469.03,397.57 728.93,398.3613 857.26,398.7613" fill="none" id="UC7-to-UC20" style="stroke:#181818;stroke-width:1;"/><polygon fill="#181818" points="863.26,398.78,854.2725,394.752,858.26,398.7644,854.2476,402.7519,863.26,398.78" style="stroke:#181818;stroke-width:1;"/><text fill="#000000" font-family="sans-serif" font-size="13" lengthAdjust="spacing" textLength="233.6699" x="503.29" y="394.0669">«include»  ' siempre genera reporte</text></g><!--link UC13 to UC17--><g class="link" data-entity-1="ent0018" data-entity-2="ent0022" data-link-type="dependency" data-source-line="58" id="lnk43"><path d="M398.15,625 C529.52,625 735.75,625 850.19,625" fill="none" id="UC13-to-UC17" style="stroke:#181818;stroke-width:1;"/><polygon fill="#181818" points="856.19,625,847.19,621,851.19,625,847.19,629,856.19,625" style="stroke:#181818;stroke-width:1;"/><text fill="#000000" font-family="sans-serif" font-size="13" lengthAdjust="spacing" textLength="382.3511" x="428.79" y="621.0669">«include» ' configuración implica uso del motor adaptativo</text></g><!--link UC17 to UC18--><g class="link" data-entity-1="ent0022" data-entity-2="ent0023" data-link-type="dependency" data-source-line="61" id="lnk44"><path d="M1006.94,634.05 C1024.56,636.17 1043.45,638.31 1060.99,640 C1142.09,647.82 1229.5013,653.7617 1291.7713,657.5917" fill="none" id="UC17-to-UC18" style="stroke:#181818;stroke-width:1;stroke-dasharray:7,7;"/><polygon fill="#181818" points="1297.76,657.96,1289.0225,653.415,1292.7694,657.653,1288.5314,661.3999,1297.76,657.96" style="stroke:#181818;stroke-width:1;"/><text fill="#000000" font-family="sans-serif" font-size="13" lengthAdjust="spacing" textLength="165.4834" x="1070.49" y="636.0669">«extend» ' si falla umbral</text></g><!--link UC17 to UC19--><g class="link" data-entity-1="ent0022" data-entity-2="ent0024" data-link-type="dependency" data-source-line="62" id="lnk45"><path d="M1011.89,618.77 C1086.51,612.53 1195.3109,603.4298 1274.2709,596.8298" fill="none" id="UC17-to-UC19" style="stroke:#181818;stroke-width:1;stroke-dasharray:7,7;"/><polygon fill="#181818" points="1280.25,596.33,1270.9481,593.0936,1275.2674,596.7465,1271.6145,601.0658,1280.25,596.33" style="stroke:#181818;stroke-width:1;"/><text fill="#000000" font-family="sans-serif" font-size="13" lengthAdjust="spacing" textLength="182.3237" x="1061.99" y="596.0669">«extend» ' si supera umbral</text></g><?plantuml-src TLHBRjim4Dth58DiaYuIMFx4JX4OCEoWwAv8aEx7qaXbGv4gFq6ReeVf0Rhg4NAn3YbAifDqzpoVDsyUHvPKEN0QZAY_E2Y5eS89hJBx85IB1XjeiNZ0ckxS3qaGqgXgILc6XTC6RgppfK3b2D32JOhkT44fj4kXJTa89QmpMF8lJcooR623apjEKODG4cnQGweKJ_YLSOcjGoSUzGdyp3A0irkg8uknz2xGt6_p4FweH27GW2Khdl-gb9g6r0UoOILEjcGg8LDk5ka-au726wjj2iyxDbiOiHSy14Xr1Ic_w4IWP846w16bn-9Wv6NFsXfT6nhwbd7S9pIEXRQXLK6bpJ1t5TBtAev4g8rlTJ23ehyzoLKasHf2SoGgdnmlMcXsNubooETZtsl9URHfgrKbQi_EyYlNaZFOcu-zo7pMRuSAvVCVtWNxr3mxrk2jHoE6_V95fvsDgxWhpWVqJZVFlmzfed-RLdB890L7MfSXV-ThCY88hJoPfs7DQEAEx5xgRvxUCkAg4wcesxFLnlLtD9q4XQTmIv97QaNiG3XTiXo-WVFpT6i9JaSu7-5YX9SZN8vmDSBuchj4F3d0-G6U7k3P0PwFU1LuDYc-UBM4K8NqV4fdUYz5ZRoHu0VbAfR8JUleEho7w-jKkLu71YkeuI-HloWeqgF5dcNgcKx-trD7Wtj_Ori-wsSjN_ITXbVgJg-x2j74v-SB2f-0X4Q7Fv3X6lMh3UaxFt89PynJYX13IMb3ddPn4SUkujYkD4wr0YgKakSqUuFoHVdL6-NMjs6jL9_z-WS0?></g></svg>