<svg xmlns="http://www.w3.org/2000/svg" xmlns:xlink="http://www.w3.org/1999/xlink" contentStyleType="text/css" data-diagram-type="ACTIVITY" height="806px" preserveAspectRatio="none" style="width:1023px;height:806px;background:#FFFFFF;" version="1.1" viewBox="0 0 1023 806" width="1023px" zoomAndPan="magnify"><?plantuml 1.2026.3beta5?><defs/><g><rect fill="none" height="20.9531" style="stroke:none;stroke-width:1;" width="976.6206" x="20" y="17.7451"/><ellipse cx="259.7549" cy="53.6982" fill="#222222" rx="10" ry="10" style="stroke:#222222;stroke-width:1;"/><rect fill="#F1F1F1" height="33.9688" rx="12.5" ry="12.5" style="stroke:#181818;stroke-width:0.5;" width="149.2051" x="185.1523" y="83.6982"/><text fill="#000000" font-family="sans-serif" font-size="12" lengthAdjust="spacing" textLength="129.2051" x="195.1523" y="104.8369">Ingresar credenciales</text><rect fill="#F1F1F1" height="33.9688" rx="12.5" ry="12.5" style="stroke:#181818;stroke-width:0.5;" width="116.4336" x="48.3594" y="235.6357"/><text fill="#000000" font-family="sans-serif" font-size="12" lengthAdjust="spacing" textLength="96.4336" x="58.3594" y="256.7744">Acceder a curso</text><rect fill="#F1F1F1" height="33.9688" rx="12.5" ry="12.5" style="stroke:#181818;stroke-width:0.5;" width="135.4883" x="38.832" y="289.6045"/><text fill="#000000" font-family="sans-serif" font-size="12" lengthAdjust="spacing" textLength="115.4883" x="48.832" y="310.7432">Seleccionar lección</text><rect fill="#F1F1F1" height="33.9688" rx="12.5" ry="12.5" style="stroke:#181818;stroke-width:0.5;" width="137.1523" x="38" y="397.542"/><text fill="#000000" font-family="sans-serif" font-size="12" lengthAdjust="spacing" textLength="117.1523" x="48" y="418.6807">Realizar evaluación</text><rect fill="#555555" height="6" rx="2.5" ry="2.5" style="stroke:#555555;stroke-width:1;" width="223.3057" x="26" y="451.5107"/><line style="stroke:#000000;stroke-width:1.5;" x1="20" x2="20" y1="17.7451" y2="785.417"/><rect fill="#F1F1F1" height="33.9688" rx="12.5" ry="12.5" style="stroke:#181818;stroke-width:0.5;" width="141.7227" x="650.2617" y="137.667"/><text fill="#000000" font-family="sans-serif" font-size="12" lengthAdjust="spacing" textLength="121.7227" x="660.2617" y="158.8057">Validar credenciales</text><polygon fill="#F1F1F1" points="658.582,191.6357,783.6641,191.6357,795.6641,203.6357,783.6641,215.6357,658.582,215.6357,646.582,203.6357,658.582,191.6357" style="stroke:#181818;stroke-width:0.5;"/><text fill="#000000" font-family="sans-serif" font-size="11" lengthAdjust="spacing" textLength="125.082" x="658.582" y="207.4438">¿Credenciales válidas?</text><text fill="#000000" font-family="sans-serif" font-size="11" lengthAdjust="spacing" textLength="10.0386" x="636.5435" y="201.0415">Sí</text><text fill="#000000" font-family="sans-serif" font-size="11" lengthAdjust="spacing" textLength="14.9585" x="795.6641" y="201.0415">No</text><rect fill="#F1F1F1" height="33.9688" rx="12.5" ry="12.5" style="stroke:#181818;stroke-width:0.5;" width="129.2188" x="488.5586" y="343.5732"/><text fill="#000000" font-family="sans-serif" font-size="12" lengthAdjust="spacing" textLength="109.2188" x="498.5586" y="364.7119">Mostrar contenido</text><rect fill="#F1F1F1" height="33.9688" rx="12.5" ry="12.5" style="stroke:#181818;stroke-width:0.5;" width="137.668" x="409.6621" y="477.5107"/><text fill="#000000" font-family="sans-serif" font-size="12" lengthAdjust="spacing" textLength="117.668" x="419.6621" y="498.6494">Calificar evaluación</text><rect fill="#F1F1F1" height="33.9688" rx="12.5" ry="12.5" style="stroke:#181818;stroke-width:0.5;" width="121.3438" x="575.3301" y="477.5107"/><text fill="#000000" font-family="sans-serif" font-size="12" lengthAdjust="spacing" textLength="101.3438" x="585.3301" y="498.6494">Registrar intento</text><rect fill="#555555" height="6" rx="2.5" ry="2.5" style="stroke:#555555;stroke-width:1;" width="315.0117" x="395.6621" y="531.4795"/><polygon fill="#F1F1F1" points="524.0835,557.4795,582.2524,557.4795,594.2524,569.4795,582.2524,581.4795,524.0835,581.4795,512.0835,569.4795,524.0835,557.4795" style="stroke:#181818;stroke-width:0.5;"/><text fill="#000000" font-family="sans-serif" font-size="11" lengthAdjust="spacing" textLength="58.1689" x="524.0835" y="573.2876">¿Aprueba?</text><text fill="#000000" font-family="sans-serif" font-size="11" lengthAdjust="spacing" textLength="10.0386" x="502.0449" y="566.8853">Sí</text><text fill="#000000" font-family="sans-serif" font-size="11" lengthAdjust="spacing" textLength="14.9585" x="594.2524" y="566.8853">No</text><rect fill="#F1F1F1" height="33.9688" rx="12.5" ry="12.5" style="stroke:#181818;stroke-width:0.5;" width="201.1016" x="344.3574" y="591.4795"/><text fill="#000000" font-family="sans-serif" font-size="12" lengthAdjust="spacing" textLength="181.1016" x="354.3574" y="612.6182">Desbloquear siguiente lección</text><rect fill="#F1F1F1" height="33.9688" rx="12.5" ry="12.5" style="stroke:#181818;stroke-width:0.5;" width="191.9375" x="565.459" y="591.4795"/><text fill="#000000" font-family="sans-serif" font-size="12" lengthAdjust="spacing" textLength="171.9375" x="575.459" y="612.6182">Asignar material de refuerzo</text><polygon fill="#F1F1F1" points="553.168,631.4482,565.168,643.4482,553.168,655.4482,541.168,643.4482,553.168,631.4482" style="stroke:#181818;stroke-width:0.5;"/><rect fill="#F1F1F1" height="33.9688" rx="12.5" ry="12.5" style="stroke:#181818;stroke-width:0.5;" width="136.959" x="484.6885" y="675.4482"/><text fill="#000000" font-family="sans-serif" font-size="12" lengthAdjust="spacing" textLength="116.959" x="494.6885" y="696.5869">Actualizar progreso</text><rect fill="#F1F1F1" height="33.9688" rx="12.5" ry="12.5" style="stroke:#181818;stroke-width:0.5;" width="203.3633" x="787.3965" y="235.6357"/><text fill="#000000" font-family="sans-serif" font-size="12" lengthAdjust="spacing" textLength="183.3633" x="797.3965" y="256.7744">Mostrar error de autenticación</text><polygon fill="#F1F1F1" points="721.123,719.417,733.123,731.417,721.123,743.417,709.123,731.417,721.123,719.417" style="stroke:#181818;stroke-width:0.5;"/><ellipse cx="721.123" cy="774.417" fill="none" rx="11" ry="11" style="stroke:#222222;stroke-width:1;"/><ellipse cx="721.123" cy="774.417" fill="#222222" rx="6" ry="6" style="stroke:#222222;stroke-width:1;"/><line style="stroke:#000000;stroke-width:1.5;" x1="338.3574" x2="338.3574" y1="17.7451" y2="785.417"/><line style="stroke:#000000;stroke-width:1.5;" x1="994.7598" x2="994.7598" y1="17.7451" y2="785.417"/><line style="stroke:#181818;stroke-width:1;" x1="259.7549" x2="259.7549" y1="63.6982" y2="83.6982"/><polygon fill="#181818" points="255.7549,73.6982,259.7549,83.6982,263.7549,73.6982,259.7549,77.6982" style="stroke:#181818;stroke-width:1;"/><line style="stroke:#181818;stroke-width:1;" x1="106.5762" x2="106.5762" y1="269.6045" y2="289.6045"/><polygon fill="#181818" points="102.5762,279.6045,106.5762,289.6045,110.5762,279.6045,106.5762,283.6045" style="stroke:#181818;stroke-width:1;"/><line style="stroke:#181818;stroke-width:1;" x1="106.5762" x2="106.5762" y1="431.5107" y2="451.5107"/><polygon fill="#181818" points="102.5762,441.5107,106.5762,451.5107,110.5762,441.5107,106.5762,445.5107" style="stroke:#181818;stroke-width:1;"/><line style="stroke:#181818;stroke-width:1;" x1="478.4961" x2="478.4961" y1="511.4795" y2="531.4795"/><polygon fill="#181818" points="474.4961,521.4795,478.4961,531.4795,482.4961,521.4795,478.4961,525.4795" style="stroke:#181818;stroke-width:1;"/><line style="stroke:#181818;stroke-width:1;" x1="636.002" x2="636.002" y1="511.4795" y2="531.4795"/><polygon fill="#181818" points="632.002,521.4795,636.002,531.4795,640.002,521.4795,636.002,525.4795" style="stroke:#181818;stroke-width:1;"/><line style="stroke:#181818;stroke-width:1;" x1="512.0835" x2="444.9082" y1="569.4795" y2="569.4795"/><line style="stroke:#181818;stroke-width:1;" x1="444.9082" x2="444.9082" y1="569.4795" y2="591.4795"/><polygon fill="#181818" points="440.9082,581.4795,444.9082,591.4795,448.9082,581.4795,444.9082,585.4795" style="stroke:#181818;stroke-width:1;"/><line style="stroke:#181818;stroke-width:1;" x1="594.2524" x2="661.4277" y1="569.4795" y2="569.4795"/><line style="stroke:#181818;stroke-width:1;" x1="661.4277" x2="661.4277" y1="569.4795" y2="591.4795"/><polygon fill="#181818" points="657.4277,581.4795,661.4277,591.4795,665.4277,581.4795,661.4277,585.4795" style="stroke:#181818;stroke-width:1;"/><line style="stroke:#181818;stroke-width:1;" x1="444.9082" x2="444.9082" y1="625.4482" y2="643.4482"/><line style="stroke:#181818;stroke-width:1;" x1="444.9082" x2="541.168" y1="643.4482" y2="643.4482"/><polygon fill="#181818" points="531.168,639.4482,541.168,643.4482,531.168,647.4482,535.168,643.4482" style="stroke:#181818;stroke-width:1;"/><line style="stroke:#181818;stroke-width:1;" x1="661.4277" x2="661.4277" y1="625.4482" y2="643.4482"/><line style="stroke:#181818;stroke-width:1;" x1="661.4277" x2="565.168" y1="643.4482" y2="643.4482"/><polygon fill="#181818" points="575.168,639.4482,565.168,643.4482,575.168,647.4482,571.168,643.4482" style="stroke:#181818;stroke-width:1;"/><line style="stroke:#181818;stroke-width:1;" x1="553.168" x2="553.168" y1="537.4795" y2="557.4795"/><polygon fill="#181818" points="549.168,547.4795,553.168,557.4795,557.168,547.4795,553.168,551.4795" style="stroke:#181818;stroke-width:1;"/><line style="stroke:#181818;stroke-width:1;" x1="553.168" x2="553.168" y1="655.4482" y2="675.4482"/><polygon fill="#181818" points="549.168,665.4482,553.168,675.4482,557.168,665.4482,553.168,669.4482" style="stroke:#181818;stroke-width:1;"/><line style="stroke:#181818;stroke-width:1;" x1="795.6641" x2="889.0781" y1="203.6357" y2="203.6357"/><line style="stroke:#181818;stroke-width:1;" x1="889.0781" x2="889.0781" y1="203.6357" y2="235.6357"/><polygon fill="#181818" points="885.0781,225.6357,889.0781,235.6357,893.0781,225.6357,889.0781,229.6357" style="stroke:#181818;stroke-width:1;"/><line style="stroke:#181818;stroke-width:1;" x1="553.168" x2="553.168" y1="709.417" y2="731.417"/><line style="stroke:#181818;stroke-width:1;" x1="553.168" x2="709.123" y1="731.417" y2="731.417"/><polygon fill="#181818" points="699.123,727.417,709.123,731.417,699.123,735.417,703.123,731.417" style="stroke:#181818;stroke-width:1;"/><line style="stroke:#181818;stroke-width:1;" x1="889.0781" x2="889.0781" y1="269.6045" y2="731.417"/><line style="stroke:#181818;stroke-width:1;" x1="889.0781" x2="733.123" y1="731.417" y2="731.417"/><polygon fill="#181818" points="743.123,727.417,733.123,731.417,743.123,735.417,739.123,731.417" style="stroke:#181818;stroke-width:1;"/><line style="stroke:#181818;stroke-width:1;" x1="721.123" x2="721.123" y1="171.6357" y2="191.6357"/><polygon fill="#181818" points="717.123,181.6357,721.123,191.6357,725.123,181.6357,721.123,185.6357" style="stroke:#181818;stroke-width:1;"/><line style="stroke:#181818;stroke-width:1;" x1="721.123" x2="721.123" y1="743.417" y2="763.417"/><polygon fill="#181818" points="717.123,753.417,721.123,763.417,725.123,753.417,721.123,757.417" style="stroke:#181818;stroke-width:1;"/><line style="stroke:#181818;stroke-width:1;" x1="259.7549" x2="259.7549" y1="117.667" y2="122.667"/><line style="stroke:#181818;stroke-width:1;" x1="259.7549" x2="721.123" y1="122.667" y2="122.667"/><line style="stroke:#181818;stroke-width:1;" x1="721.123" x2="721.123" y1="122.667" y2="137.667"/><polygon fill="#181818" points="717.123,127.667,721.123,137.667,725.123,127.667,721.123,131.667" style="stroke:#181818;stroke-width:1;"/><line style="stroke:#181818;stroke-width:1;" x1="106.5762" x2="106.5762" y1="323.5732" y2="328.5732"/><line style="stroke:#181818;stroke-width:1;" x1="106.5762" x2="553.168" y1="328.5732" y2="328.5732"/><line style="stroke:#181818;stroke-width:1;" x1="553.168" x2="553.168" y1="328.5732" y2="343.5732"/><polygon fill="#181818" points="549.168,333.5732,553.168,343.5732,557.168,333.5732,553.168,337.5732" style="stroke:#181818;stroke-width:1;"/><line style="stroke:#181818;stroke-width:1;" x1="553.168" x2="553.168" y1="377.542" y2="382.542"/><line style="stroke:#181818;stroke-width:1;" x1="553.168" x2="106.5762" y1="382.542" y2="382.542"/><line style="stroke:#181818;stroke-width:1;" x1="106.5762" x2="106.5762" y1="382.542" y2="397.542"/><polygon fill="#181818" points="102.5762,387.542,106.5762,397.542,110.5762,387.542,106.5762,391.542" style="stroke:#181818;stroke-width:1;"/><line style="stroke:#181818;stroke-width:1;" x1="33" x2="33" y1="457.5107" y2="461.5107"/><line style="stroke:#181818;stroke-width:1;" x1="33" x2="478.4961" y1="461.5107" y2="461.5107"/><line style="stroke:#181818;stroke-width:1;" x1="478.4961" x2="478.4961" y1="461.5107" y2="477.5107"/><polygon fill="#181818" points="474.4961,467.5107,478.4961,477.5107,482.4961,467.5107,478.4961,471.5107" style="stroke:#181818;stroke-width:1;"/><line style="stroke:#181818;stroke-width:1;" x1="180.1523" x2="180.1523" y1="457.5107" y2="461.5107"/><line style="stroke:#181818;stroke-width:1;" x1="180.1523" x2="636.002" y1="461.5107" y2="461.5107"/><line style="stroke:#181818;stroke-width:1;" x1="636.002" x2="636.002" y1="461.5107" y2="477.5107"/><polygon fill="#181818" points="632.002,467.5107,636.002,477.5107,640.002,467.5107,636.002,471.5107" style="stroke:#181818;stroke-width:1;"/><line style="stroke:#181818;stroke-width:1;" x1="646.582" x2="106.5762" y1="203.6357" y2="203.6357"/><line style="stroke:#181818;stroke-width:1;" x1="106.5762" x2="106.5762" y1="203.6357" y2="235.6357"/><polygon fill="#181818" points="102.5762,225.6357,106.5762,235.6357,110.5762,225.6357,106.5762,229.6357" style="stroke:#181818;stroke-width:1;"/><text fill="#000000" font-family="sans-serif" font-size="18" lengthAdjust="spacing" textLength="96.2139" x="131.0718" y="34.4531">Estudiante</text><text fill="#000000" font-family="sans-serif" font-size="18" lengthAdjust="spacing" textLength="72.501" x="630.3081" y="34.4531">Sistema</text><?plantuml-src RP4nKiCm44LxdMBBv0fnmNW21GKKoGpzHbwR7HmfMKafChuC1w3Y0CpWYx6oJN20IXhD_s__VdLt8QQAqKNgJ8WeqQpkNICKKC0ALUGiOqkXCARRSeYqnywidh3bwg-2QrXyVgndZt3gNxCqt2mXFfE3nRP_Mne3qCqd0wnAQzKcW62J15_ajosrP2rxfwE6M__kYi5yYQAg1n-Yv31UMOuhN_p7tv1cFgkCJjWc_67LNbxqk8QgOQtwckrlnsW0R93TADnGmsC2pW7Ya9rSDPBrFjPI7YJH3g-B602t57QjFoPIHE0ciK9ejh3Isa2mUFIJeLHLxcIFaKHxXef0g4uav-_XN9knrPYclG_Yyx_cTkQuItqauYMJCEKjTFDf_4GBqH--0000?></g></svg>