<svg xmlns="http://www.w3.org/2000/svg" xmlns:xlink="http://www.w3.org/1999/xlink" contentStyleType="text/css" data-diagram-type="SEQUENCE" height="872px" preserveAspectRatio="none" style="width:1360px;height:872px;background:#FAFAFA;" version="1.1" viewBox="0 0 1360 872" width="1360px" zoomAndPan="magnify"><?plantuml 1.2026.3beta5?><defs/><g><rect fill="#FAFAFA" height="872" style="stroke:none;stroke-width:1;" width="1360" x="0" y="0"/><g class="title" data-source-line="1"><text fill="#000000" font-family="sans-serif" font-size="14" font-weight="700" lengthAdjust="spacing" textLength="254.7002" x="549.1633" y="27.9951">SC-01: Autenticacion de Usuario</text></g><g><title>User Service</title><rect fill="#FFFFFF" height="510.7344" style="stroke:#181818;stroke-width:1;" width="10" x="740.8369" y="267.5547"/></g><rect fill="none" height="380.2031" style="stroke:#000000;stroke-width:1.5;" width="1334.0269" x="10" y="391.0859"/><g class="participant-lifeline" data-entity-uid="part1" data-qualified-name="USR" data-source-line="6" id="part1-lifeline"><g><title>Usuario</title><rect fill="#000000" fill-opacity="0.00000" height="667.3984" width="8" x="45.6021" y="120.8906"/><line style="stroke:#181818;stroke-width:0.5;stroke-dasharray:5,5;" x1="49" x2="49" y1="120.8906" y2="788.2891"/></g></g><g class="participant-lifeline" data-entity-uid="part2" data-qualified-name="WC" data-source-line="7" id="part2-lifeline"><g><title>Web Client</title><rect fill="#000000" fill-opacity="0.00000" height="667.3984" width="8" x="273.6094" y="120.8906"/><line style="stroke:#181818;stroke-width:0.5;stroke-dasharray:5,5;" x1="277.416" x2="277.416" y1="120.8906" y2="788.2891"/></g></g><g class="participant-lifeline" data-entity-uid="part3" data-qualified-name="GW" data-source-line="8" id="part3-lifeline"><g><title>API Gateway</title><rect fill="#000000" fill-opacity="0.00000" height="667.3984" width="8" x="482.7324" y="120.8906"/><line style="stroke:#181818;stroke-width:0.5;stroke-dasharray:5,5;" x1="486.5107" x2="486.5107" y1="120.8906" y2="788.2891"/></g></g><g class="participant-lifeline" data-entity-uid="part4" data-qualified-name="US" data-source-line="9" id="part4-lifeline"><g><title>User Service</title><rect fill="#000000" fill-opacity="0.00000" height="667.3984" width="8" x="741.8369" y="120.8906"/><line style="stroke:#181818;stroke-width:0.5;stroke-dasharray:5,5;" x1="745.7861" x2="745.7861" y1="120.8906" y2="788.2891"/></g></g><g class="participant-lifeline" data-entity-uid="part5" data-qualified-name="PG" data-source-line="10" id="part5-lifeline"><g><title>PostgreSQL</title><rect fill="#000000" fill-opacity="0.00000" height="667.3984" width="8" x="1163.4902" y="120.8906"/><line style="stroke:#181818;stroke-width:0.5;stroke-dasharray:5,5;" x1="1166.728" x2="1166.728" y1="120.8906" y2="788.2891"/></g></g><g class="participant-lifeline" data-entity-uid="part6" data-qualified-name="RD" data-source-line="11" id="part6-lifeline"><g><title>Cache</title><rect fill="#000000" fill-opacity="0.00000" height="667.3984" width="8" x="1278.1396" y="120.8906"/><line style="stroke:#181818;stroke-width:0.5;stroke-dasharray:5,5;" x1="1281.2524" x2="1281.2524" y1="120.8906" y2="788.2891"/></g></g><g class="participant participant-head" data-entity-uid="part1" data-qualified-name="USR" data-source-line="6" id="part1-head"><text fill="#000000" font-family="sans-serif" font-size="14" lengthAdjust="spacing" textLength="53.2041" x="20" y="117.5889">Usuario</text><ellipse cx="49.6021" cy="53.0938" fill="#E2E2F0" rx="8" ry="8" style="stroke:#181818;stroke-width:0.5;"/><path d="M49.6021,61.0938 L49.6021,88.0938 M36.6021,69.0938 L62.6021,69.0938 M49.6021,88.0938 L36.6021,103.0938 M49.6021,88.0938 L62.6021,103.0938" fill="none" style="stroke:#181818;stroke-width:0.5;"/></g><g class="participant participant-tail" data-entity-uid="part1" data-qualified-name="USR" data-source-line="6" id="part1-tail"><text fill="#000000" font-family="sans-serif" font-size="14" lengthAdjust="spacing" textLength="53.2041" x="20" y="800.2842">Usuario</text><ellipse cx="49.6021" cy="812.0859" fill="#E2E2F0" rx="8" ry="8" style="stroke:#181818;stroke-width:0.5;"/><path d="M49.6021,820.0859 L49.6021,847.0859 M36.6021,828.0859 L62.6021,828.0859 M49.6021,847.0859 L36.6021,862.0859 M49.6021,847.0859 L62.6021,862.0859" fill="none" style="stroke:#181818;stroke-width:0.5;"/></g><g class="participant participant-head" data-entity-uid="part2" data-qualified-name="WC" data-source-line="7" id="part2-head"><rect fill="#E2E2F0" height="46.5938" rx="2.5" ry="2.5" style="stroke:#181818;stroke-width:0.5;" width="96.3867" x="229.416" y="73.2969"/><text fill="#000000" font-family="sans-serif" font-size="14" lengthAdjust="spacing" textLength="76.3232" x="239.4478" y="93.292">Web Client</text><text fill="#000000" font-family="sans-serif" font-size="14" lengthAdjust="spacing" textLength="82.3867" x="236.416" y="109.5889">(React SPA)</text></g><g class="participant participant-tail" data-entity-uid="part2" data-qualified-name="WC" data-source-line="7" id="part2-tail"><rect fill="#E2E2F0" height="46.5938" rx="2.5" ry="2.5" style="stroke:#181818;stroke-width:0.5;" width="96.3867" x="229.416" y="787.2891"/><text fill="#000000" font-family="sans-serif" font-size="14" lengthAdjust="spacing" textLength="76.3232" x="239.4478" y="807.2842">Web Client</text><text fill="#000000" font-family="sans-serif" font-size="14" lengthAdjust="spacing" textLength="82.3867" x="236.416" y="823.5811">(React SPA)</text></g><g class="participant participant-head" data-entity-uid="part3" data-qualified-name="GW" data-source-line="8" id="part3-head"><rect fill="#E2E2F0" height="46.5938" rx="2.5" ry="2.5" style="stroke:#181818;stroke-width:0.5;" width="102.4434" x="435.5107" y="73.2969"/><text fill="#000000" font-family="sans-serif" font-size="14" lengthAdjust="spacing" textLength="88.4434" x="442.5107" y="93.292">API Gateway</text><text fill="#000000" font-family="sans-serif" font-size="14" lengthAdjust="spacing" textLength="46.4297" x="463.5176" y="109.5889">(Kong)</text></g><g class="participant participant-tail" data-entity-uid="part3" data-qualified-name="GW" data-source-line="8" id="part3-tail"><rect fill="#E2E2F0" height="46.5938" rx="2.5" ry="2.5" style="stroke:#181818;stroke-width:0.5;" width="102.4434" x="435.5107" y="787.2891"/><text fill="#000000" font-family="sans-serif" font-size="14" lengthAdjust="spacing" textLength="88.4434" x="442.5107" y="807.2842">API Gateway</text><text fill="#000000" font-family="sans-serif" font-size="14" lengthAdjust="spacing" textLength="46.4297" x="463.5176" y="823.5811">(Kong)</text></g><g class="participant participant-head" data-entity-uid="part4" data-qualified-name="US" data-source-line="9" id="part4-head"><rect fill="#E2E2F0" height="30.2969" rx="2.5" ry="2.5" style="stroke:#181818;stroke-width:0.5;" width="102.1016" x="694.7861" y="89.5938"/><text fill="#000000" font-family="sans-serif" font-size="14" lengthAdjust="spacing" textLength="88.1016" x="701.7861" y="109.5889">User Service</text></g><g class="participant participant-tail" data-entity-uid="part4" data-qualified-name="US" data-source-line="9" id="part4-tail"><rect fill="#E2E2F0" height="30.2969" rx="2.5" ry="2.5" style="stroke:#181818;stroke-width:0.5;" width="102.1016" x="694.7861" y="787.2891"/><text fill="#000000" font-family="sans-serif" font-size="14" lengthAdjust="spacing" textLength="88.1016" x="701.7861" y="807.2842">User Service</text></g><g class="participant participant-head" data-entity-uid="part5" data-qualified-name="PG" data-source-line="10" id="part5-head"><text fill="#000000" font-family="sans-serif" font-size="14" lengthAdjust="spacing" textLength="80.7529" x="1124.1138" y="101.292">PostgreSQL</text><text fill="#000000" font-family="sans-serif" font-size="14" lengthAdjust="spacing" textLength="99.5244" x="1114.728" y="117.5889">schema_users</text><path d="M1149.4902,52.2969 C1149.4902,42.2969 1167.4902,42.2969 1167.4902,42.2969 C1167.4902,42.2969 1185.4902,42.2969 1185.4902,52.2969 L1185.4902,78.2969 C1185.4902,88.2969 1167.4902,88.2969 1167.4902,88.2969 C1167.4902,88.2969 1149.4902,88.2969 1149.4902,78.2969 L1149.4902,52.2969" fill="#E2E2F0" style="stroke:#181818;stroke-width:0.5;"/><path d="M1149.4902,52.2969 C1149.4902,62.2969 1167.4902,62.2969 1167.4902,62.2969 C1167.4902,62.2969 1185.4902,62.2969 1185.4902,52.2969" fill="none" style="stroke:#181818;stroke-width:0.5;"/></g><g class="participant participant-tail" data-entity-uid="part5" data-qualified-name="PG" data-source-line="10" id="part5-tail"><text fill="#000000" font-family="sans-serif" font-size="14" lengthAdjust="spacing" textLength="80.7529" x="1124.1138" y="800.2842">PostgreSQL</text><text fill="#000000" font-family="sans-serif" font-size="14" lengthAdjust="spacing" textLength="99.5244" x="1114.728" y="816.5811">schema_users</text><path d="M1149.4902,829.8828 C1149.4902,819.8828 1167.4902,819.8828 1167.4902,819.8828 C1167.4902,819.8828 1185.4902,819.8828 1185.4902,829.8828 L1185.4902,855.8828 C1185.4902,865.8828 1167.4902,865.8828 1167.4902,865.8828 C1167.4902,865.8828 1149.4902,865.8828 1149.4902,855.8828 L1149.4902,829.8828" fill="#E2E2F0" style="stroke:#181818;stroke-width:0.5;"/><path d="M1149.4902,829.8828 C1149.4902,839.8828 1167.4902,839.8828 1167.4902,839.8828 C1167.4902,839.8828 1185.4902,839.8828 1185.4902,829.8828" fill="none" style="stroke:#181818;stroke-width:0.5;"/></g><g class="participant participant-head" data-entity-uid="part6" data-qualified-name="RD" data-source-line="11" id="part6-head"><text fill="#000000" font-family="sans-serif" font-size="14" lengthAdjust="spacing" textLength="43.5381" x="1257.3706" y="101.292">Cache</text><text fill="#000000" font-family="sans-serif" font-size="14" lengthAdjust="spacing" textLength="97.7744" x="1230.2524" y="117.5889">(Cache-Aside)</text><path d="M1264.1396,52.2969 C1264.1396,42.2969 1282.1396,42.2969 1282.1396,42.2969 C1282.1396,42.2969 1300.1396,42.2969 1300.1396,52.2969 L1300.1396,78.2969 C1300.1396,88.2969 1282.1396,88.2969 1282.1396,88.2969 C1282.1396,88.2969 1264.1396,88.2969 1264.1396,78.2969 L1264.1396,52.2969" fill="#E2E2F0" style="stroke:#181818;stroke-width:0.5;"/><path d="M1264.1396,52.2969 C1264.1396,62.2969 1282.1396,62.2969 1282.1396,62.2969 C1282.1396,62.2969 1300.1396,62.2969 1300.1396,52.2969" fill="none" style="stroke:#181818;stroke-width:0.5;"/></g><g class="participant participant-tail" data-entity-uid="part6" data-qualified-name="RD" data-source-line="11" id="part6-tail"><text fill="#000000" font-family="sans-serif" font-size="14" lengthAdjust="spacing" textLength="43.5381" x="1257.3706" y="800.2842">Cache</text><text fill="#000000" font-family="sans-serif" font-size="14" lengthAdjust="spacing" textLength="97.7744" x="1230.2524" y="816.5811">(Cache-Aside)</text><path d="M1264.1396,829.8828 C1264.1396,819.8828 1282.1396,819.8828 1282.1396,819.8828 C1282.1396,819.8828 1300.1396,819.8828 1300.1396,829.8828 L1300.1396,855.8828 C1300.1396,865.8828 1282.1396,865.8828 1282.1396,865.8828 C1282.1396,865.8828 1264.1396,865.8828 1264.1396,855.8828 L1264.1396,829.8828" fill="#E2E2F0" style="stroke:#181818;stroke-width:0.5;"/><path d="M1264.1396,829.8828 C1264.1396,839.8828 1282.1396,839.8828 1282.1396,839.8828 C1282.1396,839.8828 1300.1396,839.8828 1300.1396,829.8828" fill="none" style="stroke:#181818;stroke-width:0.5;"/></g><g><title>User Service</title><rect fill="#FFFFFF" height="510.7344" style="stroke:#181818;stroke-width:1;" width="10" x="740.8369" y="267.5547"/></g><g class="message" data-entity-1="part1" data-entity-2="part2" data-source-line="13" id="msg1"><polygon fill="#181818" points="265.6094,148.0234,275.6094,152.0234,265.6094,156.0234,269.6094,152.0234" style="stroke:#181818;stroke-width:1;"/><line style="stroke:#181818;stroke-width:2;" x1="49.6021" x2="271.6094" y1="152.0234" y2="152.0234"/><text fill="#000000" font-family="sans-serif" font-size="13" lengthAdjust="spacing" textLength="186.1641" x="56.6021" y="146.9575">Ingresa correo + contrase&#241;a</text></g><g class="message" data-entity-1="part2" data-entity-2="part3" data-source-line="14" id="msg2"><polygon fill="#181818" points="474.7324,192.2891,484.7324,196.2891,474.7324,200.2891,478.7324,196.2891" style="stroke:#181818;stroke-width:1;"/><line style="stroke:#181818;stroke-width:2;" x1="277.6094" x2="480.7324" y1="196.2891" y2="196.2891"/><text fill="#000000" font-family="sans-serif" font-size="13" lengthAdjust="spacing" textLength="152.9214" x="284.6094" y="176.0903">POST /api/v1/auth/login</text><text fill="#000000" font-family="sans-serif" font-size="13" lengthAdjust="spacing" textLength="185.123" x="284.6094" y="191.2231">{email, password} [TLS 1.3]</text></g><g class="message" data-entity-1="part3" data-entity-2="part3" data-source-line="15" id="msg3"><line style="stroke:#181818;stroke-width:2;" x1="486.7324" x2="528.7324" y1="225.4219" y2="225.4219"/><line style="stroke:#181818;stroke-width:2;" x1="528.7324" x2="528.7324" y1="225.4219" y2="238.4219"/><line style="stroke:#181818;stroke-width:2;" x1="487.7324" x2="528.7324" y1="238.4219" y2="238.4219"/><polygon fill="#181818" points="497.7324,234.4219,487.7324,238.4219,497.7324,242.4219,493.7324,238.4219" style="stroke:#181818;stroke-width:1;"/><text fill="#000000" font-family="sans-serif" font-size="13" lengthAdjust="spacing" textLength="122.8525" x="493.7324" y="220.356">Aplica rate limiting</text></g><g class="message" data-entity-1="part3" data-entity-2="part4" data-source-line="17" id="msg4"><polygon fill="#181818" points="728.8369,263.5547,738.8369,267.5547,728.8369,271.5547,732.8369,267.5547" style="stroke:#181818;stroke-width:1;"/><line style="stroke:#181818;stroke-width:2;" x1="486.7324" x2="734.8369" y1="267.5547" y2="267.5547"/><text fill="#000000" font-family="sans-serif" font-size="13" lengthAdjust="spacing" textLength="235.1045" x="493.7324" y="262.4888">POST /auth/login {email, password}</text></g><g class="message" data-entity-1="part4" data-entity-2="part5" data-source-line="20" id="msg5"><polygon fill="#181818" points="1155.4902,292.6875,1165.4902,296.6875,1155.4902,300.6875,1159.4902,296.6875" style="stroke:#181818;stroke-width:1;"/><line style="stroke:#181818;stroke-width:2;" x1="750.8369" x2="1161.4902" y1="296.6875" y2="296.6875"/><text fill="#000000" font-family="sans-serif" font-size="13" lengthAdjust="spacing" textLength="392.6533" x="757.8369" y="291.6216">SELECT * FROM users WHERE email=? AND status='ACTIVE'</text></g><g class="message" data-entity-1="part5" data-entity-2="part4" data-source-line="21" id="msg6"><polygon fill="#181818" points="761.8369,321.8203,751.8369,325.8203,761.8369,329.8203,757.8369,325.8203" style="stroke:#181818;stroke-width:1;"/><line style="stroke:#181818;stroke-width:2;stroke-dasharray:2,2;" x1="755.8369" x2="1166.4902" y1="325.8203" y2="325.8203"/><text fill="#000000" font-family="sans-serif" font-size="13" lengthAdjust="spacing" textLength="193.1211" x="767.8369" y="320.7544">{userId, role, passwordHash}</text></g><path d="M610,338.8203 L610,378.8203 L879,378.8203 L879,348.8203 L869,338.8203 L610,338.8203" fill="#FEFFDD" style="stroke:#181818;stroke-width:0.5;"/><path d="M869,338.8203 L869,348.8203 L879,348.8203 L869,338.8203" fill="#FEFFDD" style="stroke:#181818;stroke-width:0.5;"/><text fill="#000000" font-family="sans-serif" font-size="13" lengthAdjust="spacing" textLength="232.0894" x="616" y="355.8872">bcrypt.compare() en worker_thread</text><text fill="#000000" font-family="sans-serif" font-size="13" lengthAdjust="spacing" textLength="248.7139" x="616" y="371.02">(~100-300ms, no bloquea event loop)</text><path d="M10,391.0859 L74.4429,391.0859 L74.4429,398.2188 L64.4429,408.2188 L10,408.2188 L10,391.0859" fill="#EEEEEE" style="stroke:#000000;stroke-width:1.5;"/><rect fill="none" height="380.2031" style="stroke:#000000;stroke-width:1.5;" width="1334.0269" x="10" y="391.0859"/><text fill="#000000" font-family="sans-serif" font-size="13" font-weight="700" lengthAdjust="spacing" textLength="19.4429" x="25" y="404.1528">alt</text><text fill="#000000" font-family="sans-serif" font-size="11" font-weight="700" lengthAdjust="spacing" textLength="137.4785" x="89.4429" y="403.2964">[Credenciales validas]</text><g class="message" data-entity-1="part4" data-entity-2="part6" data-source-line="26" id="msg7"><polygon fill="#181818" points="1270.1396,425.3516,1280.1396,429.3516,1270.1396,433.3516,1274.1396,429.3516" style="stroke:#181818;stroke-width:1;"/><line style="stroke:#181818;stroke-width:2;" x1="750.8369" x2="1276.1396" y1="429.3516" y2="429.3516"/><text fill="#000000" font-family="sans-serif" font-size="13" lengthAdjust="spacing" textLength="192.6831" x="757.8369" y="424.2856">SET session:{userId} TTL=8h</text></g><g class="message" data-entity-1="part4" data-entity-2="part4" data-source-line="27" id="msg8"><line style="stroke:#181818;stroke-width:2;" x1="750.8369" x2="792.8369" y1="458.4844" y2="458.4844"/><line style="stroke:#181818;stroke-width:2;" x1="792.8369" x2="792.8369" y1="458.4844" y2="471.4844"/><line style="stroke:#181818;stroke-width:2;" x1="751.8369" x2="792.8369" y1="471.4844" y2="471.4844"/><polygon fill="#181818" points="761.8369,467.4844,751.8369,471.4844,761.8369,475.4844,757.8369,471.4844" style="stroke:#181818;stroke-width:1;"/><text fill="#000000" font-family="sans-serif" font-size="13" lengthAdjust="spacing" textLength="232.1909" x="757.8369" y="453.4185">jwt.sign({userId, role}, RS256_KEY)</text></g><g class="message" data-entity-1="part4" data-entity-2="part3" data-source-line="28" id="msg9"><polygon fill="#181818" points="497.7324,496.6172,487.7324,500.6172,497.7324,504.6172,493.7324,500.6172" style="stroke:#181818;stroke-width:1;"/><line style="stroke:#181818;stroke-width:2;stroke-dasharray:2,2;" x1="491.7324" x2="739.8369" y1="500.6172" y2="500.6172"/><text fill="#000000" font-family="sans-serif" font-size="13" lengthAdjust="spacing" textLength="153.1055" x="503.7324" y="495.5513">HTTP 200 {token, role}</text></g><g class="message" data-entity-1="part3" data-entity-2="part2" data-source-line="29" id="msg10"><polygon fill="#181818" points="288.6094,525.75,278.6094,529.75,288.6094,533.75,284.6094,529.75" style="stroke:#181818;stroke-width:1;"/><line style="stroke:#181818;stroke-width:2;stroke-dasharray:2,2;" x1="282.6094" x2="485.7324" y1="529.75" y2="529.75"/><text fill="#000000" font-family="sans-serif" font-size="13" lengthAdjust="spacing" textLength="153.1055" x="294.6094" y="524.6841">HTTP 200 {token, role}</text></g><g class="message" data-entity-1="part2" data-entity-2="part1" data-source-line="30" id="msg11"><polygon fill="#181818" points="60.6021,554.8828,50.6021,558.8828,60.6021,562.8828,56.6021,558.8828" style="stroke:#181818;stroke-width:1;"/><line style="stroke:#181818;stroke-width:2;stroke-dasharray:2,2;" x1="54.6021" x2="276.6094" y1="558.8828" y2="558.8828"/><text fill="#000000" font-family="sans-serif" font-size="13" lengthAdjust="spacing" textLength="204.0073" x="66.6021" y="553.8169">Redirige a dashboard segun rol</text></g><line style="stroke:#000000;stroke-width:1;stroke-dasharray:2,2;" x1="10" x2="1344.0269" y1="567.8828" y2="567.8828"/><text fill="#000000" font-family="sans-serif" font-size="11" font-weight="700" lengthAdjust="spacing" textLength="149.0801" x="15" y="578.0933">[Credenciales invalidas]</text><g class="message" data-entity-1="part4" data-entity-2="part3" data-source-line="33" id="msg12"><polygon fill="#181818" points="497.7324,598.8203,487.7324,602.8203,497.7324,606.8203,493.7324,602.8203" style="stroke:#181818;stroke-width:1;"/><line style="stroke:#181818;stroke-width:2;stroke-dasharray:2,2;" x1="491.7324" x2="739.8369" y1="602.8203" y2="602.8203"/><text fill="#000000" font-family="sans-serif" font-size="13" lengthAdjust="spacing" textLength="62.4419" x="503.7324" y="597.7544">HTTP 401</text></g><g class="message" data-entity-1="part3" data-entity-2="part2" data-source-line="34" id="msg13"><polygon fill="#181818" points="288.6094,627.9531,278.6094,631.9531,288.6094,635.9531,284.6094,631.9531" style="stroke:#181818;stroke-width:1;"/><line style="stroke:#181818;stroke-width:2;stroke-dasharray:2,2;" x1="282.6094" x2="485.7324" y1="631.9531" y2="631.9531"/><text fill="#000000" font-family="sans-serif" font-size="13" lengthAdjust="spacing" textLength="62.4419" x="294.6094" y="626.8872">HTTP 401</text></g><g class="message" data-entity-1="part2" data-entity-2="part1" data-source-line="35" id="msg14"><polygon fill="#181818" points="60.6021,657.0859,50.6021,661.0859,60.6021,665.0859,56.6021,661.0859" style="stroke:#181818;stroke-width:1;"/><line style="stroke:#181818;stroke-width:2;stroke-dasharray:2,2;" x1="54.6021" x2="276.6094" y1="661.0859" y2="661.0859"/><text fill="#000000" font-family="sans-serif" font-size="13" lengthAdjust="spacing" textLength="157.8345" x="66.6021" y="656.02">"Credenciales invalidas"</text></g><line style="stroke:#000000;stroke-width:1;stroke-dasharray:2,2;" x1="10" x2="1344.0269" y1="670.0859" y2="670.0859"/><text fill="#000000" font-family="sans-serif" font-size="11" font-weight="700" lengthAdjust="spacing" textLength="132.5049" x="15" y="680.2964">[Cuenta desactivada]</text><g class="message" data-entity-1="part4" data-entity-2="part3" data-source-line="38" id="msg15"><polygon fill="#181818" points="497.7324,701.0234,487.7324,705.0234,497.7324,709.0234,493.7324,705.0234" style="stroke:#181818;stroke-width:1;"/><line style="stroke:#181818;stroke-width:2;stroke-dasharray:2,2;" x1="491.7324" x2="739.8369" y1="705.0234" y2="705.0234"/><text fill="#000000" font-family="sans-serif" font-size="13" lengthAdjust="spacing" textLength="62.4419" x="503.7324" y="699.9575">HTTP 403</text></g><g class="message" data-entity-1="part3" data-entity-2="part2" data-source-line="39" id="msg16"><polygon fill="#181818" points="288.6094,730.1563,278.6094,734.1563,288.6094,738.1563,284.6094,734.1563" style="stroke:#181818;stroke-width:1;"/><line style="stroke:#181818;stroke-width:2;stroke-dasharray:2,2;" x1="282.6094" x2="485.7324" y1="734.1563" y2="734.1563"/><text fill="#000000" font-family="sans-serif" font-size="13" lengthAdjust="spacing" textLength="62.4419" x="294.6094" y="729.0903">HTTP 403</text></g><g class="message" data-entity-1="part2" data-entity-2="part1" data-source-line="40" id="msg17"><polygon fill="#181818" points="60.6021,759.2891,50.6021,763.2891,60.6021,767.2891,56.6021,763.2891" style="stroke:#181818;stroke-width:1;"/><line style="stroke:#181818;stroke-width:2;stroke-dasharray:2,2;" x1="54.6021" x2="276.6094" y1="763.2891" y2="763.2891"/><text fill="#000000" font-family="sans-serif" font-size="13" lengthAdjust="spacing" textLength="141.4321" x="66.6021" y="758.2231">"Cuenta desactivada"</text></g><?plantuml-src TPJHRjf044NVzoj6z26XXM12MrMHqifoA46X3RLDKTLKqM2Fp1QpItVNe2YY_zHlw8zrR2092XKFnlQvSsTshkoaomcYeEcrpy0l72ad4qoaLf0IZ6o1HceXx4og1HgSWwLV1Qc4V6FqAfxAPAR8MZXzWammcML65oeDTAuDlFZebpyXC75yMzjMhG5Q64MXO1MRoWKg1xKnJI389VTneuv3OWb4GxzUmUDWd_M7VUYXenNUCNobLRRXUkDzRcJ9G4HcAHFQkeeK7KxG4jI6shhCKFHbSADiCgKvtXOii1Kvx3qX0-JNx5HTcxwLAMqCmmiXU19elkSUuGpwYWjQX4GRGnfUyH_b3DVu-mS54yprnimDhwCOMhYGhMMxXOMRjdATINMZxhaBcJTWWTQkj4dNy3qUHD0-wVmGhDpf_KNEsmB3Pm2vd4idLIQsm2XwD7Ye3CyAbqkHox807meFKKg7FPP6tK4tYE4bV0olFq5r8Z2-x8PTg4gSVm3_ymLOXwwmvqT-4FU_Tey4Ivixy_jIr4yRO7HEZvQNQATh8PHcJxtapLJm935t2tUIw3clZexhG0gOdf6vTLD3cFAv_svxNhFZUNFR0ALXaclE8W8jEIsGQxseSyPo1u6Xb3CgCISBIynbYbO0R8OBBwhXOawojPppissRQuZZmVcxwGDOjVLpvKwipDJntZ3h1eJHwPktjrVTR_MjOBUJopWUmgddmRtJCr9R0KFbMdO1-IzKXgFo3faAAPL6PWG8FC5qej6at7PMg98NWd9EvTwmKksFkzVKQwzzg8tDuptZsk6YjPqbVm4SzyGHhyAJuc6xpc6xpdExPmLhWbGgH4fFulaF?></g></svg>