<svg xmlns="http://www.w3.org/2000/svg" xmlns:xlink="http://www.w3.org/1999/xlink" contentStyleType="text/css" data-diagram-type="SEQUENCE" height="1268px" preserveAspectRatio="none" style="width:1702px;height:1268px;background:#FAFAFA;" version="1.1" viewBox="0 0 1702 1268" width="1702px" zoomAndPan="magnify"><?plantuml 1.2026.3beta5?><defs/><g><rect fill="#FAFAFA" height="1268" style="stroke:none;stroke-width:1;" width="1702" x="0" y="0"/><g class="title" data-source-line="1"><text fill="#000000" font-family="sans-serif" font-size="14" font-weight="700" lengthAdjust="spacing" textLength="529.5596" x="583.1697" y="27.9951">SC-02: Envio de Evaluacion y Motor Adaptativo (Publish/Subscribe)</text></g><g><title>Assessment .</title><rect fill="#FFFFFF" height="611.2656" style="stroke:#181818;stroke-width:1;" width="10" x="848.8887" y="283.8516"/></g><g><title>Analytics</title><rect fill="#FFFFFF" height="73.3984" style="stroke:#181818;stroke-width:1;" width="10" x="1648.1118" y="1075.9141"/></g><rect fill="none" height="148.4688" style="stroke:#000000;stroke-width:1.5;" width="562.2896" x="777.6895" y="405.25"/><rect fill="none" height="116.2031" style="stroke:#000000;stroke-width:1.5;" width="309.2935" x="777.6895" y="567.7188"/><g class="participant-lifeline" data-entity-uid="part1" data-qualified-name="STU" data-source-line="6" id="part1-lifeline"><g><title>Estudiante</title><rect fill="#000000" fill-opacity="0.00000" height="1030.125" width="8" x="41.4165" y="137.1875"/><line style="stroke:#181818;stroke-width:0.5;stroke-dasharray:5,5;" x1="45" x2="45" y1="137.1875" y2="1167.3125"/></g></g><g class="participant-lifeline" data-entity-uid="part2" data-qualified-name="WC" data-source-line="7" id="part2-lifeline"><g><title>Web Client</title><rect fill="#000000" fill-opacity="0.00000" height="1030.125" width="8" x="231.1602" y="137.1875"/><line style="stroke:#181818;stroke-width:0.5;stroke-dasharray:5,5;" x1="234.9985" x2="234.9985" y1="137.1875" y2="1167.3125"/></g></g><g class="participant-lifeline" data-entity-uid="part3" data-qualified-name="GW" data-source-line="8" id="part3-lifeline"><g><title>API Gateway</title><rect fill="#000000" fill-opacity="0.00000" height="1030.125" width="8" x="499.4434" y="137.1875"/><line style="stroke:#181818;stroke-width:0.5;stroke-dasharray:5,5;" x1="503.2217" x2="503.2217" y1="137.1875" y2="1167.3125"/></g></g><g class="participant-lifeline" data-entity-uid="part4" data-qualified-name="AS" data-source-line="9" id="part4-lifeline"><g><title>Assessment .</title><rect fill="#000000" fill-opacity="0.00000" height="1030.125" width="8" x="849.8887" y="137.1875"/><line style="stroke:#181818;stroke-width:0.5;stroke-dasharray:5,5;" x1="853.6895" x2="853.6895" y1="137.1875" y2="1167.3125"/></g></g><g class="participant-lifeline" data-entity-uid="part5" data-qualified-name="RD" data-source-line="10" id="part5-lifeline"><g><title>Cache</title><rect fill="#000000" fill-opacity="0.00000" height="1030.125" width="8" x="1106.1221" y="137.1875"/><line style="stroke:#181818;stroke-width:0.5;stroke-dasharray:5,5;" x1="1109.2349" x2="1109.2349" y1="137.1875" y2="1167.3125"/></g></g><g class="participant-lifeline" data-entity-uid="part6" data-qualified-name="PG" data-source-line="11" id="part6-lifeline"><g><title>PostgreSQL</title><rect fill="#000000" fill-opacity="0.00000" height="1030.125" width="8" x="1246.9941" y="137.1875"/><line style="stroke:#181818;stroke-width:0.5;stroke-dasharray:5,5;" x1="1250.0093" x2="1250.0093" y1="137.1875" y2="1167.3125"/></g></g><g class="participant-lifeline" data-entity-uid="part7" data-qualified-name="MQ" data-source-line="12" id="part7-lifeline"><g><title>Broker</title><rect fill="#000000" fill-opacity="0.00000" height="1030.125" width="8" x="1413.2651" y="137.1875"/><line style="stroke:#181818;stroke-width:0.5;stroke-dasharray:5,5;" x1="1416.979" x2="1416.979" y1="137.1875" y2="1167.3125"/></g></g><g class="participant-lifeline" data-entity-uid="part8" data-qualified-name="ANS" data-source-line="13" id="part8-lifeline"><g><title>Analytics</title><rect fill="#000000" fill-opacity="0.00000" height="1030.125" width="8" x="1649.1118" y="137.1875"/><line style="stroke:#181818;stroke-width:0.5;stroke-dasharray:5,5;" x1="1652.3247" x2="1652.3247" y1="137.1875" y2="1167.3125"/></g></g><g class="participant participant-head" data-entity-uid="part1" data-qualified-name="STU" data-source-line="6" id="part1-head"><text fill="#000000" font-family="sans-serif" font-size="14" lengthAdjust="spacing" textLength="74.833" x="5" y="133.8857">Estudiante</text><ellipse cx="45.4165" cy="69.3906" fill="#E2E2F0" rx="8" ry="8" style="stroke:#181818;stroke-width:0.5;"/><path d="M45.4165,77.3906 L45.4165,104.3906 M32.4165,85.3906 L58.4165,85.3906 M45.4165,104.3906 L32.4165,119.3906 M45.4165,104.3906 L58.4165,119.3906" fill="none" style="stroke:#181818;stroke-width:0.5;"/></g><g class="participant participant-tail" data-entity-uid="part1" data-qualified-name="STU" data-source-line="6" id="part1-tail"><text fill="#000000" font-family="sans-serif" font-size="14" lengthAdjust="spacing" textLength="74.833" x="5" y="1179.3076">Estudiante</text><ellipse cx="45.4165" cy="1191.1094" fill="#E2E2F0" rx="8" ry="8" style="stroke:#181818;stroke-width:0.5;"/><path d="M45.4165,1199.1094 L45.4165,1226.1094 M32.4165,1207.1094 L58.4165,1207.1094 M45.4165,1226.1094 L32.4165,1241.1094 M45.4165,1226.1094 L58.4165,1241.1094" fill="none" style="stroke:#181818;stroke-width:0.5;"/></g><g class="participant participant-head" data-entity-uid="part2" data-qualified-name="WC" data-source-line="7" id="part2-head"><rect fill="#E2E2F0" height="30.2969" rx="2.5" ry="2.5" style="stroke:#181818;stroke-width:0.5;" width="90.3232" x="189.9985" y="105.8906"/><text fill="#000000" font-family="sans-serif" font-size="14" lengthAdjust="spacing" textLength="76.3232" x="196.9985" y="125.8857">Web Client</text></g><g class="participant participant-tail" data-entity-uid="part2" data-qualified-name="WC" data-source-line="7" id="part2-tail"><rect fill="#E2E2F0" height="30.2969" rx="2.5" ry="2.5" style="stroke:#181818;stroke-width:0.5;" width="90.3232" x="189.9985" y="1166.3125"/><text fill="#000000" font-family="sans-serif" font-size="14" lengthAdjust="spacing" textLength="76.3232" x="196.9985" y="1186.3076">Web Client</text></g><g class="participant participant-head" data-entity-uid="part3" data-qualified-name="GW" data-source-line="8" id="part3-head"><rect fill="#E2E2F0" height="30.2969" rx="2.5" ry="2.5" style="stroke:#181818;stroke-width:0.5;" width="102.4434" x="452.2217" y="105.8906"/><text fill="#000000" font-family="sans-serif" font-size="14" lengthAdjust="spacing" textLength="88.4434" x="459.2217" y="125.8857">API Gateway</text></g><g class="participant participant-tail" data-entity-uid="part3" data-qualified-name="GW" data-source-line="8" id="part3-tail"><rect fill="#E2E2F0" height="30.2969" rx="2.5" ry="2.5" style="stroke:#181818;stroke-width:0.5;" width="102.4434" x="452.2217" y="1166.3125"/><text fill="#000000" font-family="sans-serif" font-size="14" lengthAdjust="spacing" textLength="88.4434" x="459.2217" y="1186.3076">API Gateway</text></g><g class="participant participant-head" data-entity-uid="part4" data-qualified-name="AS" data-source-line="9" id="part4-head"><rect fill="#E2E2F0" height="46.5938" rx="2.5" ry="2.5" style="stroke:#181818;stroke-width:0.5;" width="132.3984" x="787.6895" y="89.5938"/><text fill="#000000" font-family="sans-serif" font-size="14" lengthAdjust="spacing" textLength="99.3467" x="804.2153" y="109.5889">Assessment &amp;</text><text fill="#000000" font-family="sans-serif" font-size="14" lengthAdjust="spacing" textLength="118.3984" x="794.6895" y="125.8857">Adaptive Service</text></g><g class="participant participant-tail" data-entity-uid="part4" data-qualified-name="AS" data-source-line="9" id="part4-tail"><rect fill="#E2E2F0" height="46.5938" rx="2.5" ry="2.5" style="stroke:#181818;stroke-width:0.5;" width="132.3984" x="787.6895" y="1166.3125"/><text fill="#000000" font-family="sans-serif" font-size="14" lengthAdjust="spacing" textLength="99.3467" x="804.2153" y="1186.3076">Assessment &amp;</text><text fill="#000000" font-family="sans-serif" font-size="14" lengthAdjust="spacing" textLength="118.3984" x="794.6895" y="1202.6045">Adaptive Service</text></g><g class="participant participant-head" data-entity-uid="part5" data-qualified-name="RD" data-source-line="10" id="part5-head"><text fill="#000000" font-family="sans-serif" font-size="14" lengthAdjust="spacing" textLength="43.5381" x="1085.353" y="101.292">Cache</text><text fill="#000000" font-family="sans-serif" font-size="14" lengthAdjust="spacing" textLength="97.7744" x="1058.2349" y="117.5889">(Cache-Aside)</text><text fill="#000000" font-family="sans-serif" font-size="14" lengthAdjust="spacing" textLength="61.7422" x="1076.251" y="133.8857">TTL=60s</text><path d="M1092.1221,52.2969 C1092.1221,42.2969 1110.1221,42.2969 1110.1221,42.2969 C1110.1221,42.2969 1128.1221,42.2969 1128.1221,52.2969 L1128.1221,78.2969 C1128.1221,88.2969 1110.1221,88.2969 1110.1221,88.2969 C1110.1221,88.2969 1092.1221,88.2969 1092.1221,78.2969 L1092.1221,52.2969" fill="#E2E2F0" style="stroke:#181818;stroke-width:0.5;"/><path d="M1092.1221,52.2969 C1092.1221,62.2969 1110.1221,62.2969 1110.1221,62.2969 C1110.1221,62.2969 1128.1221,62.2969 1128.1221,52.2969" fill="none" style="stroke:#181818;stroke-width:0.5;"/></g><g class="participant participant-tail" data-entity-uid="part5" data-qualified-name="RD" data-source-line="10" id="part5-tail"><text fill="#000000" font-family="sans-serif" font-size="14" lengthAdjust="spacing" textLength="43.5381" x="1085.353" y="1179.3076">Cache</text><text fill="#000000" font-family="sans-serif" font-size="14" lengthAdjust="spacing" textLength="97.7744" x="1058.2349" y="1195.6045">(Cache-Aside)</text><text fill="#000000" font-family="sans-serif" font-size="14" lengthAdjust="spacing" textLength="61.7422" x="1076.251" y="1211.9014">TTL=60s</text><path d="M1092.1221,1225.2031 C1092.1221,1215.2031 1110.1221,1215.2031 1110.1221,1215.2031 C1110.1221,1215.2031 1128.1221,1215.2031 1128.1221,1225.2031 L1128.1221,1251.2031 C1128.1221,1261.2031 1110.1221,1261.2031 1110.1221,1261.2031 C1110.1221,1261.2031 1092.1221,1261.2031 1092.1221,1251.2031 L1092.1221,1225.2031" fill="#E2E2F0" style="stroke:#181818;stroke-width:0.5;"/><path d="M1092.1221,1225.2031 C1092.1221,1235.2031 1110.1221,1235.2031 1110.1221,1235.2031 C1110.1221,1235.2031 1128.1221,1235.2031 1128.1221,1225.2031" fill="none" style="stroke:#181818;stroke-width:0.5;"/></g><g class="participant participant-head" data-entity-uid="part6" data-qualified-name="PG" data-source-line="11" id="part6-head"><text fill="#000000" font-family="sans-serif" font-size="14" lengthAdjust="spacing" textLength="80.7529" x="1207.6177" y="117.5889">PostgreSQL</text><text fill="#000000" font-family="sans-serif" font-size="14" lengthAdjust="spacing" textLength="151.9697" x="1172.0093" y="133.8857">schema_assessments</text><path d="M1232.9941,68.5938 C1232.9941,58.5938 1250.9941,58.5938 1250.9941,58.5938 C1250.9941,58.5938 1268.9941,58.5938 1268.9941,68.5938 L1268.9941,94.5938 C1268.9941,104.5938 1250.9941,104.5938 1250.9941,104.5938 C1250.9941,104.5938 1232.9941,104.5938 1232.9941,94.5938 L1232.9941,68.5938" fill="#E2E2F0" style="stroke:#181818;stroke-width:0.5;"/><path d="M1232.9941,68.5938 C1232.9941,78.5938 1250.9941,78.5938 1250.9941,78.5938 C1250.9941,78.5938 1268.9941,78.5938 1268.9941,68.5938" fill="none" style="stroke:#181818;stroke-width:0.5;"/></g><g class="participant participant-tail" data-entity-uid="part6" data-qualified-name="PG" data-source-line="11" id="part6-tail"><text fill="#000000" font-family="sans-serif" font-size="14" lengthAdjust="spacing" textLength="80.7529" x="1207.6177" y="1179.3076">PostgreSQL</text><text fill="#000000" font-family="sans-serif" font-size="14" lengthAdjust="spacing" textLength="151.9697" x="1172.0093" y="1195.6045">schema_assessments</text><path d="M1232.9941,1208.9063 C1232.9941,1198.9063 1250.9941,1198.9063 1250.9941,1198.9063 C1250.9941,1198.9063 1268.9941,1198.9063 1268.9941,1208.9063 L1268.9941,1234.9063 C1268.9941,1244.9063 1250.9941,1244.9063 1250.9941,1244.9063 C1250.9941,1244.9063 1232.9941,1244.9063 1232.9941,1234.9063 L1232.9941,1208.9063" fill="#E2E2F0" style="stroke:#181818;stroke-width:0.5;"/><path d="M1232.9941,1208.9063 C1232.9941,1218.9063 1250.9941,1218.9063 1250.9941,1218.9063 C1250.9941,1218.9063 1268.9941,1218.9063 1268.9941,1208.9063" fill="none" style="stroke:#181818;stroke-width:0.5;"/></g><g class="participant participant-head" data-entity-uid="part7" data-qualified-name="MQ" data-source-line="12" id="part7-head"><path d="M1344.979,94.5938 L1489.5513,94.5938 C1494.5513,94.5938 1494.5513,115.8906 1494.5513,115.8906 C1494.5513,115.8906 1494.5513,137.1875 1489.5513,137.1875 L1344.979,137.1875 C1339.979,137.1875 1339.979,115.8906 1339.979,115.8906 C1339.979,115.8906 1339.979,94.5938 1344.979,94.5938" fill="#E2E2F0" style="stroke:#181818;stroke-width:0.5;"/><path d="M1489.5513,94.5938 C1484.5513,94.5938 1484.5513,115.8906 1484.5513,115.8906 C1484.5513,137.1875 1489.5513,137.1875 1489.5513,137.1875" fill="none" style="stroke:#181818;stroke-width:0.5;"/><text fill="#000000" font-family="sans-serif" font-size="14" lengthAdjust="spacing" textLength="46.4023" x="1389.064" y="112.5889">Broker</text><text fill="#000000" font-family="sans-serif" font-size="14" lengthAdjust="spacing" textLength="134.5723" x="1344.979" y="128.8857">(Publish/Subscribe)</text></g><g class="participant participant-tail" data-entity-uid="part7" data-qualified-name="MQ" data-source-line="12" id="part7-tail"><path d="M1344.979,1166.3125 L1489.5513,1166.3125 C1494.5513,1166.3125 1494.5513,1187.6094 1494.5513,1187.6094 C1494.5513,1187.6094 1494.5513,1208.9063 1489.5513,1208.9063 L1344.979,1208.9063 C1339.979,1208.9063 1339.979,1187.6094 1339.979,1187.6094 C1339.979,1187.6094 1339.979,1166.3125 1344.979,1166.3125" fill="#E2E2F0" style="stroke:#181818;stroke-width:0.5;"/><path d="M1489.5513,1166.3125 C1484.5513,1166.3125 1484.5513,1187.6094 1484.5513,1187.6094 C1484.5513,1208.9063 1489.5513,1208.9063 1489.5513,1208.9063" fill="none" style="stroke:#181818;stroke-width:0.5;"/><text fill="#000000" font-family="sans-serif" font-size="14" lengthAdjust="spacing" textLength="46.4023" x="1389.064" y="1184.3076">Broker</text><text fill="#000000" font-family="sans-serif" font-size="14" lengthAdjust="spacing" textLength="134.5723" x="1344.979" y="1200.6045">(Publish/Subscribe)</text></g><g class="participant participant-head" data-entity-uid="part8" data-qualified-name="ANS" data-source-line="13" id="part8-head"><rect fill="#E2E2F0" height="46.5938" rx="2.5" ry="2.5" style="stroke:#181818;stroke-width:0.5;" width="77.5742" x="1614.3247" y="89.5938"/><text fill="#000000" font-family="sans-serif" font-size="14" lengthAdjust="spacing" textLength="63.5742" x="1621.3247" y="109.5889">Analytics</text><text fill="#000000" font-family="sans-serif" font-size="14" lengthAdjust="spacing" textLength="51.7412" x="1627.2412" y="125.8857">Service</text></g><g class="participant participant-tail" data-entity-uid="part8" data-qualified-name="ANS" data-source-line="13" id="part8-tail"><rect fill="#E2E2F0" height="46.5938" rx="2.5" ry="2.5" style="stroke:#181818;stroke-width:0.5;" width="77.5742" x="1614.3247" y="1166.3125"/><text fill="#000000" font-family="sans-serif" font-size="14" lengthAdjust="spacing" textLength="63.5742" x="1621.3247" y="1186.3076">Analytics</text><text fill="#000000" font-family="sans-serif" font-size="14" lengthAdjust="spacing" textLength="51.7412" x="1627.2412" y="1202.6045">Service</text></g><g><title>Assessment .</title><rect fill="#FFFFFF" height="611.2656" style="stroke:#181818;stroke-width:1;" width="10" x="848.8887" y="283.8516"/></g><g><title>Analytics</title><rect fill="#FFFFFF" height="73.3984" style="stroke:#181818;stroke-width:1;" width="10" x="1648.1118" y="1075.9141"/></g><g class="message" data-entity-1="part1" data-entity-2="part2" data-source-line="15" id="msg1"><polygon fill="#181818" points="223.1602,164.3203,233.1602,168.3203,223.1602,172.3203,227.1602,168.3203" style="stroke:#181818;stroke-width:1;"/><line style="stroke:#181818;stroke-width:2;" x1="45.4165" x2="229.1602" y1="168.3203" y2="168.3203"/><text fill="#000000" font-family="sans-serif" font-size="13" lengthAdjust="spacing" textLength="99.0615" x="52.4165" y="163.2544">Confirma envio</text></g><g class="message" data-entity-1="part2" data-entity-2="part3" data-source-line="16" id="msg2"><polygon fill="#181818" points="491.4434,208.5859,501.4434,212.5859,491.4434,216.5859,495.4434,212.5859" style="stroke:#181818;stroke-width:1;"/><line style="stroke:#181818;stroke-width:2;" x1="235.1602" x2="497.4434" y1="212.5859" y2="212.5859"/><text fill="#000000" font-family="sans-serif" font-size="13" lengthAdjust="spacing" textLength="244.2832" x="242.1602" y="192.3872">POST /api/v1/evaluations/{id}/submit</text><text fill="#000000" font-family="sans-serif" font-size="13" lengthAdjust="spacing" textLength="124.1982" x="242.1602" y="207.52">{answers[]} + JWT</text></g><g class="message" data-entity-1="part3" data-entity-2="part3" data-source-line="17" id="msg3"><line style="stroke:#181818;stroke-width:2;" x1="503.4434" x2="545.4434" y1="241.7188" y2="241.7188"/><line style="stroke:#181818;stroke-width:2;" x1="545.4434" x2="545.4434" y1="241.7188" y2="254.7188"/><line style="stroke:#181818;stroke-width:2;" x1="504.4434" x2="545.4434" y1="254.7188" y2="254.7188"/><polygon fill="#181818" points="514.4434,250.7188,504.4434,254.7188,514.4434,258.7188,510.4434,254.7188" style="stroke:#181818;stroke-width:1;"/><text fill="#000000" font-family="sans-serif" font-size="13" lengthAdjust="spacing" textLength="213.7129" x="510.4434" y="236.6528">Valida JWT, extrae {userId, role}</text></g><g class="message" data-entity-1="part3" data-entity-2="part4" data-source-line="18" id="msg4"><polygon fill="#181818" points="836.8887,279.8516,846.8887,283.8516,836.8887,287.8516,840.8887,283.8516" style="stroke:#181818;stroke-width:1;"/><line style="stroke:#181818;stroke-width:2;" x1="503.4434" x2="842.8887" y1="283.8516" y2="283.8516"/><text fill="#000000" font-family="sans-serif" font-size="13" lengthAdjust="spacing" textLength="322.8354" x="510.4434" y="278.7856">POST /evaluations/{id}/submit {userId, answers}</text></g><path d="M729,296.8516 L729,321.8516 L978,321.8516 L978,306.8516 L968,296.8516 L729,296.8516" fill="#FEFFDD" style="stroke:#181818;stroke-width:0.5;"/><path d="M968,296.8516 L968,306.8516 L978,306.8516 L968,296.8516" fill="#FEFFDD" style="stroke:#181818;stroke-width:0.5;"/><text fill="#000000" font-family="sans-serif" font-size="13" lengthAdjust="spacing" textLength="228.2808" x="735" y="313.9185">CAMINO CRiTICO SiNCRONO (&lt; 2s)</text><g class="message" data-entity-1="part4" data-entity-2="part4" data-source-line="23" id="msg5"><line style="stroke:#181818;stroke-width:2;" x1="858.8887" x2="900.8887" y1="348.1172" y2="348.1172"/><line style="stroke:#181818;stroke-width:2;" x1="900.8887" x2="900.8887" y1="348.1172" y2="361.1172"/><line style="stroke:#181818;stroke-width:2;" x1="859.8887" x2="900.8887" y1="361.1172" y2="361.1172"/><polygon fill="#181818" points="869.8887,357.1172,859.8887,361.1172,869.8887,365.1172,865.8887,361.1172" style="stroke:#181818;stroke-width:1;"/><text fill="#000000" font-family="sans-serif" font-size="13" lengthAdjust="spacing" textLength="173.6655" x="865.8887" y="343.0513">Califica preguntas MC y TF</text></g><g class="message" data-entity-1="part4" data-entity-2="part5" data-source-line="25" id="msg6"><polygon fill="#181818" points="1098.1221,386.25,1108.1221,390.25,1098.1221,394.25,1102.1221,390.25" style="stroke:#181818;stroke-width:1;"/><line style="stroke:#181818;stroke-width:2;" x1="858.8887" x2="1104.1221" y1="390.25" y2="390.25"/><text fill="#000000" font-family="sans-serif" font-size="13" lengthAdjust="spacing" textLength="136.6841" x="865.8887" y="385.1841">GET rules:{lessonId}</text></g><path d="M777.6895,405.25 L842.1323,405.25 L842.1323,412.3828 L832.1323,422.3828 L777.6895,422.3828 L777.6895,405.25" fill="#EEEEEE" style="stroke:#000000;stroke-width:1.5;"/><rect fill="none" height="148.4688" style="stroke:#000000;stroke-width:1.5;" width="562.2896" x="777.6895" y="405.25"/><text fill="#000000" font-family="sans-serif" font-size="13" font-weight="700" lengthAdjust="spacing" textLength="19.4429" x="792.6895" y="418.3169">alt</text><text fill="#000000" font-family="sans-serif" font-size="11" font-weight="700" lengthAdjust="spacing" textLength="71.9941" x="857.1323" y="417.4604">[Cache HIT]</text><g class="message" data-entity-1="part5" data-entity-2="part4" data-source-line="27" id="msg7"><polygon fill="#181818" points="869.8887,439.5156,859.8887,443.5156,869.8887,447.5156,865.8887,443.5156" style="stroke:#181818;stroke-width:1;"/><line style="stroke:#181818;stroke-width:2;stroke-dasharray:2,2;" x1="863.8887" x2="1109.1221" y1="443.5156" y2="443.5156"/><text fill="#000000" font-family="sans-serif" font-size="13" lengthAdjust="spacing" textLength="227.2334" x="875.8887" y="438.4497">{umbral, refuerzoIds, avanzadoId}</text></g><line style="stroke:#000000;stroke-width:1;stroke-dasharray:2,2;" x1="777.6895" x2="1339.979" y1="452.5156" y2="452.5156"/><text fill="#000000" font-family="sans-serif" font-size="11" font-weight="700" lengthAdjust="spacing" textLength="82.0757" x="782.6895" y="462.7261">[Cache MISS]</text><g class="message" data-entity-1="part4" data-entity-2="part6" data-source-line="29" id="msg8"><polygon fill="#181818" points="1238.9941,483.4531,1248.9941,487.4531,1238.9941,491.4531,1242.9941,487.4531" style="stroke:#181818;stroke-width:1;"/><line style="stroke:#181818;stroke-width:2;" x1="858.8887" x2="1244.9941" y1="487.4531" y2="487.4531"/><text fill="#000000" font-family="sans-serif" font-size="13" lengthAdjust="spacing" textLength="348.5244" x="865.8887" y="482.3872">SELECT * FROM adaptation_rules WHERE lesson_id=?</text></g><g class="message" data-entity-1="part6" data-entity-2="part4" data-source-line="30" id="msg9"><polygon fill="#181818" points="869.8887,512.5859,859.8887,516.5859,869.8887,520.5859,865.8887,516.5859" style="stroke:#181818;stroke-width:1;"/><line style="stroke:#181818;stroke-width:2;stroke-dasharray:2,2;" x1="863.8887" x2="1249.9941" y1="516.5859" y2="516.5859"/><text fill="#000000" font-family="sans-serif" font-size="13" lengthAdjust="spacing" textLength="227.2334" x="875.8887" y="511.52">{umbral, refuerzoIds, avanzadoId}</text></g><g class="message" data-entity-1="part4" data-entity-2="part5" data-source-line="31" id="msg10"><polygon fill="#181818" points="1098.1221,541.7188,1108.1221,545.7188,1098.1221,549.7188,1102.1221,545.7188" style="stroke:#181818;stroke-width:1;"/><line style="stroke:#181818;stroke-width:2;" x1="858.8887" x2="1104.1221" y1="545.7188" y2="545.7188"/><text fill="#000000" font-family="sans-serif" font-size="13" lengthAdjust="spacing" textLength="189.5537" x="865.8887" y="540.6528">SET rules:{lessonId} TTL=60</text></g><path d="M777.6895,567.7188 L842.1323,567.7188 L842.1323,574.8516 L832.1323,584.8516 L777.6895,584.8516 L777.6895,567.7188" fill="#EEEEEE" style="stroke:#000000;stroke-width:1.5;"/><rect fill="none" height="116.2031" style="stroke:#000000;stroke-width:1.5;" width="309.2935" x="777.6895" y="567.7188"/><text fill="#000000" font-family="sans-serif" font-size="13" font-weight="700" lengthAdjust="spacing" textLength="19.4429" x="792.6895" y="580.7856">alt</text><text fill="#000000" font-family="sans-serif" font-size="11" font-weight="700" lengthAdjust="spacing" textLength="108.002" x="857.1323" y="579.9292">[nota &gt;= umbral]</text><g class="message" data-entity-1="part4" data-entity-2="part4" data-source-line="35" id="msg11"><line style="stroke:#181818;stroke-width:2;" x1="858.8887" x2="900.8887" y1="605.9844" y2="605.9844"/><line style="stroke:#181818;stroke-width:2;" x1="900.8887" x2="900.8887" y1="605.9844" y2="618.9844"/><line style="stroke:#181818;stroke-width:2;" x1="859.8887" x2="900.8887" y1="618.9844" y2="618.9844"/><polygon fill="#181818" points="869.8887,614.9844,859.8887,618.9844,869.8887,622.9844,865.8887,618.9844" style="stroke:#181818;stroke-width:1;"/><text fill="#000000" font-family="sans-serif" font-size="13" lengthAdjust="spacing" textLength="199.0942" x="865.8887" y="600.9185">nextStep = UNLOCK avanzado</text></g><line style="stroke:#000000;stroke-width:1;stroke-dasharray:2,2;" x1="777.6895" x2="1086.9829" y1="627.9844" y2="627.9844"/><text fill="#000000" font-family="sans-serif" font-size="11" font-weight="700" lengthAdjust="spacing" textLength="98.7852" x="782.6895" y="638.1948">[nota &lt; umbral]</text><g class="message" data-entity-1="part4" data-entity-2="part4" data-source-line="37" id="msg12"><line style="stroke:#181818;stroke-width:2;" x1="858.8887" x2="900.8887" y1="662.9219" y2="662.9219"/><line style="stroke:#181818;stroke-width:2;" x1="900.8887" x2="900.8887" y1="662.9219" y2="675.9219"/><line style="stroke:#181818;stroke-width:2;" x1="859.8887" x2="900.8887" y1="675.9219" y2="675.9219"/><polygon fill="#181818" points="869.8887,671.9219,859.8887,675.9219,869.8887,679.9219,865.8887,675.9219" style="stroke:#181818;stroke-width:1;"/><text fill="#000000" font-family="sans-serif" font-size="13" lengthAdjust="spacing" textLength="177.3091" x="865.8887" y="657.856">nextStep = SHOW refuerzo</text></g><g class="message" data-entity-1="part4" data-entity-2="part6" data-source-line="40" id="msg13"><polygon fill="#181818" points="1238.9941,723.1875,1248.9941,727.1875,1238.9941,731.1875,1242.9941,727.1875" style="stroke:#181818;stroke-width:1;"/><line style="stroke:#181818;stroke-width:2;" x1="858.8887" x2="1244.9941" y1="727.1875" y2="727.1875"/><text fill="#000000" font-family="sans-serif" font-size="13" lengthAdjust="spacing" textLength="220.8159" x="865.8887" y="706.9888">INSERT INTO evaluation_attempts</text><text fill="#000000" font-family="sans-serif" font-size="13" lengthAdjust="spacing" textLength="239.7827" x="865.8887" y="722.1216">{userId, nota, nextStep, timestamp}</text></g><g class="message" data-entity-1="part6" data-entity-2="part4" data-source-line="41" id="msg14"><polygon fill="#181818" points="869.8887,752.3203,859.8887,756.3203,869.8887,760.3203,865.8887,756.3203" style="stroke:#181818;stroke-width:1;"/><line style="stroke:#181818;stroke-width:2;stroke-dasharray:2,2;" x1="863.8887" x2="1249.9941" y1="756.3203" y2="756.3203"/><text fill="#000000" font-family="sans-serif" font-size="13" lengthAdjust="spacing" textLength="80.7993" x="875.8887" y="751.2544">{attemptId}</text></g><g class="message" data-entity-1="part4" data-entity-2="part7" data-source-line="43" id="msg15"><line style="stroke:#181818;stroke-width:2;" x1="1415.2651" x2="1405.2651" y1="800.5859" y2="796.5859"/><line style="stroke:#181818;stroke-width:2;" x1="1415.2651" x2="1405.2651" y1="800.5859" y2="804.5859"/><line style="stroke:#181818;stroke-width:2;" x1="858.8887" x2="1416.2651" y1="800.5859" y2="800.5859"/><text fill="#000000" font-family="sans-serif" font-size="13" lengthAdjust="spacing" textLength="200.9922" x="865.8887" y="780.3872">PUBLISH evaluation.completed</text><text fill="#000000" font-family="sans-serif" font-size="13" lengthAdjust="spacing" textLength="219.5591" x="865.8887" y="795.52">{userId, nota, nextStep} [ASYNC]</text></g><path d="M1336,813.5859 L1336,868.5859 L1497,868.5859 L1497,823.5859 L1487,813.5859 L1336,813.5859" fill="#FEFFDD" style="stroke:#181818;stroke-width:0.5;"/><path d="M1487,813.5859 L1487,823.5859 L1497,823.5859 L1487,813.5859" fill="#FEFFDD" style="stroke:#181818;stroke-width:0.5;"/><text fill="#000000" font-family="sans-serif" font-size="13" lengthAdjust="spacing" textLength="103.562" x="1342" y="830.6528">Outbox Pattern:</text><text fill="#000000" font-family="sans-serif" font-size="13" lengthAdjust="spacing" textLength="127.1816" x="1342" y="845.7856">mensaje persistido,</text><text fill="#000000" font-family="sans-serif" font-size="13" lengthAdjust="spacing" textLength="140.2578" x="1342" y="860.9185">entrega at-least-once</text><g class="message" data-entity-1="part4" data-entity-2="part3" data-source-line="47" id="msg16"><polygon fill="#181818" points="514.4434,891.1172,504.4434,895.1172,514.4434,899.1172,510.4434,895.1172" style="stroke:#181818;stroke-width:1;"/><line style="stroke:#181818;stroke-width:2;stroke-dasharray:2,2;" x1="508.4434" x2="852.8887" y1="895.1172" y2="895.1172"/><text fill="#000000" font-family="sans-serif" font-size="13" lengthAdjust="spacing" textLength="321.4453" x="520.4434" y="890.0513">HTTP 200 {nota, respuestasCorrectas, nextStep}</text></g><g class="message" data-entity-1="part3" data-entity-2="part2" data-source-line="49" id="msg17"><polygon fill="#181818" points="246.1602,920.25,236.1602,924.25,246.1602,928.25,242.1602,924.25" style="stroke:#181818;stroke-width:1;"/><line style="stroke:#181818;stroke-width:2;stroke-dasharray:2,2;" x1="240.1602" x2="502.4434" y1="924.25" y2="924.25"/><text fill="#000000" font-family="sans-serif" font-size="13" lengthAdjust="spacing" textLength="62.4419" x="252.1602" y="919.1841">HTTP 200</text></g><g class="message" data-entity-1="part2" data-entity-2="part1" data-source-line="50" id="msg18"><polygon fill="#181818" points="56.4165,964.5156,46.4165,968.5156,56.4165,972.5156,52.4165,968.5156" style="stroke:#181818;stroke-width:1;"/><line style="stroke:#181818;stroke-width:2;stroke-dasharray:2,2;" x1="50.4165" x2="234.1602" y1="968.5156" y2="968.5156"/><text fill="#000000" font-family="sans-serif" font-size="13" lengthAdjust="spacing" textLength="165.7437" x="62.4165" y="948.3169">Nota + retroalimentacion</text><text fill="#000000" font-family="sans-serif" font-size="13" lengthAdjust="spacing" textLength="143.4697" x="62.4165" y="963.4497">+ siguiente contenido</text></g><path d="M5,981.5156 L5,1006.5156 L275,1006.5156 L275,991.5156 L265,981.5156 L5,981.5156" fill="#FEFFDD" style="stroke:#181818;stroke-width:0.5;"/><path d="M265,981.5156 L265,991.5156 L275,991.5156 L265,981.5156" fill="#FEFFDD" style="stroke:#181818;stroke-width:0.5;"/><text fill="#000000" font-family="sans-serif" font-size="13" lengthAdjust="spacing" textLength="142.7778" x="64.272" y="998.5825">Respuesta &lt; 2s P95 &#9989;</text><rect fill="#EEEEEE" height="3" style="stroke:#EEEEEE;stroke-width:1;" width="1696.8989" x="0" y="1032.2148"/><line style="stroke:#000000;stroke-width:1;" x1="0" x2="1696.8989" y1="1032.2148" y2="1032.2148"/><line style="stroke:#000000;stroke-width:1;" x1="0" x2="1696.8989" y1="1035.2148" y2="1035.2148"/><rect fill="#EEEEEE" height="23.1328" style="stroke:#000000;stroke-width:2;" width="306.9316" x="694.9836" y="1021.6484"/><text fill="#000000" font-family="sans-serif" font-size="13" font-weight="700" lengthAdjust="spacing" textLength="288.4058" x="700.9836" y="1037.7153">Procesamiento asincrono (background)</text><g class="message" data-entity-1="part7" data-entity-2="part8" data-source-line="55" id="msg19"><line style="stroke:#181818;stroke-width:2;" x1="1646.1118" x2="1636.1118" y1="1075.9141" y2="1071.9141"/><line style="stroke:#181818;stroke-width:2;" x1="1646.1118" x2="1636.1118" y1="1075.9141" y2="1079.9141"/><line style="stroke:#181818;stroke-width:2;" x1="1417.2651" x2="1647.1118" y1="1075.9141" y2="1075.9141"/><text fill="#000000" font-family="sans-serif" font-size="13" lengthAdjust="spacing" textLength="211.8467" x="1424.2651" y="1070.8481">CONSUME evaluation.completed</text></g><g class="message" data-entity-1="part8" data-entity-2="part6" data-source-line="57" id="msg20"><polygon fill="#181818" points="1261.9941,1116.1797,1251.9941,1120.1797,1261.9941,1124.1797,1257.9941,1120.1797" style="stroke:#181818;stroke-width:1;"/><line style="stroke:#181818;stroke-width:2;" x1="1255.9941" x2="1647.1118" y1="1120.1797" y2="1120.1797"/><text fill="#000000" font-family="sans-serif" font-size="13" lengthAdjust="spacing" textLength="169.4316" x="1267.9941" y="1099.981">UPDATE student_progress</text><text fill="#000000" font-family="sans-serif" font-size="13" lengthAdjust="spacing" textLength="170.333" x="1267.9941" y="1115.1138">SET avance=?, lastEval=?</text></g><g class="message" data-entity-1="part8" data-entity-2="part7" data-source-line="58" id="msg21"><polygon fill="#181818" points="1428.2651,1145.3125,1418.2651,1149.3125,1428.2651,1153.3125,1424.2651,1149.3125" style="stroke:#181818;stroke-width:1;"/><line style="stroke:#181818;stroke-width:2;stroke-dasharray:2,2;" x1="1422.2651" x2="1652.1118" y1="1149.3125" y2="1149.3125"/><text fill="#000000" font-family="sans-serif" font-size="13" lengthAdjust="spacing" textLength="26.4951" x="1434.2651" y="1144.2466">ACK</text></g><?plantuml-src bLN_Rk964FxVJp5AfIffeAIHMgdeoCddEE0UO1ysHTLnGeizIRQnTztTDRaSui--HP-kJz9P6nDolLDL8O7PdM---V7Ds72J8yHUz-Ao3xxOS0aPWhzXUSLIBWKymKGQgS3DM6cOuHi9fr6rphc-xyNLMgUAh_7CSVG35oLJh02DVrGeKdILae_9FKyV16eDbqScQvO-t2bPYSoJEJd_viQr7yTXgUKwyRMfCiw4mHDW6k9axX3Gy9INT0Wd2ro3btCKfhvVU2-ltIY08JFuo9xg--7YitkjAQA2uF3jKjIPyGrL0TM6fmsb6piPCspDDCA9nz9xN8hJ-hVhQfxXsL8aoNZmquMkpMVNH-QHrEPEOVnkl1IQ40LRiGDZOnyD7IfIHSPlb7n0HSx_NTJQSlBkizW5ov_ehrwA5_5EOyUXEa7tYie1VV2akEMgO82sgGwTqSrmGJTH62VGOoNlRNxeOTrfGvtMlItFTZrThGjkbcBBX7v4fTz_sC4v_B9870AtBdvbES-OFUq0VZIA8MmhZIh8Eg1aZhkziHiV-Bv2z8pRy-si1lY6kcTxu0X93tA3gl7bkPDW6e8tuqdWXH3pgJSBwU3q5LngKY4PjRGUnNZBKmQbmhjA65jBZ-IStBHcisio6_e9g2f7tT_IbvOYo2Y4t43TR1W5YGFMijlwtLR5Mh6S4iNR2jKd6MIQejymyObbqg8n9nKqy4aGnuHl-A8XmMD_x7i9V0Stit02R3zLKgpg860nycS-D96iU3PuJMZ2_G_sbgtEBlv2Tj08rq6HENMcL6C6LmDeN1ySr7o2sXiRB640y-auzDuUk9eqQ-oh_uB6et1nYBWXFYf9C8tzMK8_IGZFCbanOx0e3Gdze17BrZauxe3X1Mh3YdBdl2ZI7chBqH1TqHnPASxVZ8DuTCJoVIgBCaU3sLTfTl3UZN-RUX-ErLYx2okpbXyXidHAz9U21boptn5A4ZBNXcUoinGqzAH01inqSsJQT2KjnoQkTfv6IHB1vSK5R1jgXRgiR6RQaqfXIWz7yJWP7i-87RLswbj7zRpJeTq8VPZQ9fsJLwCaJOLTG_LoNufpqFokieiK8PNqBIZcupp9GQVsF6j30Zjg4Fty8_pzrv-ECnX0f6IAcXNMZQHbn4MgfA3tnFEQFuF1mA6QsKxGghBZ6KxZ-SJ_OYkELW2jDMlVIcKUNRk93_RrG6IhKabQjDhkGXAwLMQAWzSToAdCzXr6urEZk_l-kzxR5yMRnly0?></g></svg>