<svg xmlns="http://www.w3.org/2000/svg" xmlns:xlink="http://www.w3.org/1999/xlink" contentStyleType="text/css" data-diagram-type="SEQUENCE" height="1097px" preserveAspectRatio="none" style="width:1680px;height:1097px;background:#FAFAFA;" version="1.1" viewBox="0 0 1680 1097" width="1680px" zoomAndPan="magnify"><?plantuml 1.2026.3beta5?><defs/><g><rect fill="#FAFAFA" height="1097" style="stroke:none;stroke-width:1;" width="1680" x="0" y="0"/><g class="title" data-source-line="1"><text fill="#000000" font-family="sans-serif" font-size="14" font-weight="700" lengthAdjust="spacing" textLength="486.1787" x="593.5085" y="27.9951">SC-03: Configuracion de Reglas de Adaptacion (Rules Engine)</text></g><g><title>Course Service</title><rect fill="#FFFFFF" height="720.0625" style="stroke:#181818;stroke-width:1;" width="10" x="1012.2432" y="282.6875"/></g><rect fill="none" height="597.6641" style="stroke:#000000;stroke-width:1.5;" width="1654.1958" x="10" y="398.0859"/><rect fill="none" height="390.9297" style="stroke:#000000;stroke-width:1.5;" width="1634.1958" x="20" y="495.6172"/><g class="participant-lifeline" data-entity-uid="part1" data-qualified-name="DOC" data-source-line="6" id="part1-lifeline"><g><title>Docente</title><rect fill="#000000" fill-opacity="0.00000" height="891.8594" width="8" x="58.3159" y="120.8906"/><line style="stroke:#181818;stroke-width:0.5;stroke-dasharray:5,5;" x1="62" x2="62" y1="120.8906" y2="1012.75"/></g></g><g class="participant-lifeline" data-entity-uid="part2" data-qualified-name="WC" data-source-line="7" id="part2-lifeline"><g><title>Web Client</title><rect fill="#000000" fill-opacity="0.00000" height="891.8594" width="8" x="283.1304" y="120.8906"/><line style="stroke:#181818;stroke-width:0.5;stroke-dasharray:5,5;" x1="286.9688" x2="286.9688" y1="120.8906" y2="1012.75"/></g></g><g class="participant-lifeline" data-entity-uid="part3" data-qualified-name="GW" data-source-line="8" id="part3-lifeline"><g><title>API Gateway</title><rect fill="#000000" fill-opacity="0.00000" height="891.8594" width="8" x="603.2041" y="120.8906"/><line style="stroke:#181818;stroke-width:0.5;stroke-dasharray:5,5;" x1="606.9824" x2="606.9824" y1="120.8906" y2="1012.75"/></g></g><g class="participant-lifeline" data-entity-uid="part4" data-qualified-name="CS" data-source-line="9" id="part4-lifeline"><g><title>Course Service</title><rect fill="#000000" fill-opacity="0.00000" height="891.8594" width="8" x="1013.2432" y="120.8906"/><line style="stroke:#181818;stroke-width:0.5;stroke-dasharray:5,5;" x1="1016.709" x2="1016.709" y1="120.8906" y2="1012.75"/></g></g><g class="participant-lifeline" data-entity-uid="part5" data-qualified-name="PG" data-source-line="10" id="part5-lifeline"><g><title>PostgreSQL</title><rect fill="#000000" fill-opacity="0.00000" height="891.8594" width="8" x="1407.6333" y="120.8906"/><line style="stroke:#181818;stroke-width:0.5;stroke-dasharray:5,5;" x1="1410.7397" x2="1410.7397" y1="120.8906" y2="1012.75"/></g></g><g class="participant-lifeline" data-entity-uid="part6" data-qualified-name="RD" data-source-line="11" id="part6-lifeline"><g><title>Cache</title><rect fill="#000000" fill-opacity="0.00000" height="891.8594" width="8" x="1530.4141" y="120.8906"/><line style="stroke:#181818;stroke-width:0.5;stroke-dasharray:5,5;" x1="1533.5269" x2="1533.5269" y1="120.8906" y2="1012.75"/></g></g><g class="participant participant-head" data-entity-uid="part1" data-qualified-name="DOC" data-source-line="6" id="part1-head"><text fill="#000000" font-family="sans-serif" font-size="14" lengthAdjust="spacing" textLength="58.6318" x="30" y="117.5889">Docente</text><ellipse cx="62.3159" cy="53.0938" fill="#E2E2F0" rx="8" ry="8" style="stroke:#181818;stroke-width:0.5;"/><path d="M62.3159,61.0938 L62.3159,88.0938 M49.3159,69.0938 L75.3159,69.0938 M62.3159,88.0938 L49.3159,103.0938 M62.3159,88.0938 L75.3159,103.0938" fill="none" style="stroke:#181818;stroke-width:0.5;"/></g><g class="participant participant-tail" data-entity-uid="part1" data-qualified-name="DOC" data-source-line="6" id="part1-tail"><text fill="#000000" font-family="sans-serif" font-size="14" lengthAdjust="spacing" textLength="58.6318" x="30" y="1024.7451">Docente</text><ellipse cx="62.3159" cy="1036.5469" fill="#E2E2F0" rx="8" ry="8" style="stroke:#181818;stroke-width:0.5;"/><path d="M62.3159,1044.5469 L62.3159,1071.5469 M49.3159,1052.5469 L75.3159,1052.5469 M62.3159,1071.5469 L49.3159,1086.5469 M62.3159,1071.5469 L75.3159,1086.5469" fill="none" style="stroke:#181818;stroke-width:0.5;"/></g><g class="participant participant-head" data-entity-uid="part2" data-qualified-name="WC" data-source-line="7" id="part2-head"><rect fill="#E2E2F0" height="30.2969" rx="2.5" ry="2.5" style="stroke:#181818;stroke-width:0.5;" width="90.3232" x="241.9688" y="89.5938"/><text fill="#000000" font-family="sans-serif" font-size="14" lengthAdjust="spacing" textLength="76.3232" x="248.9688" y="109.5889">Web Client</text></g><g class="participant participant-tail" data-entity-uid="part2" data-qualified-name="WC" data-source-line="7" id="part2-tail"><rect fill="#E2E2F0" height="30.2969" rx="2.5" ry="2.5" style="stroke:#181818;stroke-width:0.5;" width="90.3232" x="241.9688" y="1011.75"/><text fill="#000000" font-family="sans-serif" font-size="14" lengthAdjust="spacing" textLength="76.3232" x="248.9688" y="1031.7451">Web Client</text></g><g class="participant participant-head" data-entity-uid="part3" data-qualified-name="GW" data-source-line="8" id="part3-head"><rect fill="#E2E2F0" height="30.2969" rx="2.5" ry="2.5" style="stroke:#181818;stroke-width:0.5;" width="102.4434" x="555.9824" y="89.5938"/><text fill="#000000" font-family="sans-serif" font-size="14" lengthAdjust="spacing" textLength="88.4434" x="562.9824" y="109.5889">API Gateway</text></g><g class="participant participant-tail" data-entity-uid="part3" data-qualified-name="GW" data-source-line="8" id="part3-tail"><rect fill="#E2E2F0" height="30.2969" rx="2.5" ry="2.5" style="stroke:#181818;stroke-width:0.5;" width="102.4434" x="555.9824" y="1011.75"/><text fill="#000000" font-family="sans-serif" font-size="14" lengthAdjust="spacing" textLength="88.4434" x="562.9824" y="1031.7451">API Gateway</text></g><g class="participant participant-head" data-entity-uid="part4" data-qualified-name="CS" data-source-line="9" id="part4-head"><rect fill="#E2E2F0" height="30.2969" rx="2.5" ry="2.5" style="stroke:#181818;stroke-width:0.5;" width="119.0684" x="957.709" y="89.5938"/><text fill="#000000" font-family="sans-serif" font-size="14" lengthAdjust="spacing" textLength="105.0684" x="964.709" y="109.5889">Course Service</text></g><g class="participant participant-tail" data-entity-uid="part4" data-qualified-name="CS" data-source-line="9" id="part4-tail"><rect fill="#E2E2F0" height="30.2969" rx="2.5" ry="2.5" style="stroke:#181818;stroke-width:0.5;" width="119.0684" x="957.709" y="1011.75"/><text fill="#000000" font-family="sans-serif" font-size="14" lengthAdjust="spacing" textLength="105.0684" x="964.709" y="1031.7451">Course Service</text></g><g class="participant participant-head" data-entity-uid="part5" data-qualified-name="PG" data-source-line="10" id="part5-head"><text fill="#000000" font-family="sans-serif" font-size="14" lengthAdjust="spacing" textLength="80.7529" x="1368.2568" y="101.292">PostgreSQL</text><text fill="#000000" font-family="sans-serif" font-size="14" lengthAdjust="spacing" textLength="115.7871" x="1350.7397" y="117.5889">schema_courses</text><path d="M1393.6333,52.2969 C1393.6333,42.2969 1411.6333,42.2969 1411.6333,42.2969 C1411.6333,42.2969 1429.6333,42.2969 1429.6333,52.2969 L1429.6333,78.2969 C1429.6333,88.2969 1411.6333,88.2969 1411.6333,88.2969 C1411.6333,88.2969 1393.6333,88.2969 1393.6333,78.2969 L1393.6333,52.2969" fill="#E2E2F0" style="stroke:#181818;stroke-width:0.5;"/><path d="M1393.6333,52.2969 C1393.6333,62.2969 1411.6333,62.2969 1411.6333,62.2969 C1411.6333,62.2969 1429.6333,62.2969 1429.6333,52.2969" fill="none" style="stroke:#181818;stroke-width:0.5;"/></g><g class="participant participant-tail" data-entity-uid="part5" data-qualified-name="PG" data-source-line="10" id="part5-tail"><text fill="#000000" font-family="sans-serif" font-size="14" lengthAdjust="spacing" textLength="80.7529" x="1368.2568" y="1024.7451">PostgreSQL</text><text fill="#000000" font-family="sans-serif" font-size="14" lengthAdjust="spacing" textLength="115.7871" x="1350.7397" y="1041.042">schema_courses</text><path d="M1393.6333,1054.3438 C1393.6333,1044.3438 1411.6333,1044.3438 1411.6333,1044.3438 C1411.6333,1044.3438 1429.6333,1044.3438 1429.6333,1054.3438 L1429.6333,1080.3438 C1429.6333,1090.3438 1411.6333,1090.3438 1411.6333,1090.3438 C1411.6333,1090.3438 1393.6333,1090.3438 1393.6333,1080.3438 L1393.6333,1054.3438" fill="#E2E2F0" style="stroke:#181818;stroke-width:0.5;"/><path d="M1393.6333,1054.3438 C1393.6333,1064.3438 1411.6333,1064.3438 1411.6333,1064.3438 C1411.6333,1064.3438 1429.6333,1064.3438 1429.6333,1054.3438" fill="none" style="stroke:#181818;stroke-width:0.5;"/></g><g class="participant participant-head" data-entity-uid="part6" data-qualified-name="RD" data-source-line="11" id="part6-head"><text fill="#000000" font-family="sans-serif" font-size="14" lengthAdjust="spacing" textLength="43.5381" x="1509.645" y="101.292">Cache</text><text fill="#000000" font-family="sans-serif" font-size="14" lengthAdjust="spacing" textLength="97.7744" x="1482.5269" y="117.5889">(Cache-Aside)</text><path d="M1516.4141,52.2969 C1516.4141,42.2969 1534.4141,42.2969 1534.4141,42.2969 C1534.4141,42.2969 1552.4141,42.2969 1552.4141,52.2969 L1552.4141,78.2969 C1552.4141,88.2969 1534.4141,88.2969 1534.4141,88.2969 C1534.4141,88.2969 1516.4141,88.2969 1516.4141,78.2969 L1516.4141,52.2969" fill="#E2E2F0" style="stroke:#181818;stroke-width:0.5;"/><path d="M1516.4141,52.2969 C1516.4141,62.2969 1534.4141,62.2969 1534.4141,62.2969 C1534.4141,62.2969 1552.4141,62.2969 1552.4141,52.2969" fill="none" style="stroke:#181818;stroke-width:0.5;"/></g><g class="participant participant-tail" data-entity-uid="part6" data-qualified-name="RD" data-source-line="11" id="part6-tail"><text fill="#000000" font-family="sans-serif" font-size="14" lengthAdjust="spacing" textLength="43.5381" x="1509.645" y="1024.7451">Cache</text><text fill="#000000" font-family="sans-serif" font-size="14" lengthAdjust="spacing" textLength="97.7744" x="1482.5269" y="1041.042">(Cache-Aside)</text><path d="M1516.4141,1054.3438 C1516.4141,1044.3438 1534.4141,1044.3438 1534.4141,1044.3438 C1534.4141,1044.3438 1552.4141,1044.3438 1552.4141,1054.3438 L1552.4141,1080.3438 C1552.4141,1090.3438 1534.4141,1090.3438 1534.4141,1090.3438 C1534.4141,1090.3438 1516.4141,1090.3438 1516.4141,1080.3438 L1516.4141,1054.3438" fill="#E2E2F0" style="stroke:#181818;stroke-width:0.5;"/><path d="M1516.4141,1054.3438 C1516.4141,1064.3438 1534.4141,1064.3438 1534.4141,1064.3438 C1534.4141,1064.3438 1552.4141,1064.3438 1552.4141,1054.3438" fill="none" style="stroke:#181818;stroke-width:0.5;"/></g><g><title>Course Service</title><rect fill="#FFFFFF" height="720.0625" style="stroke:#181818;stroke-width:1;" width="10" x="1012.2432" y="282.6875"/></g><g class="message" data-entity-1="part1" data-entity-2="part2" data-source-line="13" id="msg1"><polygon fill="#181818" points="275.1304,163.1563,285.1304,167.1563,275.1304,171.1563,279.1304,167.1563" style="stroke:#181818;stroke-width:1;"/><line style="stroke:#181818;stroke-width:2;" x1="62.3159" x2="281.1304" y1="167.1563" y2="167.1563"/><text fill="#000000" font-family="sans-serif" font-size="13" lengthAdjust="spacing" textLength="136.1128" x="69.3159" y="146.9575">Modifica umbral=75,</text><text fill="#000000" font-family="sans-serif" font-size="13" lengthAdjust="spacing" textLength="141.6099" x="69.3159" y="162.0903">selecciona materiales</text></g><g class="message" data-entity-1="part2" data-entity-2="part3" data-source-line="14" id="msg2"><polygon fill="#181818" points="595.2041,207.4219,605.2041,211.4219,595.2041,215.4219,599.2041,211.4219" style="stroke:#181818;stroke-width:1;"/><line style="stroke:#181818;stroke-width:2;" x1="287.1304" x2="601.2041" y1="211.4219" y2="211.4219"/><text fill="#000000" font-family="sans-serif" font-size="13" lengthAdjust="spacing" textLength="286.6221" x="294.1304" y="191.2231">PUT /api/v1/courses/{id}/lessons/{lid}/rules</text><text fill="#000000" font-family="sans-serif" font-size="13" lengthAdjust="spacing" textLength="296.0737" x="294.1304" y="206.356">{umbral: 75, refuerzoIds, avanzadoId} + JWT</text></g><g class="message" data-entity-1="part3" data-entity-2="part3" data-source-line="15" id="msg3"><line style="stroke:#181818;stroke-width:2;" x1="607.2041" x2="649.2041" y1="240.5547" y2="240.5547"/><line style="stroke:#181818;stroke-width:2;" x1="649.2041" x2="649.2041" y1="240.5547" y2="253.5547"/><line style="stroke:#181818;stroke-width:2;" x1="608.2041" x2="649.2041" y1="253.5547" y2="253.5547"/><polygon fill="#181818" points="618.2041,249.5547,608.2041,253.5547,618.2041,257.5547,614.2041,253.5547" style="stroke:#181818;stroke-width:1;"/><text fill="#000000" font-family="sans-serif" font-size="13" lengthAdjust="spacing" textLength="235.0347" x="614.2041" y="235.4888">Valida JWT, verifica rol INSTRUCTOR</text></g><g class="message" data-entity-1="part3" data-entity-2="part4" data-source-line="16" id="msg4"><polygon fill="#181818" points="1000.2432,278.6875,1010.2432,282.6875,1000.2432,286.6875,1004.2432,282.6875" style="stroke:#181818;stroke-width:1;"/><line style="stroke:#181818;stroke-width:2;" x1="607.2041" x2="1006.2432" y1="282.6875" y2="282.6875"/><text fill="#000000" font-family="sans-serif" font-size="13" lengthAdjust="spacing" textLength="386.0391" x="614.2041" y="277.6216">PUT /lessons/{lid}/rules {umbral, refuerzoIds, avanzadoId}</text></g><g class="message" data-entity-1="part4" data-entity-2="part5" data-source-line="19" id="msg5"><polygon fill="#181818" points="1399.6333,307.8203,1409.6333,311.8203,1399.6333,315.8203,1403.6333,311.8203" style="stroke:#181818;stroke-width:1;"/><line style="stroke:#181818;stroke-width:2;" x1="1022.2432" x2="1405.6333" y1="311.8203" y2="311.8203"/><text fill="#000000" font-family="sans-serif" font-size="13" lengthAdjust="spacing" textLength="365.3901" x="1029.2432" y="306.7544">SELECT instructor_id FROM courses WHERE id=courseId</text></g><g class="message" data-entity-1="part5" data-entity-2="part4" data-source-line="20" id="msg6"><polygon fill="#181818" points="1033.2432,336.9531,1023.2432,340.9531,1033.2432,344.9531,1029.2432,340.9531" style="stroke:#181818;stroke-width:1;"/><line style="stroke:#181818;stroke-width:2;stroke-dasharray:2,2;" x1="1027.2432" x2="1410.6333" y1="340.9531" y2="340.9531"/><text fill="#000000" font-family="sans-serif" font-size="13" lengthAdjust="spacing" textLength="91.4761" x="1039.2432" y="335.8872">{instructorId}</text></g><g class="message" data-entity-1="part4" data-entity-2="part4" data-source-line="21" id="msg7"><line style="stroke:#181818;stroke-width:2;" x1="1022.2432" x2="1064.2432" y1="370.0859" y2="370.0859"/><line style="stroke:#181818;stroke-width:2;" x1="1064.2432" x2="1064.2432" y1="370.0859" y2="383.0859"/><line style="stroke:#181818;stroke-width:2;" x1="1023.2432" x2="1064.2432" y1="383.0859" y2="383.0859"/><polygon fill="#181818" points="1033.2432,379.0859,1023.2432,383.0859,1033.2432,387.0859,1029.2432,383.0859" style="stroke:#181818;stroke-width:1;"/><text fill="#000000" font-family="sans-serif" font-size="13" lengthAdjust="spacing" textLength="217.2104" x="1029.2432" y="365.02">Verifica ownership (token vs. BD)</text></g><path d="M10,398.0859 L74.4429,398.0859 L74.4429,405.2188 L64.4429,415.2188 L10,415.2188 L10,398.0859" fill="#EEEEEE" style="stroke:#000000;stroke-width:1.5;"/><rect fill="none" height="597.6641" style="stroke:#000000;stroke-width:1.5;" width="1654.1958" x="10" y="398.0859"/><text fill="#000000" font-family="sans-serif" font-size="13" font-weight="700" lengthAdjust="spacing" textLength="19.4429" x="25" y="411.1528">alt</text><text fill="#000000" font-family="sans-serif" font-size="11" font-weight="700" lengthAdjust="spacing" textLength="117.5679" x="89.4429" y="410.2964">[Ownership valida]</text><g class="message" data-entity-1="part4" data-entity-2="part5" data-source-line="24" id="msg8"><polygon fill="#181818" points="1399.6333,447.4844,1409.6333,451.4844,1399.6333,455.4844,1403.6333,451.4844" style="stroke:#181818;stroke-width:1;"/><line style="stroke:#181818;stroke-width:2;" x1="1022.2432" x2="1405.6333" y1="451.4844" y2="451.4844"/><text fill="#000000" font-family="sans-serif" font-size="13" lengthAdjust="spacing" textLength="222.1489" x="1029.2432" y="431.2856">SELECT id FROM course_materials</text><text fill="#000000" font-family="sans-serif" font-size="13" lengthAdjust="spacing" textLength="252.4019" x="1029.2432" y="446.4185">WHERE id IN (refuerzoIds, avanzadoId)</text></g><g class="message" data-entity-1="part5" data-entity-2="part4" data-source-line="25" id="msg9"><polygon fill="#181818" points="1033.2432,476.6172,1023.2432,480.6172,1033.2432,484.6172,1029.2432,480.6172" style="stroke:#181818;stroke-width:1;"/><line style="stroke:#181818;stroke-width:2;stroke-dasharray:2,2;" x1="1027.2432" x2="1410.6333" y1="480.6172" y2="480.6172"/><text fill="#000000" font-family="sans-serif" font-size="13" lengthAdjust="spacing" textLength="113.877" x="1039.2432" y="475.5513">[ids encontrados]</text></g><path d="M20,495.6172 L84.4429,495.6172 L84.4429,502.75 L74.4429,512.75 L20,512.75 L20,495.6172" fill="#EEEEEE" style="stroke:#000000;stroke-width:1.5;"/><rect fill="none" height="390.9297" style="stroke:#000000;stroke-width:1.5;" width="1634.1958" x="20" y="495.6172"/><text fill="#000000" font-family="sans-serif" font-size="13" font-weight="700" lengthAdjust="spacing" textLength="19.4429" x="35" y="508.6841">alt</text><text fill="#000000" font-family="sans-serif" font-size="11" font-weight="700" lengthAdjust="spacing" textLength="187.8809" x="99.4429" y="507.8276">[Todos los materiales existen]</text><g class="message" data-entity-1="part4" data-entity-2="part5" data-source-line="28" id="msg10"><polygon fill="#181818" points="1399.6333,560.1484,1409.6333,564.1484,1399.6333,568.1484,1403.6333,564.1484" style="stroke:#181818;stroke-width:1;"/><line style="stroke:#181818;stroke-width:2;" x1="1022.2432" x2="1405.6333" y1="564.1484" y2="564.1484"/><text fill="#000000" font-family="sans-serif" font-size="13" lengthAdjust="spacing" textLength="165.4136" x="1029.2432" y="528.8169">UPDATE adaptation_rules</text><text fill="#000000" font-family="sans-serif" font-size="13" lengthAdjust="spacing" textLength="213.021" x="1029.2432" y="543.9497">SET umbral=75, refuerzo_ids=...</text><text fill="#000000" font-family="sans-serif" font-size="13" lengthAdjust="spacing" textLength="176.2617" x="1029.2432" y="559.0825">WHERE lesson_id=lessonId</text></g><g class="message" data-entity-1="part5" data-entity-2="part4" data-source-line="29" id="msg11"><polygon fill="#181818" points="1033.2432,589.2813,1023.2432,593.2813,1033.2432,597.2813,1029.2432,593.2813" style="stroke:#181818;stroke-width:1;"/><line style="stroke:#181818;stroke-width:2;stroke-dasharray:2,2;" x1="1027.2432" x2="1410.6333" y1="593.2813" y2="593.2813"/><text fill="#000000" font-family="sans-serif" font-size="13" lengthAdjust="spacing" textLength="18.7573" x="1039.2432" y="588.2153">OK</text></g><path d="M1424,606.2813 L1424,676.2813 L1644,676.2813 L1644,616.2813 L1634,606.2813 L1424,606.2813" fill="#FEFFDD" style="stroke:#181818;stroke-width:0.5;"/><path d="M1634,606.2813 L1634,616.2813 L1644,616.2813 L1634,606.2813" fill="#FEFFDD" style="stroke:#181818;stroke-width:0.5;"/><text fill="#000000" font-family="sans-serif" font-size="13" lengthAdjust="spacing" textLength="199.1958" x="1430" y="623.3481">NO se invalida explicitamente.</text><text fill="#000000" font-family="sans-serif" font-size="13" lengthAdjust="spacing" textLength="192.6704" x="1430" y="638.481">El TTL natural (60s) garantiza</text><text fill="#000000" font-family="sans-serif" font-size="13" lengthAdjust="spacing" textLength="172.377" x="1430" y="653.6138">que la proxima evaluacion</text><text fill="#000000" font-family="sans-serif" font-size="13" lengthAdjust="spacing" textLength="150.6299" x="1430" y="668.7466">usara el nuevo umbral.</text><g class="message" data-entity-1="part4" data-entity-2="part3" data-source-line="33" id="msg12"><polygon fill="#181818" points="618.2041,698.9453,608.2041,702.9453,618.2041,706.9453,614.2041,702.9453" style="stroke:#181818;stroke-width:1;"/><line style="stroke:#181818;stroke-width:2;stroke-dasharray:2,2;" x1="612.2041" x2="1011.2432" y1="702.9453" y2="702.9453"/><text fill="#000000" font-family="sans-serif" font-size="13" lengthAdjust="spacing" textLength="379.8247" x="624.2041" y="697.8794">HTTP 200 {message: "Actualizado", cacheExpiry: "&#8804;60s"}</text></g><g class="message" data-entity-1="part3" data-entity-2="part2" data-source-line="34" id="msg13"><polygon fill="#181818" points="298.1304,728.0781,288.1304,732.0781,298.1304,736.0781,294.1304,732.0781" style="stroke:#181818;stroke-width:1;"/><line style="stroke:#181818;stroke-width:2;stroke-dasharray:2,2;" x1="292.1304" x2="606.2041" y1="732.0781" y2="732.0781"/><text fill="#000000" font-family="sans-serif" font-size="13" lengthAdjust="spacing" textLength="62.4419" x="304.1304" y="727.0122">HTTP 200</text></g><g class="message" data-entity-1="part2" data-entity-2="part1" data-source-line="35" id="msg14"><polygon fill="#181818" points="73.3159,772.3438,63.3159,776.3438,73.3159,780.3438,69.3159,776.3438" style="stroke:#181818;stroke-width:1;"/><line style="stroke:#181818;stroke-width:2;stroke-dasharray:2,2;" x1="67.3159" x2="286.1304" y1="776.3438" y2="776.3438"/><text fill="#000000" font-family="sans-serif" font-size="13" lengthAdjust="spacing" textLength="139.5405" x="79.3159" y="756.145">"Cambios guardados.</text><text fill="#000000" font-family="sans-serif" font-size="13" lengthAdjust="spacing" textLength="173.7798" x="79.3159" y="771.2778">Efecto en &#8804; 60 segundos."</text></g><line style="stroke:#000000;stroke-width:1;stroke-dasharray:2,2;" x1="20" x2="1654.1958" y1="785.3438" y2="785.3438"/><text fill="#000000" font-family="sans-serif" font-size="11" font-weight="700" lengthAdjust="spacing" textLength="122.1709" x="25" y="795.5542">[Material no existe]</text><g class="message" data-entity-1="part4" data-entity-2="part3" data-source-line="38" id="msg15"><polygon fill="#181818" points="618.2041,816.2813,608.2041,820.2813,618.2041,824.2813,614.2041,820.2813" style="stroke:#181818;stroke-width:1;"/><line style="stroke:#181818;stroke-width:2;stroke-dasharray:2,2;" x1="612.2041" x2="1011.2432" y1="820.2813" y2="820.2813"/><text fill="#000000" font-family="sans-serif" font-size="13" lengthAdjust="spacing" textLength="283.0293" x="624.2041" y="815.2153">HTTP 422 {error: "Material ID X no existe"}</text></g><g class="message" data-entity-1="part3" data-entity-2="part2" data-source-line="39" id="msg16"><polygon fill="#181818" points="298.1304,845.4141,288.1304,849.4141,298.1304,853.4141,294.1304,849.4141" style="stroke:#181818;stroke-width:1;"/><line style="stroke:#181818;stroke-width:2;stroke-dasharray:2,2;" x1="292.1304" x2="606.2041" y1="849.4141" y2="849.4141"/><text fill="#000000" font-family="sans-serif" font-size="13" lengthAdjust="spacing" textLength="62.4419" x="304.1304" y="844.3481">HTTP 422</text></g><g class="message" data-entity-1="part2" data-entity-2="part1" data-source-line="40" id="msg17"><polygon fill="#181818" points="73.3159,874.5469,63.3159,878.5469,73.3159,882.5469,69.3159,878.5469" style="stroke:#181818;stroke-width:1;"/><line style="stroke:#181818;stroke-width:2;stroke-dasharray:2,2;" x1="67.3159" x2="286.1304" y1="878.5469" y2="878.5469"/><text fill="#000000" font-family="sans-serif" font-size="13" lengthAdjust="spacing" textLength="139.2295" x="79.3159" y="873.481">Muestra IDs invalidos</text></g><line style="stroke:#000000;stroke-width:1;stroke-dasharray:2,2;" x1="10" x2="1664.1958" y1="894.5469" y2="894.5469"/><text fill="#000000" font-family="sans-serif" font-size="11" font-weight="700" lengthAdjust="spacing" textLength="90.0518" x="15" y="904.7573">[Sin permisos]</text><g class="message" data-entity-1="part4" data-entity-2="part3" data-source-line="44" id="msg18"><polygon fill="#181818" points="618.2041,925.4844,608.2041,929.4844,618.2041,933.4844,614.2041,929.4844" style="stroke:#181818;stroke-width:1;"/><line style="stroke:#181818;stroke-width:2;stroke-dasharray:2,2;" x1="612.2041" x2="1011.2432" y1="929.4844" y2="929.4844"/><text fill="#000000" font-family="sans-serif" font-size="13" lengthAdjust="spacing" textLength="62.4419" x="624.2041" y="924.4185">HTTP 403</text></g><g class="message" data-entity-1="part3" data-entity-2="part2" data-source-line="45" id="msg19"><polygon fill="#181818" points="298.1304,954.6172,288.1304,958.6172,298.1304,962.6172,294.1304,958.6172" style="stroke:#181818;stroke-width:1;"/><line style="stroke:#181818;stroke-width:2;stroke-dasharray:2,2;" x1="292.1304" x2="606.2041" y1="958.6172" y2="958.6172"/><text fill="#000000" font-family="sans-serif" font-size="13" lengthAdjust="spacing" textLength="62.4419" x="304.1304" y="953.5513">HTTP 403</text></g><g class="message" data-entity-1="part2" data-entity-2="part1" data-source-line="46" id="msg20"><polygon fill="#181818" points="73.3159,983.75,63.3159,987.75,73.3159,991.75,69.3159,987.75" style="stroke:#181818;stroke-width:1;"/><line style="stroke:#181818;stroke-width:2;stroke-dasharray:2,2;" x1="67.3159" x2="286.1304" y1="987.75" y2="987.75"/><text fill="#000000" font-family="sans-serif" font-size="13" lengthAdjust="spacing" textLength="200.8145" x="79.3159" y="982.6841">"Sin permisos para este curso"</text></g><?plantuml-src TLJjRY8t5FtlfxYYVuYQ0CrsKmafbUWmoz8c2mkJKAbKaPbn9bPcxAdj8TcWFC2-npvPdwJ7Xab8Dn52ODzxppttuzX9LmYQHqUzTtsAjBgMUMruAhMYJD1Cv0Mt_jyWuvNRthTdTI4inIgNIXmmPc-bghZX9LdnJorKAWR6wBlaHgQtIbXBntikAvxUvaRNAejqeGtzy67WFupnrE7O6kfKA2TQXBJ3ISGGvMGgAwuSjHPYHL4XuH3iY_-P1zCnZRWJT_nBi8yMB-sHher5iSAiPRfD4SrPnXrVSTotfjgwt8ZvvxEbikcDAFbL6a9iy9sEzdmZ3eUbQeVVeu6LcJW8NhCXOo1EHx-27_NfN6VoMgQSwd9bU77wo_j3e8j2fBwPd4eGDfAZesmHeaOBH4ql4khoIdRNFtLt7BeRcJrsuMUrmg7m9-CdiLIRBNQV04v6NDV2FEXnPW-9hxbwu1aEZ_GZ_Rv86E2R99SS8DpV7j8Q909DemiQVvediuiecSnsxj6yuVHAVjgbVpkr7wvSer3VRmOmG4v7W9p7Pt6Ka5JMcTelm9NCwCDiSawxecdnCPx59BFJxSKuOmWyQYXjdYDzcYroi5mszUWx9OozaHMrdRuLYjQsGxyDiRUyS3Hvigv3CnZHA_HUSBfg9eR6D-pGCMg_KVq1CFSv_oKpIr29Lix0mVxDuE2v91edAl1ztWaIzz8weU3oWjd5T3X8Ok91bGwBTBLRXNcSx6tQqqJGLtlQwNGQojinulPq-mzzzHdsUKx-OE5EQSnDOp-mshZ-D87CCR5jly2lAY0mnqilM-371IN96Idky8uKr3xfsGFAeNtbv0DVAhmGL72gZBwN9UA1KuTtPQbg2pSI1QbQhFMkZ0vxghtPsuz9CgNZNeys9SZpNFIX_TJLOEHRtZgarAiolg-a-GBRlr-_WKNhCG3vXMwqsG05WrSV35wxVQ_lSYKnYhpc9lDZygLT2smQPaT0f9CU6f7Z8OEjvKcA0eqvtuqERTlDxdNwFnyVqqRWdJH8zXGq7jAVpv5lCKRizupFQm4fS43OPZhQUbOgOonGcqj5bJ2bjC7mFQNUE_PQjd3ziZlxK5I5gO4lfT27Rh6GCXDxelyF?></g></svg>