<svg xmlns="http://www.w3.org/2000/svg" xmlns:xlink="http://www.w3.org/1999/xlink" contentStyleType="text/css" data-diagram-type="SEQUENCE" height="1062px" preserveAspectRatio="none" style="width:1296px;height:1062px;background:#FAFAFA;" version="1.1" viewBox="0 0 1296 1062" width="1296px" zoomAndPan="magnify"><?plantuml 1.2026.3beta5?><defs/><g><rect fill="#FAFAFA" height="1062" style="stroke:none;stroke-width:1;" width="1296" x="0" y="0"/><g class="title" data-source-line="1"><text fill="#000000" font-family="sans-serif" font-size="14" font-weight="700" lengthAdjust="spacing" textLength="427.7998" x="430.9507" y="27.9951">SC-04: Circuit Breaker ante Falla del Analytics Service</text></g><g class="participant-lifeline" data-entity-uid="part1" data-qualified-name="STU" data-source-line="6" id="part1-lifeline"><g><title>Estudiante</title><rect fill="#000000" fill-opacity="0.00000" height="861.1172" width="8" x="41.4165" y="118.5938"/><line style="stroke:#181818;stroke-width:0.5;stroke-dasharray:5,5;" x1="45" x2="45" y1="118.5938" y2="979.7109"/></g></g><g class="participant-lifeline" data-entity-uid="part2" data-qualified-name="WC" data-source-line="7" id="part2-lifeline"><g><title>Web Client</title><rect fill="#000000" fill-opacity="0.00000" height="861.1172" width="8" x="281.5796" y="118.5938"/><line style="stroke:#181818;stroke-width:0.5;stroke-dasharray:5,5;" x1="285.418" x2="285.418" y1="118.5938" y2="979.7109"/></g></g><g class="participant-lifeline" data-entity-uid="part3" data-qualified-name="GW" data-source-line="8" id="part3-lifeline"><g><title>API Gateway</title><rect fill="#000000" fill-opacity="0.00000" height="861.1172" width="8" x="560.8633" y="118.5938"/><line style="stroke:#181818;stroke-width:0.5;stroke-dasharray:5,5;" x1="563.9082" x2="563.9082" y1="118.5938" y2="979.7109"/></g></g><g class="participant-lifeline" data-entity-uid="part4" data-qualified-name="ANS" data-source-line="9" id="part4-lifeline"><g><title>Analytics Service</title><rect fill="#000000" fill-opacity="0.00000" height="861.1172" width="8" x="736.0771" y="118.5938"/><line style="stroke:#181818;stroke-width:0.5;stroke-dasharray:5,5;" x1="739.1943" x2="739.1943" y1="118.5938" y2="979.7109"/></g></g><g class="participant-lifeline" data-entity-uid="part5" data-qualified-name="AS" data-source-line="10" id="part5-lifeline"><g><title>Assessment Service</title><rect fill="#000000" fill-opacity="0.00000" height="861.1172" width="8" x="890.0454" y="118.5938"/><line style="stroke:#181818;stroke-width:0.5;stroke-dasharray:5,5;" x1="893.96" x2="893.96" y1="118.5938" y2="979.7109"/></g></g><g class="participant-lifeline" data-entity-uid="part6" data-qualified-name="MQ" data-source-line="11" id="part6-lifeline"><g><title>Broker</title><rect fill="#000000" fill-opacity="0.00000" height="861.1172" width="8" x="1173.2012" y="118.5938"/><line style="stroke:#181818;stroke-width:0.5;stroke-dasharray:5,5;" x1="1176.915" x2="1176.915" y1="118.5938" y2="979.7109"/></g></g><g class="participant participant-head" data-entity-uid="part1" data-qualified-name="STU" data-source-line="6" id="part1-head"><text fill="#000000" font-family="sans-serif" font-size="14" lengthAdjust="spacing" textLength="74.833" x="5" y="115.292">Estudiante</text><ellipse cx="45.4165" cy="50.7969" fill="#E2E2F0" rx="8" ry="8" style="stroke:#181818;stroke-width:0.5;"/><path d="M45.4165,58.7969 L45.4165,85.7969 M32.4165,66.7969 L58.4165,66.7969 M45.4165,85.7969 L32.4165,100.7969 M45.4165,85.7969 L58.4165,100.7969" fill="none" style="stroke:#181818;stroke-width:0.5;"/></g><g class="participant participant-tail" data-entity-uid="part1" data-qualified-name="STU" data-source-line="6" id="part1-tail"><text fill="#000000" font-family="sans-serif" font-size="14" lengthAdjust="spacing" textLength="74.833" x="5" y="991.7061">Estudiante</text><ellipse cx="45.4165" cy="1003.5078" fill="#E2E2F0" rx="8" ry="8" style="stroke:#181818;stroke-width:0.5;"/><path d="M45.4165,1011.5078 L45.4165,1038.5078 M32.4165,1019.5078 L58.4165,1019.5078 M45.4165,1038.5078 L32.4165,1053.5078 M45.4165,1038.5078 L58.4165,1053.5078" fill="none" style="stroke:#181818;stroke-width:0.5;"/></g><g class="participant participant-head" data-entity-uid="part2" data-qualified-name="WC" data-source-line="7" id="part2-head"><rect fill="#E2E2F0" height="30.2969" rx="2.5" ry="2.5" style="stroke:#181818;stroke-width:0.5;" width="90.3232" x="240.418" y="87.2969"/><text fill="#000000" font-family="sans-serif" font-size="14" lengthAdjust="spacing" textLength="76.3232" x="247.418" y="107.292">Web Client</text></g><g class="participant participant-tail" data-entity-uid="part2" data-qualified-name="WC" data-source-line="7" id="part2-tail"><rect fill="#E2E2F0" height="30.2969" rx="2.5" ry="2.5" style="stroke:#181818;stroke-width:0.5;" width="90.3232" x="240.418" y="978.7109"/><text fill="#000000" font-family="sans-serif" font-size="14" lengthAdjust="spacing" textLength="76.3232" x="247.418" y="998.7061">Web Client</text></g><g class="participant participant-head" data-entity-uid="part3" data-qualified-name="GW" data-source-line="8" id="part3-head"><rect fill="#E2E2F0" height="46.5938" rx="2.5" ry="2.5" style="stroke:#181818;stroke-width:0.5;" width="185.9102" x="471.9082" y="71"/><text fill="#000000" font-family="sans-serif" font-size="14" lengthAdjust="spacing" textLength="88.4434" x="520.6416" y="90.9951">API Gateway</text><text fill="#000000" font-family="sans-serif" font-size="14" lengthAdjust="spacing" textLength="171.9102" x="478.9082" y="107.292">(Kong + Circuit Breaker)</text></g><g class="participant participant-tail" data-entity-uid="part3" data-qualified-name="GW" data-source-line="8" id="part3-tail"><rect fill="#E2E2F0" height="46.5938" rx="2.5" ry="2.5" style="stroke:#181818;stroke-width:0.5;" width="185.9102" x="471.9082" y="978.7109"/><text fill="#000000" font-family="sans-serif" font-size="14" lengthAdjust="spacing" textLength="88.4434" x="520.6416" y="998.7061">API Gateway</text><text fill="#000000" font-family="sans-serif" font-size="14" lengthAdjust="spacing" textLength="171.9102" x="478.9082" y="1015.0029">(Kong + Circuit Breaker)</text></g><g class="participant participant-head" data-entity-uid="part4" data-qualified-name="ANS" data-source-line="9" id="part4-head"><rect fill="#E2E2F0" height="46.5938" rx="2.5" ry="2.5" style="stroke:#181818;stroke-width:0.5;" width="133.7656" x="673.1943" y="71"/><text fill="#000000" font-family="sans-serif" font-size="14" lengthAdjust="spacing" textLength="119.7656" x="680.1943" y="90.9951">Analytics Service</text><text fill="#000000" font-family="sans-serif" font-size="14" lengthAdjust="spacing" textLength="102.8604" x="688.647" y="107.292">[DEGRADADO]</text></g><g class="participant participant-tail" data-entity-uid="part4" data-qualified-name="ANS" data-source-line="9" id="part4-tail"><rect fill="#E2E2F0" height="46.5938" rx="2.5" ry="2.5" style="stroke:#181818;stroke-width:0.5;" width="133.7656" x="673.1943" y="978.7109"/><text fill="#000000" font-family="sans-serif" font-size="14" lengthAdjust="spacing" textLength="119.7656" x="680.1943" y="998.7061">Analytics Service</text><text fill="#000000" font-family="sans-serif" font-size="14" lengthAdjust="spacing" textLength="102.8604" x="688.647" y="1015.0029">[DEGRADADO]</text></g><g class="participant participant-head" data-entity-uid="part5" data-qualified-name="AS" data-source-line="10" id="part5-head"><rect fill="#E2E2F0" height="46.5938" rx="2.5" ry="2.5" style="stroke:#181818;stroke-width:0.5;" width="154.1709" x="816.96" y="71"/><text fill="#000000" font-family="sans-serif" font-size="14" lengthAdjust="spacing" textLength="140.1709" x="823.96" y="90.9951">Assessment Service</text><text fill="#000000" font-family="sans-serif" font-size="14" lengthAdjust="spacing" textLength="111.3096" x="838.3906" y="107.292">[OPERACIONAL]</text></g><g class="participant participant-tail" data-entity-uid="part5" data-qualified-name="AS" data-source-line="10" id="part5-tail"><rect fill="#E2E2F0" height="46.5938" rx="2.5" ry="2.5" style="stroke:#181818;stroke-width:0.5;" width="154.1709" x="816.96" y="978.7109"/><text fill="#000000" font-family="sans-serif" font-size="14" lengthAdjust="spacing" textLength="140.1709" x="823.96" y="998.7061">Assessment Service</text><text fill="#000000" font-family="sans-serif" font-size="14" lengthAdjust="spacing" textLength="111.3096" x="838.3906" y="1015.0029">[OPERACIONAL]</text></g><g class="participant participant-head" data-entity-uid="part6" data-qualified-name="MQ" data-source-line="11" id="part6-head"><path d="M1104.915,76 L1249.4873,76 C1254.4873,76 1254.4873,97.2969 1254.4873,97.2969 C1254.4873,97.2969 1254.4873,118.5938 1249.4873,118.5938 L1104.915,118.5938 C1099.915,118.5938 1099.915,97.2969 1099.915,97.2969 C1099.915,97.2969 1099.915,76 1104.915,76" fill="#E2E2F0" style="stroke:#181818;stroke-width:0.5;"/><path d="M1249.4873,76 C1244.4873,76 1244.4873,97.2969 1244.4873,97.2969 C1244.4873,118.5938 1249.4873,118.5938 1249.4873,118.5938" fill="none" style="stroke:#181818;stroke-width:0.5;"/><text fill="#000000" font-family="sans-serif" font-size="14" lengthAdjust="spacing" textLength="46.4023" x="1149" y="93.9951">Broker</text><text fill="#000000" font-family="sans-serif" font-size="14" lengthAdjust="spacing" textLength="134.5723" x="1104.915" y="110.292">(Publish/Subscribe)</text></g><g class="participant participant-tail" data-entity-uid="part6" data-qualified-name="MQ" data-source-line="11" id="part6-tail"><path d="M1104.915,978.7109 L1249.4873,978.7109 C1254.4873,978.7109 1254.4873,1000.0078 1254.4873,1000.0078 C1254.4873,1000.0078 1254.4873,1021.3047 1249.4873,1021.3047 L1104.915,1021.3047 C1099.915,1021.3047 1099.915,1000.0078 1099.915,1000.0078 C1099.915,1000.0078 1099.915,978.7109 1104.915,978.7109" fill="#E2E2F0" style="stroke:#181818;stroke-width:0.5;"/><path d="M1249.4873,978.7109 C1244.4873,978.7109 1244.4873,1000.0078 1244.4873,1000.0078 C1244.4873,1021.3047 1249.4873,1021.3047 1249.4873,1021.3047" fill="none" style="stroke:#181818;stroke-width:0.5;"/><text fill="#000000" font-family="sans-serif" font-size="14" lengthAdjust="spacing" textLength="46.4023" x="1149" y="996.7061">Broker</text><text fill="#000000" font-family="sans-serif" font-size="14" lengthAdjust="spacing" textLength="134.5723" x="1104.915" y="1013.0029">(Publish/Subscribe)</text></g><path d="M650,133.5938 L650,173.5938 L829,173.5938 L829,143.5938 L819,133.5938 L650,133.5938" fill="#FEFFDD" style="stroke:#181818;stroke-width:0.5;"/><path d="M819,133.5938 L819,143.5938 L829,143.5938 L819,133.5938" fill="#FEFFDD" style="stroke:#181818;stroke-width:0.5;"/><text fill="#000000" font-family="sans-serif" font-size="13" lengthAdjust="spacing" textLength="158.6089" x="656" y="150.6606">Error rate &gt; 50% en 60s</text><text fill="#000000" font-family="sans-serif" font-size="13" lengthAdjust="spacing" textLength="115.6606" x="656" y="165.7935">Circuito: ABIERTO</text><g class="message" data-entity-1="part1" data-entity-2="part2" data-source-line="15" id="msg1"><polygon fill="#181818" points="273.5796,195.9922,283.5796,199.9922,273.5796,203.9922,277.5796,199.9922" style="stroke:#181818;stroke-width:1;"/><line style="stroke:#181818;stroke-width:2;" x1="45.4165" x2="279.5796" y1="199.9922" y2="199.9922"/><text fill="#000000" font-family="sans-serif" font-size="13" lengthAdjust="spacing" textLength="152.0454" x="52.4165" y="194.9263">Accede a "Mi Progreso"</text></g><g class="message" data-entity-1="part2" data-entity-2="part3" data-source-line="16" id="msg2"><polygon fill="#181818" points="552.8633,225.125,562.8633,229.125,552.8633,233.125,556.8633,229.125" style="stroke:#181818;stroke-width:1;"/><line style="stroke:#181818;stroke-width:2;" x1="285.5796" x2="558.8633" y1="229.125" y2="229.125"/><text fill="#000000" font-family="sans-serif" font-size="13" lengthAdjust="spacing" textLength="242.2583" x="292.5796" y="224.0591">GET /api/v1/analytics/progress + JWT</text></g><path d="M457,242.125 L457,282.125 L672,282.125 L672,252.125 L662,242.125 L457,242.125" fill="#FEFFDD" style="stroke:#181818;stroke-width:0.5;"/><path d="M662,242.125 L662,252.125 L672,252.125 L662,242.125" fill="#FEFFDD" style="stroke:#181818;stroke-width:0.5;"/><text fill="#000000" font-family="sans-serif" font-size="13" lengthAdjust="spacing" textLength="115.6606" x="463" y="259.1919">Circuito ABIERTO:</text><text fill="#000000" font-family="sans-serif" font-size="13" lengthAdjust="spacing" textLength="194.2637" x="463" y="274.3247">no enruta al Analytics Service</text><g class="message" data-entity-1="part3" data-entity-2="part2" data-source-line="18" id="msg3"><polygon fill="#181818" points="296.5796,304.5234,286.5796,308.5234,296.5796,312.5234,292.5796,308.5234" style="stroke:#181818;stroke-width:1;"/><line style="stroke:#181818;stroke-width:2;stroke-dasharray:2,2;" x1="290.5796" x2="563.8633" y1="308.5234" y2="308.5234"/><text fill="#000000" font-family="sans-serif" font-size="13" lengthAdjust="spacing" textLength="208.2476" x="302.5796" y="303.4575">HTTP 503 (fail-fast, sin latencia)</text></g><g class="message" data-entity-1="part2" data-entity-2="part1" data-source-line="19" id="msg4"><polygon fill="#181818" points="56.4165,348.7891,46.4165,352.7891,56.4165,356.7891,52.4165,352.7891" style="stroke:#181818;stroke-width:1;"/><line style="stroke:#181818;stroke-width:2;stroke-dasharray:2,2;" x1="50.4165" x2="284.5796" y1="352.7891" y2="352.7891"/><text fill="#000000" font-family="sans-serif" font-size="13" lengthAdjust="spacing" textLength="200.186" x="62.4165" y="332.5903">"Progreso no disponible ahora.</text><text fill="#000000" font-family="sans-serif" font-size="13" lengthAdjust="spacing" textLength="216.1631" x="62.4165" y="347.7231">Puede continuar con sus cursos."</text></g><path d="M487,365.7891 L487,405.7891 L817,405.7891 L817,375.7891 L807,365.7891 L487,365.7891" fill="#FEFFDD" style="stroke:#181818;stroke-width:0.5;"/><path d="M807,365.7891 L807,375.7891 L817,375.7891 L807,365.7891" fill="#FEFFDD" style="stroke:#181818;stroke-width:0.5;"/><text fill="#000000" font-family="sans-serif" font-size="13" lengthAdjust="spacing" textLength="225.9829" x="534.5344" y="382.856">Analytics Service no recibe trafico.</text><text fill="#000000" font-family="sans-serif" font-size="13" lengthAdjust="spacing" textLength="220.0542" x="534.5344" y="397.9888">Se protege durante recuperacion.</text><rect fill="#EEEEEE" height="3" style="stroke:#EEEEEE;stroke-width:1;" width="1290.7012" x="0" y="431.6211"/><line style="stroke:#000000;stroke-width:1;" x1="0" x2="1290.7012" y1="431.6211" y2="431.6211"/><line style="stroke:#000000;stroke-width:1;" x1="0" x2="1290.7012" y1="434.6211" y2="434.6211"/><rect fill="#EEEEEE" height="23.1328" style="stroke:#000000;stroke-width:2;" width="255.7314" x="517.4849" y="421.0547"/><text fill="#000000" font-family="sans-serif" font-size="13" font-weight="700" lengthAdjust="spacing" textLength="237.2056" x="523.4849" y="437.1216">Otros servicios siguen operando</text><g class="message" data-entity-1="part1" data-entity-2="part2" data-source-line="24" id="msg5"><polygon fill="#181818" points="273.5796,471.3203,283.5796,475.3203,273.5796,479.3203,277.5796,475.3203" style="stroke:#181818;stroke-width:1;"/><line style="stroke:#181818;stroke-width:2;" x1="45.4165" x2="279.5796" y1="475.3203" y2="475.3203"/><text fill="#000000" font-family="sans-serif" font-size="13" lengthAdjust="spacing" textLength="110.2842" x="52.4165" y="470.2544">Envia evaluacion</text></g><g class="message" data-entity-1="part2" data-entity-2="part3" data-source-line="25" id="msg6"><polygon fill="#181818" points="552.8633,500.4531,562.8633,504.4531,552.8633,508.4531,556.8633,504.4531" style="stroke:#181818;stroke-width:1;"/><line style="stroke:#181818;stroke-width:2;" x1="285.5796" x2="558.8633" y1="504.4531" y2="504.4531"/><text fill="#000000" font-family="sans-serif" font-size="13" lengthAdjust="spacing" textLength="255.2837" x="292.5796" y="499.3872">POST /api/v1/evaluations/submit + JWT</text></g><g class="message" data-entity-1="part3" data-entity-2="part5" data-source-line="26" id="msg7"><polygon fill="#181818" points="882.0454,529.5859,892.0454,533.5859,882.0454,537.5859,886.0454,533.5859" style="stroke:#181818;stroke-width:1;"/><line style="stroke:#181818;stroke-width:2;" x1="564.8633" x2="888.0454" y1="533.5859" y2="533.5859"/><text fill="#000000" font-family="sans-serif" font-size="13" lengthAdjust="spacing" textLength="166.9434" x="571.8633" y="528.52">POST /evaluations/submit</text></g><g class="message" data-entity-1="part5" data-entity-2="part3" data-source-line="27" id="msg8"><polygon fill="#181818" points="575.8633,558.7188,565.8633,562.7188,575.8633,566.7188,571.8633,562.7188" style="stroke:#181818;stroke-width:1;"/><line style="stroke:#181818;stroke-width:2;stroke-dasharray:2,2;" x1="569.8633" x2="893.0454" y1="562.7188" y2="562.7188"/><text fill="#000000" font-family="sans-serif" font-size="13" lengthAdjust="spacing" textLength="179.2642" x="581.8633" y="557.6528">HTTP 200 {nota, nextStep}</text></g><g class="message" data-entity-1="part5" data-entity-2="part6" data-source-line="28" id="msg9"><line style="stroke:#181818;stroke-width:2;" x1="1175.2012" x2="1165.2012" y1="591.8516" y2="587.8516"/><line style="stroke:#181818;stroke-width:2;" x1="1175.2012" x2="1165.2012" y1="591.8516" y2="595.8516"/><line style="stroke:#181818;stroke-width:2;" x1="894.0454" x2="1176.2012" y1="591.8516" y2="591.8516"/><text fill="#000000" font-family="sans-serif" font-size="13" lengthAdjust="spacing" textLength="259.1558" x="901.0454" y="586.7856">PUBLISH evaluation.completed [ASYNC]</text></g><g class="message" data-entity-1="part3" data-entity-2="part2" data-source-line="29" id="msg10"><polygon fill="#181818" points="296.5796,616.9844,286.5796,620.9844,296.5796,624.9844,292.5796,620.9844" style="stroke:#181818;stroke-width:1;"/><line style="stroke:#181818;stroke-width:2;stroke-dasharray:2,2;" x1="290.5796" x2="563.8633" y1="620.9844" y2="620.9844"/><text fill="#000000" font-family="sans-serif" font-size="13" lengthAdjust="spacing" textLength="62.4419" x="302.5796" y="615.9185">HTTP 200</text></g><g class="message" data-entity-1="part2" data-entity-2="part1" data-source-line="30" id="msg11"><polygon fill="#181818" points="56.4165,646.1172,46.4165,650.1172,56.4165,654.1172,52.4165,650.1172" style="stroke:#181818;stroke-width:1;"/><line style="stroke:#181818;stroke-width:2;stroke-dasharray:2,2;" x1="50.4165" x2="284.5796" y1="650.1172" y2="650.1172"/><text fill="#000000" font-family="sans-serif" font-size="13" lengthAdjust="spacing" textLength="190.2773" x="62.4165" y="645.0513">Nota + siguiente contenido &#9989;</text></g><path d="M1068,663.1172 L1068,718.1172 L1285,718.1172 L1285,673.1172 L1275,663.1172 L1068,663.1172" fill="#FEFFDD" style="stroke:#181818;stroke-width:0.5;"/><path d="M1275,663.1172 L1275,673.1172 L1285,673.1172 L1275,663.1172" fill="#FEFFDD" style="stroke:#181818;stroke-width:0.5;"/><text fill="#000000" font-family="sans-serif" font-size="13" lengthAdjust="spacing" textLength="190.2266" x="1074" y="680.1841">Eventos acumulados en cola.</text><text fill="#000000" font-family="sans-serif" font-size="13" lengthAdjust="spacing" textLength="168.2764" x="1074" y="695.3169">Seran procesados cuando</text><text fill="#000000" font-family="sans-serif" font-size="13" lengthAdjust="spacing" textLength="196.7012" x="1074" y="710.4497">Analytics Service se recupere.</text><rect fill="#EEEEEE" height="3" style="stroke:#EEEEEE;stroke-width:1;" width="1290.7012" x="0" y="744.082"/><line style="stroke:#000000;stroke-width:1;" x1="0" x2="1290.7012" y1="744.082" y2="744.082"/><line style="stroke:#000000;stroke-width:1;" x1="0" x2="1290.7012" y1="747.082" y2="747.082"/><rect fill="#EEEEEE" height="23.1328" style="stroke:#000000;stroke-width:2;" width="333.3887" x="478.6563" y="733.5156"/><text fill="#000000" font-family="sans-serif" font-size="13" font-weight="700" lengthAdjust="spacing" textLength="314.8628" x="484.6563" y="749.5825">Periodo de espera &#8212; Estado SEMI-ABIERTO</text><g class="message" data-entity-1="part3" data-entity-2="part4" data-source-line="35" id="msg12"><polygon fill="#181818" points="728.0771,783.7813,738.0771,787.7813,728.0771,791.7813,732.0771,787.7813" style="stroke:#181818;stroke-width:1;"/><line style="stroke:#181818;stroke-width:2;" x1="564.8633" x2="734.0771" y1="787.7813" y2="787.7813"/><text fill="#000000" font-family="sans-serif" font-size="13" lengthAdjust="spacing" textLength="122.0654" x="571.8633" y="782.7153">Peticion de prueba</text></g><g class="message" data-entity-1="part4" data-entity-2="part3" data-source-line="36" id="msg13"><polygon fill="#181818" points="575.8633,812.9141,565.8633,816.9141,575.8633,820.9141,571.8633,816.9141" style="stroke:#181818;stroke-width:1;"/><line style="stroke:#181818;stroke-width:2;stroke-dasharray:2,2;" x1="569.8633" x2="739.0771" y1="816.9141" y2="816.9141"/><text fill="#000000" font-family="sans-serif" font-size="13" lengthAdjust="spacing" textLength="151.2139" x="581.8633" y="811.8481">HTTP 200 (recuperado)</text></g><path d="M469,829.9141 L469,869.9141 L659,869.9141 L659,839.9141 L649,829.9141 L469,829.9141" fill="#FEFFDD" style="stroke:#181818;stroke-width:0.5;"/><path d="M649,829.9141 L649,839.9141 L659,839.9141 L649,829.9141" fill="#FEFFDD" style="stroke:#181818;stroke-width:0.5;"/><text fill="#000000" font-family="sans-serif" font-size="13" lengthAdjust="spacing" textLength="133.7324" x="475" y="846.981">Circuito &#8594; CERRADO</text><text fill="#000000" font-family="sans-serif" font-size="13" lengthAdjust="spacing" textLength="169.5205" x="475" y="862.1138">Trafico normal restaurado</text><g class="message" data-entity-1="part6" data-entity-2="part4" data-source-line="39" id="msg14"><line style="stroke:#181818;stroke-width:2;" x1="741.0771" x2="751.0771" y1="896.3125" y2="892.3125"/><line style="stroke:#181818;stroke-width:2;" x1="741.0771" x2="751.0771" y1="896.3125" y2="900.3125"/><line style="stroke:#181818;stroke-width:2;" x1="740.0771" x2="1176.2012" y1="896.3125" y2="896.3125"/><text fill="#000000" font-family="sans-serif" font-size="13" lengthAdjust="spacing" textLength="205.061" x="757.0771" y="891.2466">CONSUME eventos acumulados</text></g><path d="M658,909.3125 L658,964.3125 L820,964.3125 L820,919.3125 L810,909.3125 L658,909.3125" fill="#FEFFDD" style="stroke:#181818;stroke-width:0.5;"/><path d="M810,909.3125 L810,919.3125 L820,919.3125 L810,909.3125" fill="#FEFFDD" style="stroke:#181818;stroke-width:0.5;"/><text fill="#000000" font-family="sans-serif" font-size="13" lengthAdjust="spacing" textLength="141.7622" x="664" y="926.3794">Procesa con rate limit</text><text fill="#000000" font-family="sans-serif" font-size="13" lengthAdjust="spacing" textLength="135.7764" x="664" y="941.5122">(max 50 msg/s) para</text><text fill="#000000" font-family="sans-serif" font-size="13" lengthAdjust="spacing" textLength="110.1826" x="664" y="956.645">evitar saturacion</text><?plantuml-src TLJRRXf947tlhoWHhMHhZM6pbmSa8ut7Oy9k3BCUB1G5FnGzPTpoqCts1JkA8krByW5H7lDr_f9KpvW4mwvuQQRkvvmghtn5KAJjxcyzI9MLGNaujOHtP06r9pZ7ga8egO94O_NEA-cW8BjMaeHmTqglqE8I7FqJI4jAh3NtaribxpGv1o-tNEOexnRM15scfZ8MNfmdyIS4Iiz_MvdpeLInQ0kGYqok10ToGRNYZz2QqXpIIf7sjNsQFZSd-H06wEaUtytqmLz6B-3dtP4EwyZ1T2ToTx2PVdkM3IwJi-HiV5s79ADY9yOvdc_9pMm5ZVFiCac7ur7o-Yci40nB86YTMiFrkR4yp2lbRZj5c3jfrPoQdYx-5a8Rnjki6Nak1pt864iBbcU2FlpU_Gb8mnzTDzDFKvaU9AV3x78o5eBHWdQVGU6uH4eg2H1Q5mfoQnQMd6a9jh77OCeUWsm27LofplgN3cwcxwmQLyUu_JcTRBLJnsoARchsPbeRRia6Zu3_9GyEQszwUZMPv3p3ht1mWwfgtw3pH-2KXeh7qrBXOTqVkyT9Uj3Qz0rSf5HkPRIQirJnrbWydkayn16bqLxfW3Q-m0K7CbXdt75BF6l_g05qhyMOt99a5i1Rl57ISEg2W97mj20eWwsNW7t2YYnAPVIn42SdCFRME5PzJAFYIorO_s2YbouDd9myeoJJQuL0Qwn2dMIRZ7nS_62ZSV7iuZekp9UitOQD26QV1VKzODzJiBMzoLe3_hBRXVSC11w1fWTVU5fzgBtwVLPSJ7Lr-dfOl88VoOwbMQugybJ2swHuCqglztdajC_P6d49xZE24FUp8OQqOY0UltxSvgAkcgtPYK536PQXmfAVZ9qq5TRmCuAH0KckDiaG4PtfVVRSTsQeOIKdgmmNPMcGYrJ0uxzVW0yB9u8YknYsdyGR-Nb2j5P6Jd6rMKDb93_G74KqxADvi952QGx_TqCUFts6DBla0pAUwKaZB9QQNVAQiAOzXXWl18CHcMXQICUZukeYOofsmTax37a3JYtw-ZnKYkdduxB41ruoMBf5nnr2FBipJMlbUK4S-j08-1i0?></g></svg>